<svg xmlns="http://www.w3.org/2000/svg" xmlns:xlink="http://www.w3.org/1999/xlink" width="480" zoomAndPan="magnify" viewBox="0 0 360 359.999987" height="480" preserveAspectRatio="xMidYMid meet" version="1.0"><defs><clipPath id="81e9c87748"><path d="M 71.566406 58.289062 L 283.816406 58.289062 L 283.816406 302.039062 L 71.566406 302.039062 Z M 71.566406 58.289062 " clip-rule="nonzero"/></clipPath><clipPath id="3a431c767a"><path d="M 0.753906 0.289062 L 212.816406 0.289062 L 212.816406 244 L 0.753906 244 Z M 0.753906 0.289062 " clip-rule="nonzero"/></clipPath><clipPath id="88ad739960"><rect x="0" width="213" y="0" height="245"/></clipPath><clipPath id="ccbef802b3"><path d="M 159.367188 149.261719 L 188.722656 149.261719 L 188.722656 193.015625 L 159.367188 193.015625 Z M 159.367188 149.261719 " clip-rule="nonzero"/></clipPath><clipPath id="b3d72d6e3d"><path d="M 0.367188 0.261719 L 29.722656 0.261719 L 29.722656 44.015625 L 0.367188 44.015625 Z M 0.367188 0.261719 " clip-rule="nonzero"/></clipPath><clipPath id="b04aed2ae2"><rect x="0" width="30" y="0" height="45"/></clipPath><clipPath id="a4a67191e0"><path d="M 195 72 L 223 72 L 223 100 L 195 100 Z M 195 72 " clip-rule="nonzero"/></clipPath><clipPath id="d43a24a430"><path d="M 205.773438 66.84375 L 227.765625 82.503906 L 212.101562 104.496094 L 190.109375 88.835938 Z M 205.773438 66.84375 " clip-rule="nonzero"/></clipPath><clipPath id="2a790429b4"><path d="M 205.773438 66.84375 L 227.765625 82.503906 L 212.101562 104.496094 L 190.109375 88.835938 Z M 205.773438 66.84375 " clip-rule="nonzero"/></clipPath><clipPath id="976373fd15"><path d="M 205.773438 66.84375 L 227.765625 82.503906 L 212.101562 104.496094 L 190.109375 88.835938 Z M 205.773438 66.84375 " clip-rule="nonzero"/></clipPath><clipPath id="38b3387685"><path d="M 58 114 L 95 114 L 95 220 L 58 220 Z M 58 114 " clip-rule="nonzero"/></clipPath><clipPath id="363ff27aa9"><path d="M 55 117.757812 L 77 113.042969 L 99.164062 216.445312 L 77.164062 221.160156 Z M 55 117.757812 " clip-rule="nonzero"/></clipPath><clipPath id="5f54545deb"><path d="M 55 117.757812 L 77 113.042969 L 99.164062 216.445312 L 77.164062 221.160156 Z M 55 117.757812 " clip-rule="nonzero"/></clipPath><clipPath id="243fff8c5f"><path d="M 55 117.757812 L 77 113.042969 L 99.164062 216.445312 L 77.164062 221.160156 Z M 55 117.757812 " clip-rule="nonzero"/></clipPath><clipPath id="4608e38e32"><path d="M 59 114 L 83 114 L 83 146 L 59 146 Z M 59 114 " clip-rule="nonzero"/></clipPath><clipPath id="04392bddce"><path d="M 55 117.757812 L 77 113.042969 L 99.164062 216.445312 L 77.164062 221.160156 Z M 55 117.757812 " clip-rule="nonzero"/></clipPath><clipPath id="a361acffe7"><path d="M 55 117.757812 L 77 113.042969 L 99.164062 216.445312 L 77.164062 221.160156 Z M 55 117.757812 " clip-rule="nonzero"/></clipPath><clipPath id="16b32413d7"><path d="M 55 117.757812 L 77 113.042969 L 99.164062 216.445312 L 77.164062 221.160156 Z M 55 117.757812 " clip-rule="nonzero"/></clipPath><clipPath id="f051110cbe"><path d="M 68 153 L 92 153 L 92 218 L 68 218 Z M 68 153 " clip-rule="nonzero"/></clipPath><clipPath id="e7b54c86b7"><path d="M 55 117.757812 L 77 113.042969 L 99.164062 216.445312 L 77.164062 221.160156 Z M 55 117.757812 " clip-rule="nonzero"/></clipPath><clipPath id="68f19928b0"><path d="M 55 117.757812 L 77 113.042969 L 99.164062 216.445312 L 77.164062 221.160156 Z M 55 117.757812 " clip-rule="nonzero"/></clipPath><clipPath id="2eb608a777"><path d="M 55 117.757812 L 77 113.042969 L 99.164062 216.445312 L 77.164062 221.160156 Z M 55 117.757812 " clip-rule="nonzero"/></clipPath><clipPath id="59c854c641"><path d="M 63 147 L 92 147 L 92 218 L 63 218 Z M 63 147 " clip-rule="nonzero"/></clipPath><clipPath id="54415dc8a3"><path d="M 55 117.757812 L 77 113.042969 L 99.164062 216.445312 L 77.164062 221.160156 Z M 55 117.757812 " clip-rule="nonzero"/></clipPath><clipPath id="b800e21b20"><path d="M 55 117.757812 L 77 113.042969 L 99.164062 216.445312 L 77.164062 221.160156 Z M 55 117.757812 " clip-rule="nonzero"/></clipPath><clipPath id="75e61e9576"><path d="M 55 117.757812 L 77 113.042969 L 99.164062 216.445312 L 77.164062 221.160156 Z M 55 117.757812 " clip-rule="nonzero"/></clipPath><clipPath id="5060375c90"><path d="M 256 104 L 274 104 L 274 163 L 256 163 Z M 256 104 " clip-rule="nonzero"/></clipPath><clipPath id="82d6ae0b0e"><path d="M 252.863281 106.292969 L 263.929688 104.289062 L 282.367188 206.132812 L 271.296875 208.136719 Z M 252.863281 106.292969 " clip-rule="nonzero"/></clipPath><clipPath id="2f4e53ca27"><path d="M 252.863281 106.292969 L 263.929688 104.289062 L 282.367188 206.132812 L 271.296875 208.136719 Z M 252.863281 106.292969 " clip-rule="nonzero"/></clipPath><clipPath id="15dd159d5c"><path d="M 263 159 L 281 159 L 281 208 L 263 208 Z M 263 159 " clip-rule="nonzero"/></clipPath><clipPath id="ef45563f1b"><path d="M 252.863281 106.292969 L 263.929688 104.289062 L 282.367188 206.132812 L 271.296875 208.136719 Z M 252.863281 106.292969 " clip-rule="nonzero"/></clipPath><clipPath id="ed317ad7b0"><path d="M 252.863281 106.292969 L 263.929688 104.289062 L 282.367188 206.132812 L 271.296875 208.136719 Z M 252.863281 106.292969 " clip-rule="nonzero"/></clipPath><clipPath id="5a3232f09f"><path d="M 264 159 L 282 159 L 282 207 L 264 207 Z M 264 159 " clip-rule="nonzero"/></clipPath><clipPath id="9f9f166f4c"><path d="M 252.863281 106.292969 L 263.929688 104.289062 L 282.367188 206.132812 L 271.296875 208.136719 Z M 252.863281 106.292969 " clip-rule="nonzero"/></clipPath><clipPath id="6a5f21cdde"><path d="M 252.863281 106.292969 L 263.929688 104.289062 L 282.367188 206.132812 L 271.296875 208.136719 Z M 252.863281 106.292969 " clip-rule="nonzero"/></clipPath><clipPath id="11c5b4620e"><path d="M 256 104 L 266 104 L 266 163 L 256 163 Z M 256 104 " clip-rule="nonzero"/></clipPath><clipPath id="37a0bd9ea5"><path d="M 252.863281 106.292969 L 263.929688 104.289062 L 282.367188 206.132812 L 271.296875 208.136719 Z M 252.863281 106.292969 " clip-rule="nonzero"/></clipPath><clipPath id="f80b77e39f"><path d="M 252.863281 106.292969 L 263.929688 104.289062 L 282.367188 206.132812 L 271.296875 208.136719 Z M 252.863281 106.292969 " clip-rule="nonzero"/></clipPath><clipPath id="e9f875400e"><path d="M 262 157 L 274 157 L 274 164 L 262 164 Z M 262 157 " clip-rule="nonzero"/></clipPath><clipPath id="83fca1fe89"><path d="M 252.863281 106.292969 L 263.929688 104.289062 L 282.367188 206.132812 L 271.296875 208.136719 Z M 252.863281 106.292969 " clip-rule="nonzero"/></clipPath><clipPath id="3c3b361e6e"><path d="M 252.863281 106.292969 L 263.929688 104.289062 L 282.367188 206.132812 L 271.296875 208.136719 Z M 252.863281 106.292969 " clip-rule="nonzero"/></clipPath></defs><g clip-path="url(#81e9c87748)"><g transform="matrix(1, 0, 0, 1, 71, 58)"><g clip-path="url(#88ad739960)"><g clip-path="url(#3a431c767a)"><path fill="#000000" d="M 111.675781 0.441406 C 111.558594 0.4375 111.4375 0.433594 111.320312 0.429688 C 104.957031 0.289062 97.585938 0.851562 91.335938 2.175781 C 89.136719 2.640625 86.949219 3.355469 84.78125 3.957031 C 82.113281 4.691406 79.410156 5.375 76.796875 6.289062 C 69.15625 9.019531 62.195312 13.375 56.390625 19.058594 C 48.671875 26.539062 43.425781 34.726562 39 44.464844 C 38.3125 45.984375 37.507812 47.441406 36.890625 48.992188 C 31.457031 62.636719 28.636719 78.273438 27.617188 92.886719 C 27.359375 96.847656 27.21875 100.8125 27.199219 104.78125 C 27.195312 106.414062 27.296875 108.046875 27.261719 109.675781 C 27.214844 111.851562 25.589844 115.664062 24.210938 117.359375 C 23.316406 118.457031 22.1875 119.378906 21.117188 120.300781 C 16.722656 124.085938 11.6875 127.046875 7.472656 131.058594 C 4.550781 133.839844 1 136.90625 0.921875 141.242188 C 0.875 143.808594 1.492188 146.03125 3.316406 147.90625 C 5.375 150.019531 7.511719 150.964844 10.207031 151.996094 C 18.179688 155.050781 25.582031 154.992188 33.960938 155.046875 C 34.378906 156.726562 34.980469 158.355469 35.46875 160.015625 C 36.539062 163.652344 37.523438 167.457031 38.179688 171.191406 C 39.1875 176.894531 39.515625 182.859375 39.84375 188.636719 C 40.105469 193.195312 40.390625 197.710938 40.417969 202.28125 C 40.441406 205.996094 40.164062 209.734375 40.289062 213.445312 C 40.460938 218.660156 41.277344 225.433594 45.308594 229.132812 C 48.386719 231.957031 51.75 231.882812 55.648438 231.230469 C 57.328125 230.949219 59 230.625 60.566406 229.929688 C 61.929688 229.332031 63.171875 228.292969 64.472656 227.550781 C 67.410156 225.878906 72.566406 224.003906 75.9375 223.878906 C 77.050781 223.835938 78.203125 223.863281 79.269531 224.214844 C 80.46875 224.613281 81.507812 225.378906 82.484375 226.160156 C 85.722656 228.746094 87.652344 231.570312 90.105469 234.796875 C 90.945312 235.902344 91.878906 236.933594 92.742188 238.019531 C 93.601562 239.097656 94.421875 240.285156 95.4375 241.21875 C 97.832031 243.429688 102.160156 244.03125 105.289062 243.875 C 112.03125 243.527344 117.007812 237.730469 121.210938 233.070312 C 122.390625 231.714844 123.667969 230.453125 125.035156 229.289062 C 126.621094 227.941406 128.421875 227.066406 130.324219 226.261719 C 132.386719 225.386719 134.34375 225.039062 136.574219 224.933594 C 141.335938 224.71875 144.78125 226.03125 149.078125 227.871094 C 150.574219 228.511719 152.097656 229.109375 153.578125 229.78125 C 157.46875 231.550781 160.4375 232.992188 164.847656 233.339844 C 166.914062 233.503906 169.167969 233.230469 171.066406 232.371094 C 178.027344 229.226562 177.210938 219.851562 180.890625 214.164062 C 182.332031 211.9375 184.628906 210.152344 186.890625 208.824219 C 189.855469 207.082031 193.285156 205.625 196.648438 204.914062 C 201.074219 203.976562 206.046875 205.066406 209.910156 201.695312 C 211.054688 200.699219 211.917969 199.289062 211.988281 197.746094 C 212.050781 196.367188 211.644531 194.90625 211.152344 193.628906 C 209.132812 188.390625 205.675781 187.070312 201.480469 183.929688 C 199.664062 182.566406 197.84375 180.960938 196.355469 179.238281 C 189.886719 171.75 181.964844 158.308594 182.652344 148.144531 C 185.421875 148.171875 188.164062 148.128906 190.914062 147.742188 C 196.730469 146.929688 203.070312 144.441406 207.425781 140.417969 C 210.28125 137.78125 212.703125 134.355469 212.859375 130.335938 C 212.867188 130.097656 212.867188 129.855469 212.859375 129.613281 C 212.785156 127.542969 211.894531 125.914062 210.488281 124.445312 C 204.9375 118.667969 186.371094 115.148438 183.796875 111.527344 C 182.734375 110.035156 181.980469 104.292969 181.890625 102.355469 C 181.8125 100.585938 181.945312 98.785156 181.988281 97.015625 C 182.082031 93.261719 182.203125 89.46875 182.085938 85.71875 C 181.355469 62.804688 175.515625 39.664062 159.707031 22.390625 C 147.085938 8.601562 130.238281 1.265625 111.675781 0.441406 Z M 75.546875 169.171875 C 75.117188 169.328125 74.933594 169.375 74.679688 169.789062 C 74.394531 169.144531 74.28125 168.527344 74.207031 167.835938 C 74.683594 167.851562 74.882812 167.816406 75.28125 168.128906 C 75.371094 168.46875 75.488281 168.824219 75.546875 169.171875 Z M 75.546875 169.171875 " fill-opacity="1" fill-rule="nonzero"/></g><path fill="#ffffff" d="M 116.996094 5.109375 C 113.277344 4.617188 109.601562 4.167969 105.84375 4.203125 C 98.140625 4.277344 91.457031 5.828125 84.121094 7.984375 C 82.71875 8.394531 81.207031 8.640625 79.855469 9.179688 C 78.773438 9.609375 77.730469 10.21875 76.675781 10.714844 C 72.0625 12.875 67.753906 15.167969 63.710938 18.296875 C 60.582031 20.71875 56.925781 23.726562 54.316406 26.664062 C 42.875 39.554688 35.222656 60.738281 33.101562 77.648438 C 32.820312 79.882812 32.464844 82.125 32.253906 84.367188 C 31.132812 96.316406 31.359375 108.285156 32.261719 120.242188 C 32.414062 122.238281 32.734375 124.21875 32.957031 126.207031 C 34.0625 135.515625 35.628906 144.765625 37.648438 153.917969 C 37.953125 155.285156 38.382812 156.617188 38.71875 157.976562 C 39.496094 161.132812 40.203125 164.308594 40.84375 167.5 C 41.492188 170.890625 41.914062 174.304688 42.359375 177.726562 C 43.265625 184.757812 43.917969 191.703125 44.15625 198.789062 C 44.257812 201.554688 44.328125 204.320312 44.367188 207.085938 C 44.40625 211.804688 43.863281 221.511719 46.875 225.316406 C 47.285156 225.832031 47.839844 226.175781 48.28125 226.648438 C 50.03125 227.09375 51.960938 227.867188 53.785156 227.699219 C 54.898438 227.601562 55.757812 226.980469 56.769531 226.582031 C 57.324219 226.363281 57.941406 226.367188 58.5 226.136719 C 60.265625 225.402344 62.007812 224.269531 63.710938 223.371094 C 69.625 220.265625 75.578125 218.53125 81.96875 221.378906 C 81.210938 217.515625 80.5625 213.636719 80.019531 209.742188 C 79.703125 207.609375 79.226562 203.402344 78.574219 201.511719 C 78.421875 199.617188 78.09375 197.710938 77.863281 195.820312 C 77.144531 189.957031 76.28125 184.113281 75.585938 178.246094 C 75.292969 175.738281 74.878906 173.382812 74.824219 170.84375 L 74.679688 169.789062 C 74.394531 169.144531 74.28125 168.527344 74.207031 167.835938 C 74.683594 167.851562 74.882812 167.816406 75.28125 168.128906 C 75.371094 168.46875 75.488281 168.824219 75.546875 169.171875 C 75.921875 172.8125 76.835938 176.363281 77.464844 179.96875 C 79.339844 190.714844 81.460938 201.410156 83.257812 212.171875 C 83.890625 215.949219 84.800781 219.773438 85.171875 223.585938 C 86.742188 225.328125 88.585938 226.789062 90.109375 228.582031 C 92.382812 231.257812 95.402344 236.359375 98.074219 238.246094 C 98.832031 238.78125 99.835938 239.066406 100.648438 239.527344 C 102.390625 240.511719 105.367188 240.40625 107.246094 239.847656 C 110.109375 238.996094 113.230469 236.703125 115.042969 234.351562 C 115.53125 233.722656 115.820312 232.960938 116.304688 232.339844 C 116.636719 231.910156 117.054688 231.539062 117.410156 231.132812 C 118.453125 229.945312 119.472656 228.636719 120.371094 227.339844 C 122.554688 225.035156 125.128906 223.394531 127.988281 222.082031 C 127.617188 219.949219 126.769531 217.800781 126.121094 215.738281 C 125.011719 212.238281 123.980469 208.707031 123.039062 205.15625 C 121.976562 200.996094 120.949219 196.761719 120.160156 192.542969 C 119.925781 191.273438 119.691406 189.988281 119.507812 188.710938 C 119.402344 187.957031 119.445312 187.210938 119.253906 186.464844 L 119.015625 186.058594 L 119.132812 185.890625 C 119.414062 186.003906 119.617188 186.078125 119.75 186.375 C 120.25 187.488281 120.371094 188.761719 120.878906 189.914062 C 121.269531 191.585938 121.800781 193.21875 122.246094 194.875 C 124.367188 202.957031 126.902344 210.917969 129.839844 218.738281 C 130.046875 219.511719 130.339844 220.238281 130.636719 220.980469 C 136.730469 220.890625 142.761719 221.339844 148.625 223.074219 C 150.582031 223.898438 152.496094 224.75 154.4375 225.605469 C 154.765625 225.851562 155.089844 226.03125 155.457031 226.214844 C 157.195312 227.1875 159.195312 228 161.074219 228.660156 C 163.550781 229.53125 167.136719 230.230469 169.597656 228.988281 C 174.261719 226.636719 174.472656 219.15625 175.867188 214.773438 C 174.636719 212.710938 172.878906 210.753906 171.453125 208.804688 C 171.234375 208.492188 170.988281 208.203125 170.738281 207.910156 C 170.332031 206.949219 168.792969 204.820312 168.09375 203.957031 C 167.136719 202.328125 166.117188 200.738281 165.042969 199.183594 C 164.53125 197.851562 163.492188 196.519531 162.800781 195.253906 C 161.132812 192.195312 159.488281 189.078125 157.988281 185.933594 C 156.683594 183.199219 155.597656 180.316406 154.5 177.496094 C 154.023438 176.273438 153.648438 174.902344 153.027344 173.757812 L 152.933594 173.335938 L 153.070312 173.230469 C 153.511719 173.367188 153.878906 173.773438 154.078125 174.179688 C 155.488281 177.074219 156.75 180.050781 158.238281 182.910156 C 162.203125 190.429688 166.699219 197.65625 171.6875 204.539062 C 172.71875 205.984375 173.800781 207.386719 174.867188 208.804688 C 175.59375 209.773438 176.289062 210.839844 177.128906 211.710938 C 177.164062 211.675781 177.199219 211.644531 177.238281 211.609375 C 178.023438 210.863281 178.644531 209.945312 179.320312 209.101562 C 180.40625 207.742188 181.835938 206.535156 183.320312 205.636719 C 185.296875 204.445312 188.828125 202.777344 191.050781 202.167969 C 194.0625 201.347656 197.296875 200.8125 200.390625 200.394531 C 202.109375 200.164062 203.84375 200.117188 205.527344 199.691406 C 206.511719 199.445312 207.71875 199.171875 208.359375 198.335938 C 208.554688 197.667969 208.460938 196.992188 208.296875 196.324219 C 208.074219 195.429688 207.542969 194.644531 206.902344 193.996094 C 205.304688 192.378906 203.214844 191.164062 201.457031 189.714844 C 197.4375 186.441406 193.800781 182.730469 190.609375 178.644531 C 189.714844 177.488281 189.050781 176.148438 188.289062 174.898438 C 184.320312 168.425781 181.101562 161.617188 179.527344 154.148438 C 179.152344 152.394531 179.054688 150.59375 178.914062 148.8125 C 174.90625 148.480469 169.875 146.652344 166.476562 144.589844 C 165.328125 144.007812 164.390625 143.230469 163.582031 142.234375 C 164.222656 141.570312 165.867188 142.40625 166.628906 142.691406 C 172.148438 144.738281 178.089844 145.289062 183.945312 145.097656 C 191.257812 144.859375 200.882812 142.339844 205.910156 136.847656 C 207.351562 135.269531 208.398438 133.433594 208.308594 131.234375 C 208.023438 125.261719 201.703125 123.378906 197.011719 121.890625 C 194.648438 121.140625 192.25 120.417969 189.964844 119.453125 C 185.480469 117.558594 181.421875 115.144531 177.773438 111.898438 C 174.3125 108.816406 171.5 104.753906 169.527344 100.578125 C 168.96875 99.398438 168.683594 97.890625 168.035156 96.792969 C 168.011719 96.757812 167.988281 96.722656 167.964844 96.691406 C 167.984375 96.398438 168.019531 96.136719 168.085938 95.847656 C 168.429688 95.707031 168.453125 95.804688 168.78125 95.9375 C 171.136719 100.085938 173.730469 103.722656 177.382812 106.835938 C 177.398438 103.699219 177.300781 100.5625 177.300781 97.425781 C 177.308594 81.949219 177.128906 68.453125 172.234375 53.558594 C 169.746094 45.992188 166.917969 40.140625 162.433594 33.554688 C 154.871094 22.453125 143.730469 13.191406 131.023438 8.652344 C 126.3125 6.972656 121.875 6.03125 116.996094 5.109375 Z M 116.996094 5.109375 " fill-opacity="1" fill-rule="nonzero"/><path fill="#ffffff" d="M 177.382812 106.835938 C 177.398438 103.699219 177.300781 100.5625 177.300781 97.425781 C 177.308594 81.949219 177.128906 68.453125 172.234375 53.558594 C 169.746094 45.992188 166.917969 40.140625 162.433594 33.554688 C 154.871094 22.453125 143.730469 13.191406 131.023438 8.652344 C 126.3125 6.972656 121.875 6.03125 116.996094 5.109375 C 116.816406 5.226562 116.753906 5.238281 116.65625 5.429688 C 116.386719 5.972656 116.035156 6.429688 115.453125 6.605469 L 115.316406 6.832031 C 115.582031 7.425781 116.003906 7.585938 116.589844 7.8125 C 118.550781 8.566406 121.839844 8.4375 123.476562 9.527344 C 124.03125 9.894531 124.898438 9.933594 125.527344 10.144531 C 126.8125 10.570312 128.292969 11.242188 129.488281 11.871094 C 132.082031 13.242188 134.878906 14.886719 137.082031 16.839844 C 138.339844 17.957031 139.410156 19.285156 140.78125 20.273438 C 142.316406 21.378906 144.40625 22.078125 145.695312 23.449219 C 146.234375 24.023438 146.570312 25.105469 146.945312 25.824219 C 146.707031 26.027344 146.519531 26.011719 146.21875 25.96875 C 144.636719 25.753906 144.648438 24.777344 143.582031 23.9375 C 143.011719 23.488281 142.285156 23.242188 141.675781 22.847656 C 141.300781 22.605469 140.988281 22.285156 140.601562 22.050781 C 139.289062 21.238281 137.0625 20.527344 135.546875 20.953125 C 134.210938 21.324219 132.910156 21.144531 131.804688 22.089844 C 130.851562 22.90625 130.042969 23.542969 129.917969 24.894531 C 129.574219 28.597656 132.992188 32.234375 135.109375 34.875 C 135.570312 35.449219 135.898438 36.144531 136.375 36.6875 C 137.273438 37.707031 138.59375 38.324219 139.621094 39.183594 C 141.265625 40.5625 142.578125 42.390625 144.238281 43.707031 C 145.449219 44.667969 146.765625 44.878906 148.105469 45.527344 C 149.019531 45.964844 149.777344 46.757812 150.578125 47.144531 C 151.152344 47.425781 152.242188 47.515625 152.882812 47.515625 C 153.015625 47.515625 153.054688 47.503906 153.171875 47.484375 L 152.882812 47.335938 C 153.894531 47.316406 154.820312 47.277344 155.589844 46.523438 C 156.359375 45.769531 156.585938 44.613281 156.570312 43.574219 C 156.554688 42.722656 156.332031 41.820312 156.019531 41.03125 C 155.105469 38.746094 154.5 36.238281 152.835938 34.378906 C 152.59375 34.109375 152.328125 33.542969 152.421875 33.171875 C 152.4375 33.109375 152.476562 33.054688 152.507812 32.996094 C 152.816406 32.902344 152.972656 32.925781 153.265625 33.070312 C 153.90625 33.386719 154.496094 34.09375 154.921875 34.660156 C 155.835938 35.875 156.507812 37.277344 157.289062 38.578125 C 158.023438 39.796875 158.867188 40.980469 159.46875 42.277344 C 160.445312 44.371094 161.59375 47.304688 162.207031 49.546875 C 162.460938 50.460938 162.59375 51.4375 162.902344 52.335938 C 163.285156 53.453125 163.910156 54.207031 164.015625 55.453125 C 163.804688 55.71875 163.632812 55.734375 163.304688 55.769531 C 161.804688 55.933594 160.144531 55.367188 159.03125 56.691406 C 158.527344 57.292969 158.300781 58.148438 158.382812 58.925781 C 158.421875 59.269531 158.492188 59.621094 158.613281 59.941406 C 158.84375 60.550781 158.898438 60.832031 158.753906 61.453125 C 158.523438 62.425781 159.707031 65.070312 160.246094 65.890625 C 160.851562 66.8125 161.816406 67.585938 162.910156 67.800781 C 163.601562 67.9375 164.625 67.785156 165.1875 67.335938 C 165.824219 66.828125 165.824219 65.816406 166.445312 65.308594 C 166.746094 65.339844 166.84375 65.457031 167.023438 65.6875 C 167.265625 66 167.4375 66.375 167.535156 66.757812 C 168.394531 70.179688 168.671875 74.628906 169.019531 78.171875 C 169.242188 80.429688 169.59375 82.652344 169.703125 84.925781 C 169.769531 86.324219 169.738281 90.074219 169.519531 91.375 C 169.28125 92.800781 168.46875 94.488281 168.78125 95.9375 C 171.136719 100.085938 173.730469 103.722656 177.382812 106.835938 Z M 177.382812 106.835938 " fill-opacity="1" fill-rule="nonzero"/><path fill="#ffffff" d="M 173.722656 152.378906 C 173.242188 152.246094 172.984375 152.105469 172.496094 152.28125 C 172.1875 152.675781 172.226562 153.347656 172.292969 153.828125 C 172.542969 155.566406 173.613281 159.890625 174.476562 161.335938 C 175.105469 162.390625 175.269531 163.734375 175.707031 164.894531 C 176.667969 167.453125 177.816406 170.203125 179.132812 172.601562 C 179.8125 173.839844 180.933594 174.804688 181.6875 175.984375 C 182.574219 177.367188 182.984375 178.992188 183.996094 180.308594 C 185.28125 181.988281 186.855469 183.273438 188.296875 184.777344 C 189.316406 185.839844 190.011719 187.253906 191.035156 188.355469 C 191.976562 189.367188 192.988281 190.394531 194.042969 191.285156 C 194.824219 191.945312 195.695312 192.53125 196.429688 193.246094 C 197.449219 194.246094 198.277344 195.617188 199.453125 196.429688 C 200.066406 196.855469 201.03125 197.074219 201.75 197.253906 C 202.867188 197.535156 206.539062 198.34375 207.511719 198.335938 C 207.792969 198.332031 208.078125 198.339844 208.359375 198.335938 C 208.554688 197.667969 208.460938 196.992188 208.296875 196.324219 C 208.074219 195.429688 207.542969 194.644531 206.902344 193.996094 C 205.304688 192.378906 203.214844 191.164062 201.457031 189.714844 C 197.4375 186.441406 193.800781 182.730469 190.609375 178.644531 C 189.714844 177.488281 189.050781 176.148438 188.289062 174.898438 C 184.320312 168.425781 181.101562 161.617188 179.527344 154.148438 C 177.222656 153.613281 175.921875 153.429688 173.722656 152.378906 Z M 173.722656 152.378906 " fill-opacity="1" fill-rule="nonzero"/><path fill="#ffffff" d="M 167.964844 96.691406 L 167.542969 96.425781 C 167.113281 96.601562 166.902344 96.753906 166.726562 97.195312 C 165.914062 99.1875 166.835938 103.035156 167.71875 104.984375 C 168.707031 107.164062 169.996094 109.328125 171.421875 111.257812 C 172.210938 112.332031 173.207031 113.3125 174.109375 114.296875 C 176.582031 116.992188 179.042969 119.53125 181.996094 121.714844 C 182.558594 122.132812 183.191406 122.390625 183.761719 122.777344 C 184.25 123.105469 184.582031 123.648438 185.0625 123.992188 C 185.828125 124.542969 187.191406 124.953125 188.089844 125.28125 C 189.011719 125.621094 189.972656 125.882812 190.886719 126.25 C 192 126.691406 193.121094 127.300781 194.269531 127.625 C 195.484375 127.96875 197.230469 127.90625 198.257812 128.625 C 199.511719 129.5 201.679688 130.300781 202.707031 131.21875 C 203.8125 132.203125 204.128906 134.265625 205.273438 135.058594 C 205.53125 135.234375 205.941406 135.269531 206.25 135.316406 C 207.1875 134.042969 207.4375 132.503906 208.308594 131.234375 C 208.023438 125.261719 201.703125 123.378906 197.011719 121.890625 C 194.648438 121.140625 192.25 120.417969 189.964844 119.453125 C 185.480469 117.558594 181.421875 115.144531 177.773438 111.898438 C 174.3125 108.816406 171.5 104.753906 169.527344 100.578125 C 168.96875 99.398438 168.683594 97.890625 168.035156 96.792969 C 168.011719 96.757812 167.988281 96.722656 167.964844 96.691406 Z M 167.964844 96.691406 " fill-opacity="1" fill-rule="nonzero"/><path fill="#ffffff" d="M 208.308594 131.234375 C 207.4375 132.503906 207.1875 134.042969 206.25 135.316406 C 205.371094 136.359375 203.484375 136.757812 202.226562 137.21875 C 200.722656 137.773438 199.238281 138.421875 197.722656 138.9375 C 194.558594 140.023438 191.046875 140.726562 187.722656 141.027344 C 182.792969 141.46875 177.472656 141.332031 172.628906 140.34375 C 171.101562 140.03125 169.507812 139.664062 168.015625 139.207031 C 166.058594 138.605469 161.617188 136.699219 159.78125 136.898438 L 159.667969 137.054688 C 159.988281 138.289062 162.527344 141.367188 163.582031 142.234375 C 164.222656 141.570312 165.867188 142.40625 166.628906 142.691406 C 172.148438 144.738281 178.089844 145.289062 183.945312 145.097656 C 191.257812 144.859375 200.882812 142.339844 205.910156 136.847656 C 207.351562 135.269531 208.398438 133.433594 208.308594 131.234375 Z M 208.308594 131.234375 " fill-opacity="1" fill-rule="nonzero"/><path fill="#ffffff" d="M 171.453125 208.804688 C 171.199219 211.128906 171.660156 213.199219 171.789062 215.503906 C 171.976562 218.902344 171.058594 222.46875 168.34375 224.714844 C 164.234375 228.117188 159.828125 225.617188 155.457031 226.214844 C 157.195312 227.1875 159.195312 228 161.074219 228.660156 C 163.550781 229.53125 167.136719 230.230469 169.597656 228.988281 C 174.261719 226.636719 174.472656 219.15625 175.867188 214.773438 C 174.636719 212.710938 172.878906 210.753906 171.453125 208.804688 Z M 171.453125 208.804688 " fill-opacity="1" fill-rule="nonzero"/><path fill="#ffffff" d="M 119.253906 186.464844 C 118.867188 186.792969 118.671875 187.007812 118.625 187.546875 C 118.460938 189.375 119.855469 201.191406 120.371094 202.929688 C 120.753906 204.222656 121.484375 206.226562 122.046875 207.445312 C 122.527344 208.488281 123.140625 209.46875 123.597656 210.523438 C 124.714844 213.085938 125.542969 216.601562 124.324219 219.273438 C 124.070312 219.839844 123.660156 220.320312 123.308594 220.828125 C 122.863281 221.464844 122.441406 222.273438 121.859375 222.792969 C 121.054688 223.507812 119.746094 224.125 119.554688 225.316406 C 119.496094 225.699219 119.5625 226.363281 119.808594 226.675781 L 120.410156 226.628906 L 120.53125 226.738281 C 120.390625 226.925781 120.191406 227.085938 120.21875 227.324219 L 120.371094 227.339844 C 122.554688 225.035156 125.128906 223.394531 127.988281 222.082031 C 127.617188 219.949219 126.769531 217.800781 126.121094 215.738281 C 125.011719 212.238281 123.980469 208.707031 123.039062 205.15625 C 121.976562 200.996094 120.949219 196.761719 120.160156 192.542969 C 119.925781 191.273438 119.691406 189.988281 119.507812 188.710938 C 119.402344 187.957031 119.445312 187.210938 119.253906 186.464844 Z M 119.253906 186.464844 " fill-opacity="1" fill-rule="nonzero"/><path fill="#ffffff" d="M 74.824219 170.84375 L 74.679688 170.773438 C 74.460938 171.40625 74.183594 171.882812 74.175781 172.566406 C 74.152344 173.941406 74.066406 175.328125 74.09375 176.699219 C 74.117188 177.863281 74.285156 179.0625 74.253906 180.222656 C 74.230469 181.042969 73.882812 181.878906 73.933594 182.699219 C 73.988281 183.621094 74.25 184.550781 74.355469 185.472656 C 74.851562 189.851562 75.222656 194.183594 76.492188 198.425781 C 76.675781 199.035156 76.816406 199.773438 77.152344 200.3125 C 77.476562 200.539062 77.71875 200.601562 78.097656 200.664062 C 78.269531 200.894531 78.328125 201.085938 78.398438 201.363281 L 78.574219 201.511719 C 78.421875 199.617188 78.09375 197.710938 77.863281 195.820312 C 77.144531 189.957031 76.28125 184.113281 75.585938 178.246094 C 75.292969 175.738281 74.878906 173.382812 74.824219 170.84375 Z M 74.824219 170.84375 " fill-opacity="1" fill-rule="nonzero"/><path fill="#ffffff" d="M 166.476562 144.589844 C 166.585938 145.265625 166.722656 146.039062 167.007812 146.664062 C 167.835938 148.453125 170.234375 149.957031 171.820312 151.089844 C 172.4375 151.53125 173.125 151.914062 173.722656 152.378906 C 175.921875 153.429688 177.222656 153.613281 179.527344 154.148438 C 179.152344 152.394531 179.054688 150.59375 178.914062 148.8125 C 174.90625 148.480469 169.875 146.652344 166.476562 144.589844 Z M 166.476562 144.589844 " fill-opacity="1" fill-rule="nonzero"/><path fill="#ffffff" d="M 153.027344 173.757812 C 152.984375 173.9375 152.957031 174.074219 152.960938 174.261719 C 152.960938 174.730469 152.785156 175.257812 152.84375 175.71875 C 152.96875 176.683594 156.152344 185.125 156.625 186.097656 C 156.921875 186.703125 157.496094 187.144531 157.769531 187.765625 C 158.238281 188.828125 158.351562 190.070312 158.648438 191.183594 C 159.132812 193.007812 160.695312 195.695312 162.019531 197.023438 C 162.34375 197.347656 163.695312 198.417969 163.785156 198.527344 C 164.0625 198.863281 164.578125 198.929688 164.914062 199.285156 L 165.042969 199.183594 C 164.53125 197.851562 163.492188 196.519531 162.800781 195.253906 C 161.132812 192.195312 159.488281 189.078125 157.988281 185.933594 C 156.683594 183.199219 155.597656 180.316406 154.5 177.496094 C 154.023438 176.273438 153.648438 174.902344 153.027344 173.757812 Z M 153.027344 173.757812 " fill-opacity="1" fill-rule="nonzero"/><path fill="#ffffff" d="M 129.839844 218.738281 C 129.988281 218.25 129.847656 217.929688 129.695312 217.464844 L 129.625 217.238281 C 129.804688 216.789062 130.371094 216.699219 130.625 216.300781 C 131.292969 215.261719 129.238281 213.578125 129.042969 212.539062 C 128.8125 211.316406 128.460938 209.859375 127.804688 208.785156 C 127.246094 207.878906 126.527344 207.144531 126.1875 206.105469 C 125.816406 204.976562 125.871094 203.832031 125.8125 202.664062 C 125.699219 200.386719 124.53125 199.878906 123.726562 198.046875 C 123.125 196.675781 123.136719 194.976562 122.839844 193.519531 C 122.683594 192.753906 122.332031 192.101562 122.089844 191.375 C 121.914062 190.847656 121.808594 190.234375 121.382812 189.851562 L 120.878906 189.914062 C 121.269531 191.585938 121.800781 193.21875 122.246094 194.875 C 124.367188 202.957031 126.902344 210.917969 129.839844 218.738281 Z M 129.839844 218.738281 " fill-opacity="1" fill-rule="nonzero"/><path fill="#ffffff" d="M 168.09375 203.957031 C 167.960938 204.21875 167.996094 204.066406 168.007812 204.277344 C 168.019531 204.507812 168.015625 204.414062 167.972656 204.648438 C 167.828125 205.457031 168.371094 207.183594 168.816406 207.832031 C 169.007812 208.109375 169.1875 208.230469 169.523438 208.296875 C 169.921875 208.222656 170.03125 208.09375 170.304688 207.816406 C 170.515625 207.933594 170.40625 207.863281 170.628906 208.023438 L 170.738281 207.910156 C 170.332031 206.949219 168.792969 204.820312 168.09375 203.957031 Z M 168.09375 203.957031 " fill-opacity="1" fill-rule="nonzero"/><path fill="#ffffff" d="M 154.4375 225.605469 L 154.425781 225.457031 C 154.1875 225.1875 153.863281 225.054688 153.550781 224.890625 L 153.542969 224.894531 C 153.582031 224.816406 153.605469 224.730469 153.652344 224.660156 C 153.847656 224.382812 153.757812 224.714844 153.8125 224.378906 C 152.65625 223.886719 151.472656 223.332031 150.210938 223.203125 C 149.8125 223.160156 149.394531 223.132812 149.011719 223.023438 C 148.761719 222.953125 148.902344 222.945312 148.625 223.074219 C 150.582031 223.898438 152.496094 224.75 154.4375 225.605469 Z M 154.4375 225.605469 " fill-opacity="1" fill-rule="nonzero"/><path fill="#000000" d="M 75.28125 168.128906 C 75.234375 167.527344 75.117188 166.664062 74.65625 166.238281 L 74.441406 166.292969 C 74.144531 166.746094 74.214844 167.308594 74.207031 167.835938 C 74.683594 167.851562 74.882812 167.816406 75.28125 168.128906 Z M 75.28125 168.128906 " fill-opacity="1" fill-rule="nonzero"/><path fill="#000000" d="M 84.566406 88.644531 L 84.671875 88.691406 C 85.003906 88.132812 85.261719 87.285156 85.382812 86.640625 C 85.636719 85.28125 86.6875 84.207031 87.359375 83.019531 C 87.949219 81.976562 88.335938 76.230469 87.980469 75.085938 C 87.964844 75.042969 87.945312 74.996094 87.929688 74.949219 C 87.652344 74.117188 85.871094 70.59375 85.355469 69.8125 C 85.136719 69.476562 84.734375 69.230469 84.410156 69.003906 C 83.558594 68.414062 82.996094 67.390625 82.398438 66.554688 C 82.539062 66.464844 82.644531 66.5 82.804688 66.503906 L 82.875 66.273438 C 82.398438 65.308594 80.585938 64.480469 79.667969 63.960938 C 79.65625 63.785156 79.636719 63.628906 79.609375 63.457031 C 78.628906 62.671875 76.828125 62.183594 75.589844 62.039062 C 73.898438 61.84375 72.355469 63.015625 71.058594 64.019531 C 70.996094 64.351562 71.066406 64.386719 71.234375 64.683594 C 70.171875 66.058594 68.453125 66.910156 67.585938 68.441406 L 67.675781 68.71875 C 66.972656 69.769531 66.332031 70.859375 65.753906 71.984375 C 65.46875 72.53125 65.191406 73.382812 64.820312 73.855469 L 64.632812 73.820312 C 64.269531 74.390625 64.332031 75.183594 63.957031 75.746094 C 63.546875 76.367188 62.75 76.578125 62.292969 77.132812 C 61.871094 77.640625 61.652344 78.539062 61.335938 79.144531 C 60.960938 79.859375 61.226562 80.722656 61.085938 81.488281 C 61.015625 81.878906 60.832031 82.238281 60.761719 82.632812 C 60.058594 86.589844 60.339844 89.527344 61.671875 93.269531 C 61.878906 93.867188 62.105469 94.363281 62.5 94.863281 C 62.777344 94.851562 62.867188 94.789062 63.101562 94.660156 C 63.421875 94.894531 63.09375 94.988281 63.53125 95.105469 C 63.820312 95.570312 64.078125 96.042969 64.328125 96.53125 C 65.121094 97.613281 65.839844 98.777344 66.894531 99.625 C 68.742188 101.023438 70.402344 101.5 72.695312 101.523438 C 73.691406 101.722656 74.449219 101.082031 75.304688 101.210938 C 76.246094 101.351562 76.34375 102.039062 77.585938 101.667969 C 77.902344 101.574219 78.34375 101.425781 78.621094 101.242188 C 79.757812 100.496094 80.730469 97.164062 81.414062 95.957031 C 81.519531 95.773438 81.613281 95.585938 81.714844 95.398438 L 81.621094 95.230469 C 82.898438 93.125 83.636719 90.90625 84.566406 88.644531 Z M 84.566406 88.644531 " fill-opacity="1" fill-rule="nonzero"/><path fill="#ffffff" d="M 84.566406 88.644531 L 84.671875 88.691406 C 85.003906 88.132812 85.261719 87.285156 85.382812 86.640625 C 85.636719 85.28125 86.6875 84.207031 87.359375 83.019531 C 87.949219 81.976562 88.335938 76.230469 87.980469 75.085938 C 87.964844 75.042969 87.945312 74.996094 87.929688 74.949219 C 87.652344 74.117188 85.871094 70.59375 85.355469 69.8125 C 85.136719 69.476562 84.734375 69.230469 84.410156 69.003906 C 83.558594 68.414062 82.996094 67.390625 82.398438 66.554688 C 82.539062 66.464844 82.644531 66.5 82.804688 66.503906 L 82.875 66.273438 C 82.398438 65.308594 80.585938 64.480469 79.667969 63.960938 C 79.65625 63.785156 79.636719 63.628906 79.609375 63.457031 C 78.628906 62.671875 76.828125 62.183594 75.589844 62.039062 C 73.898438 61.84375 72.355469 63.015625 71.058594 64.019531 C 70.996094 64.351562 71.066406 64.386719 71.234375 64.683594 C 70.171875 66.058594 68.453125 66.910156 67.585938 68.441406 L 67.675781 68.71875 C 69.488281 66.410156 71.949219 64.324219 74.957031 63.941406 C 77.203125 63.65625 79.292969 64.257812 81.054688 65.667969 C 84.152344 68.144531 85.445312 72.296875 85.847656 76.101562 C 86.292969 80.351562 85.671875 84.546875 84.566406 88.644531 Z M 84.566406 88.644531 " fill-opacity="1" fill-rule="nonzero"/><path fill="#ffffff" d="M 64.820312 73.855469 L 64.632812 73.820312 C 64.269531 74.390625 64.332031 75.183594 63.957031 75.746094 C 63.546875 76.367188 62.75 76.578125 62.292969 77.132812 C 61.871094 77.640625 61.652344 78.539062 61.335938 79.144531 C 60.960938 79.859375 61.226562 80.722656 61.085938 81.488281 C 61.015625 81.878906 60.832031 82.238281 60.761719 82.632812 C 60.058594 86.589844 60.339844 89.527344 61.671875 93.269531 C 61.878906 93.867188 62.105469 94.363281 62.5 94.863281 C 62.777344 94.851562 62.867188 94.789062 63.101562 94.660156 C 63.421875 94.894531 63.09375 94.988281 63.53125 95.105469 C 61.273438 87.847656 62.285156 80.859375 64.820312 73.855469 Z M 64.820312 73.855469 " fill-opacity="1" fill-rule="nonzero"/><path fill="#ffffff" d="M 81.621094 95.230469 C 78.863281 98.625 77.195312 100.738281 72.695312 101.523438 C 73.691406 101.722656 74.449219 101.082031 75.304688 101.210938 C 76.246094 101.351562 76.34375 102.039062 77.585938 101.667969 C 77.902344 101.574219 78.34375 101.425781 78.621094 101.242188 C 79.757812 100.496094 80.730469 97.164062 81.414062 95.957031 C 81.519531 95.773438 81.613281 95.585938 81.714844 95.398438 Z M 81.621094 95.230469 " fill-opacity="1" fill-rule="nonzero"/><path fill="#000000" d="M 128.21875 63.148438 C 128.144531 63.140625 128.074219 63.132812 128 63.125 C 127.644531 63.082031 127.433594 62.90625 127.121094 62.757812 C 126.054688 62.261719 124.019531 62.542969 123.007812 63.003906 C 122.058594 63.4375 120.785156 64.066406 120.0625 64.828125 C 120.03125 65.070312 120.015625 64.964844 120.070312 65.144531 C 117.988281 67.367188 118.003906 67.625 116.6875 70.300781 L 116.449219 70.363281 C 116.355469 70.617188 116.292969 70.84375 116.246094 71.105469 L 116.074219 71.128906 L 115.886719 70.976562 C 115.292969 71.3125 114.066406 74.117188 113.851562 74.90625 C 113 78.027344 112.648438 81.683594 114.390625 84.617188 C 114.84375 85.378906 115.59375 85.941406 116.117188 86.652344 C 116.785156 87.5625 116.785156 88.621094 117.691406 89.367188 C 118.515625 91.160156 119.386719 92.917969 120.382812 94.617188 L 120.214844 94.691406 C 120.242188 94.753906 120.273438 94.816406 120.304688 94.878906 C 120.511719 95.339844 120.4375 95.9375 120.53125 96.433594 C 120.636719 96.992188 120.882812 97.429688 121.089844 97.949219 C 121.808594 99.761719 121.835938 99.945312 123.71875 100.757812 C 124.546875 101.113281 125.34375 101.324219 126.25 101.355469 C 126.714844 101.148438 127.117188 100.789062 127.636719 100.800781 C 127.8125 100.800781 128.019531 100.792969 128.191406 100.761719 C 128.667969 100.804688 129.140625 100.882812 129.617188 100.914062 C 131.878906 101.054688 133.777344 100.371094 135.460938 98.84375 C 136.402344 97.902344 137.105469 96.902344 137.8125 95.773438 C 139.21875 93.304688 139.558594 90.535156 139.785156 87.742188 C 139.820312 88.164062 139.863281 88.578125 139.921875 88.996094 C 139.933594 88.769531 139.953125 88.542969 139.957031 88.316406 C 139.96875 87.921875 139.945312 87.667969 140.140625 87.308594 C 140.238281 87.128906 140.292969 87.058594 140.320312 86.847656 C 140.359375 86.5625 140.296875 86.785156 140.398438 86.480469 C 140.421875 86.414062 140.449219 86.347656 140.46875 86.277344 C 140.632812 85.691406 140.945312 85.203125 141.082031 84.601562 C 141.429688 83.101562 141.011719 82.863281 140.929688 81.617188 C 140.875 80.777344 141.027344 79.882812 140.882812 79.054688 C 140.691406 77.945312 138.027344 74.417969 137.261719 73.191406 L 137.085938 73.210938 C 135.667969 70.078125 134.109375 67.601562 131.539062 65.300781 C 131.078125 65.007812 130.628906 64.714844 130.191406 64.390625 C 129.90625 63.710938 128.855469 63.425781 128.21875 63.148438 Z M 128.21875 63.148438 " fill-opacity="1" fill-rule="nonzero"/><path fill="#ffffff" d="M 116.6875 70.300781 L 116.449219 70.363281 C 116.355469 70.617188 116.292969 70.84375 116.246094 71.105469 L 116.074219 71.128906 L 115.886719 70.976562 C 115.292969 71.3125 114.066406 74.117188 113.851562 74.90625 C 113 78.027344 112.648438 81.683594 114.390625 84.617188 C 114.84375 85.378906 115.59375 85.941406 116.117188 86.652344 C 116.785156 87.5625 116.785156 88.621094 117.691406 89.367188 C 117.378906 87.691406 116.714844 86.03125 116.328125 84.355469 C 115.296875 79.875 115.386719 74.699219 116.6875 70.300781 Z M 116.6875 70.300781 " fill-opacity="1" fill-rule="nonzero"/><path fill="#ffffff" d="M 139.785156 87.742188 C 139.820312 88.164062 139.863281 88.578125 139.921875 88.996094 C 139.933594 88.769531 139.953125 88.542969 139.957031 88.316406 C 139.96875 87.921875 139.945312 87.667969 140.140625 87.308594 C 140.238281 87.128906 140.292969 87.058594 140.320312 86.847656 C 140.359375 86.5625 140.296875 86.785156 140.398438 86.480469 C 140.421875 86.414062 140.449219 86.347656 140.46875 86.277344 C 140.632812 85.691406 140.945312 85.203125 141.082031 84.601562 C 141.429688 83.101562 141.011719 82.863281 140.929688 81.617188 C 140.875 80.777344 141.027344 79.882812 140.882812 79.054688 C 140.691406 77.945312 138.027344 74.417969 137.261719 73.191406 L 137.085938 73.210938 C 137.578125 74.800781 138.179688 76.371094 138.621094 77.976562 C 139.5 81.152344 139.722656 84.46875 139.785156 87.742188 Z M 139.785156 87.742188 " fill-opacity="1" fill-rule="nonzero"/><path fill="#ffffff" d="M 120.382812 94.617188 L 120.214844 94.691406 C 120.242188 94.753906 120.273438 94.816406 120.304688 94.878906 C 120.511719 95.339844 120.4375 95.9375 120.53125 96.433594 C 120.636719 96.992188 120.882812 97.429688 121.089844 97.949219 C 121.808594 99.761719 121.835938 99.945312 123.71875 100.757812 C 124.546875 101.113281 125.34375 101.324219 126.25 101.355469 C 126.714844 101.148438 127.117188 100.789062 127.636719 100.800781 C 127.8125 100.800781 128.019531 100.792969 128.191406 100.761719 C 124.378906 99.472656 122.867188 97.679688 120.382812 94.617188 Z M 120.382812 94.617188 " fill-opacity="1" fill-rule="nonzero"/><path fill="#ffffff" d="M 128.21875 63.148438 C 128.144531 63.140625 128.074219 63.132812 128 63.125 C 127.644531 63.082031 127.433594 62.90625 127.121094 62.757812 C 126.054688 62.261719 124.019531 62.542969 123.007812 63.003906 C 122.058594 63.4375 120.785156 64.066406 120.0625 64.828125 C 120.03125 65.070312 120.015625 64.964844 120.070312 65.144531 C 120.992188 64.4375 121.933594 63.816406 123.039062 63.441406 C 125.597656 62.578125 127.867188 63.246094 130.191406 64.390625 C 129.90625 63.710938 128.855469 63.425781 128.21875 63.148438 Z M 128.21875 63.148438 " fill-opacity="1" fill-rule="nonzero"/><path fill="#000000" d="M 106.546875 97.945312 L 106.664062 97.792969 C 106.359375 97.238281 105.882812 96.804688 105.449219 96.355469 L 105.675781 96.269531 C 105.871094 96.039062 105.816406 95.921875 105.8125 95.640625 C 105.789062 94.777344 105.40625 94.128906 104.761719 93.554688 C 104.644531 93.449219 104.476562 93.300781 104.328125 93.246094 C 104.085938 93.152344 98.894531 92.84375 98.59375 92.882812 C 98.027344 92.957031 97.417969 93.835938 97.078125 94.273438 C 96.582031 94.898438 95.96875 94.992188 95.554688 95.472656 C 95.351562 95.707031 95.554688 95.539062 95.246094 95.757812 C 95.078125 95.878906 94.972656 95.964844 94.839844 96.117188 L 95.09375 96.207031 C 94.414062 97.058594 93.78125 97.917969 93.183594 98.824219 L 93.128906 98.6875 L 93.007812 98.664062 L 92.792969 99.199219 C 92.566406 99.742188 92.488281 100.8125 92.113281 101.210938 L 92.023438 100.886719 C 91.300781 100.96875 89.96875 102.96875 89.488281 103.589844 C 89.203125 103.957031 89.148438 104.382812 89.101562 104.832031 C 89.007812 105.773438 89.167969 110.625 89.3125 111.65625 C 89.632812 113.933594 90.546875 115.101562 91.347656 117.117188 C 91.699219 118 91.546875 119.171875 92.441406 119.75 C 92.597656 119.851562 92.636719 119.859375 92.792969 119.917969 L 92.769531 119.828125 C 92.835938 119.839844 92.90625 119.863281 92.976562 119.867188 C 93.039062 119.871094 93.097656 119.855469 93.160156 119.847656 C 94.800781 122.898438 96.433594 126.027344 100.011719 127.101562 C 101.734375 127.617188 103.523438 127.40625 105.09375 126.539062 C 107.488281 125.21875 107.753906 123.59375 109.109375 121.496094 L 109.21875 121.550781 C 109.46875 121.402344 109.460938 121.234375 109.53125 120.972656 C 109.761719 120.136719 110.023438 118.914062 110.378906 118.140625 C 110.902344 117.003906 111.625 115.960938 112.097656 114.796875 C 112.011719 114 111.554688 113.277344 111.464844 112.527344 C 111.375 111.796875 111.691406 110.863281 111.722656 110.113281 C 111.765625 109.066406 111.488281 107.34375 110.839844 106.492188 C 110.539062 106.09375 110.140625 105.757812 109.871094 105.335938 C 109.671875 105.019531 109.6875 104.636719 109.511719 104.300781 L 109.355469 104.480469 C 109.105469 103.925781 108.980469 103.25 108.769531 102.667969 C 108.171875 101.011719 107.460938 99.453125 106.546875 97.945312 Z M 106.546875 97.945312 " fill-opacity="1" fill-rule="nonzero"/><path fill="#ffffff" d="M 93.183594 98.824219 L 93.128906 98.6875 L 93.007812 98.664062 L 92.792969 99.199219 C 92.566406 99.742188 92.488281 100.8125 92.113281 101.210938 L 92.023438 100.886719 C 91.300781 100.96875 89.96875 102.96875 89.488281 103.589844 C 89.203125 103.957031 89.148438 104.382812 89.101562 104.832031 C 89.007812 105.773438 89.167969 110.625 89.3125 111.65625 C 89.632812 113.933594 90.546875 115.101562 91.347656 117.117188 C 91.699219 118 91.546875 119.171875 92.441406 119.75 C 92.597656 119.851562 92.636719 119.859375 92.792969 119.917969 L 92.769531 119.828125 C 92.835938 119.839844 92.90625 119.863281 92.976562 119.867188 C 93.039062 119.871094 93.097656 119.855469 93.160156 119.847656 C 91.46875 114.066406 90.574219 108.511719 91.996094 102.542969 C 92.296875 101.277344 92.824219 100.074219 93.183594 98.824219 Z M 93.183594 98.824219 " fill-opacity="1" fill-rule="nonzero"/><path fill="#ffffff" d="M 109.109375 121.496094 L 109.21875 121.550781 C 109.46875 121.402344 109.460938 121.234375 109.53125 120.972656 C 109.761719 120.136719 110.023438 118.914062 110.378906 118.140625 C 110.902344 117.003906 111.625 115.960938 112.097656 114.796875 C 112.011719 114 111.554688 113.277344 111.464844 112.527344 C 111.375 111.796875 111.691406 110.863281 111.722656 110.113281 C 111.765625 109.066406 111.488281 107.34375 110.839844 106.492188 C 110.539062 106.09375 110.140625 105.757812 109.871094 105.335938 C 109.671875 105.019531 109.6875 104.636719 109.511719 104.300781 L 109.355469 104.480469 C 110.699219 110.058594 110.863281 115.992188 109.109375 121.496094 Z M 109.109375 121.496094 " fill-opacity="1" fill-rule="nonzero"/><path fill="#ffffff" d="M 106.546875 97.945312 L 106.664062 97.792969 C 106.359375 97.238281 105.882812 96.804688 105.449219 96.355469 L 105.675781 96.269531 C 105.871094 96.039062 105.816406 95.921875 105.8125 95.640625 C 105.789062 94.777344 105.40625 94.128906 104.761719 93.554688 C 104.644531 93.449219 104.476562 93.300781 104.328125 93.246094 C 104.085938 93.152344 98.894531 92.84375 98.59375 92.882812 C 98.027344 92.957031 97.417969 93.835938 97.078125 94.273438 C 96.582031 94.898438 95.96875 94.992188 95.554688 95.472656 C 95.351562 95.707031 95.554688 95.539062 95.246094 95.757812 C 95.078125 95.878906 94.972656 95.964844 94.839844 96.117188 L 95.09375 96.207031 C 96.753906 94.917969 98.648438 94.078125 100.804688 94.335938 C 102.546875 94.546875 104.148438 95.425781 105.351562 96.679688 C 105.6875 97.027344 106.152344 97.699219 106.546875 97.945312 Z M 106.546875 97.945312 " fill-opacity="1" fill-rule="nonzero"/><path fill="#000000" d="M 101.480469 97.457031 C 100.628906 97.371094 99.410156 97.230469 98.59375 97.46875 C 97.554688 97.773438 96.707031 98.960938 96.214844 99.875 C 93.699219 104.546875 94.039062 111.996094 95.558594 116.957031 C 96.371094 119.601562 97.808594 122.644531 100.339844 123.996094 C 101.265625 124.285156 102.421875 124.367188 103.34375 124.035156 C 104.710938 123.542969 105.527344 122.238281 106.09375 120.96875 C 108.308594 115.984375 107.675781 107.996094 105.757812 103.011719 C 104.953125 100.914062 103.628906 98.40625 101.480469 97.457031 Z M 101.480469 97.457031 " fill-opacity="1" fill-rule="nonzero"/><path fill="#ffffff" d="M 64.328125 96.53125 C 64.28125 96.574219 64.238281 96.617188 64.1875 96.65625 C 63.90625 96.875 63.664062 96.910156 63.320312 96.839844 C 62.496094 96.667969 61.65625 95.664062 60.949219 95.21875 C 58.746094 93.816406 54.789062 93.4375 52.441406 94.59375 C 51.449219 95.082031 50.621094 95.933594 50.261719 96.996094 C 49.863281 98.191406 50.128906 99.410156 50.722656 100.492188 C 52.183594 103.167969 55.09375 105.015625 57.96875 105.808594 C 59.90625 106.34375 62.703125 106.492188 64.480469 105.449219 C 65.375 104.925781 66.101562 104.09375 66.320312 103.0625 C 66.570312 101.875 66.0625 100.625 66.894531 99.625 C 65.839844 98.777344 65.121094 97.613281 64.328125 96.53125 Z M 64.328125 96.53125 " fill-opacity="1" fill-rule="nonzero"/><path fill="#ffffff" d="M 135.460938 98.84375 C 136.320312 100.222656 135.261719 101.691406 136.3125 103.460938 C 136.914062 104.472656 137.867188 105.070312 139 105.332031 C 142.007812 106.023438 145.226562 104.96875 147.734375 103.324219 C 149.539062 102.140625 151.351562 100.402344 151.757812 98.1875 C 151.941406 97.183594 151.78125 96.203125 151.164062 95.378906 C 150.308594 94.230469 148.777344 93.441406 147.378906 93.257812 C 145.160156 92.96875 142.011719 93.753906 140.269531 95.15625 C 139.8125 95.519531 139.347656 95.933594 138.789062 96.121094 C 138.421875 96.09375 138.226562 96.019531 137.910156 95.835938 C 137.878906 95.816406 137.84375 95.792969 137.8125 95.773438 C 137.105469 96.902344 136.402344 97.902344 135.460938 98.84375 Z M 135.460938 98.84375 " fill-opacity="1" fill-rule="nonzero"/><path fill="#ffffff" d="M 131.539062 65.300781 C 131.53125 65.28125 131.527344 65.257812 131.515625 65.238281 C 131.363281 64.949219 131.257812 64.742188 131.183594 64.421875 C 131.121094 64.15625 131.070312 63.945312 130.945312 63.703125 C 130.019531 61.890625 129.457031 62.835938 129.0625 62.71875 C 128.953125 62.683594 128.871094 62.460938 128.675781 62.398438 L 128.511719 62.753906 L 128.582031 62.917969 L 128.21875 63.148438 C 128.855469 63.425781 129.90625 63.710938 130.191406 64.390625 C 130.628906 64.714844 131.078125 65.007812 131.539062 65.300781 Z M 131.539062 65.300781 " fill-opacity="1" fill-rule="nonzero"/><path fill="#ffffff" d="M 27.851562 118.519531 C 26.550781 120.402344 24.65625 122.710938 23.050781 124.296875 C 20.757812 126.675781 18.253906 128.84375 15.574219 130.765625 C 13.214844 132.464844 10.402344 134.019531 8.417969 136.144531 L 8.210938 135.953125 C 8.070312 135.980469 8.050781 135.976562 7.90625 136.058594 C 6.953125 136.601562 5.832031 139.050781 5.5625 140.109375 C 5.21875 141.488281 5.429688 142.871094 6.152344 144.089844 C 7.683594 146.667969 10.058594 147.914062 12.863281 148.601562 C 14.976562 149.121094 17.144531 149.546875 19.300781 149.832031 C 21.707031 150.148438 30.625 150.871094 32.410156 149.78125 C 32.671875 148.894531 31.304688 142.992188 31.074219 141.699219 C 30.238281 137.054688 29.410156 132.351562 28.875 127.660156 C 28.527344 124.628906 28.464844 121.511719 27.851562 118.519531 Z M 27.851562 118.519531 " fill-opacity="1" fill-rule="nonzero"/><path fill="#ffffff" d="M 23.050781 124.296875 C 20.757812 126.675781 18.253906 128.84375 15.574219 130.765625 C 13.214844 132.464844 10.402344 134.019531 8.417969 136.144531 C 8.257812 136.527344 7.898438 136.875 7.640625 137.203125 C 6.929688 138.109375 5.796875 139.457031 6.035156 140.699219 C 6.121094 141.144531 6.449219 141.457031 6.824219 141.683594 C 9.113281 143.078125 13.144531 143.167969 15.683594 142.496094 C 18.4375 141.765625 20.804688 140.058594 22.234375 137.574219 C 23.804688 134.855469 23.585938 132.269531 23.699219 129.25 C 23.746094 128.078125 23.964844 126.675781 23.722656 125.527344 C 23.609375 124.992188 23.203125 124.863281 23.050781 124.296875 Z M 23.050781 124.296875 " fill-opacity="1" fill-rule="nonzero"/><path fill="#000000" d="M 75.28125 168.128906 C 74.882812 167.816406 74.683594 167.851562 74.207031 167.835938 C 74.28125 168.527344 74.394531 169.144531 74.679688 169.789062 C 74.933594 169.375 75.117188 169.328125 75.546875 169.171875 C 75.488281 168.824219 75.371094 168.46875 75.28125 168.128906 Z M 75.28125 168.128906 " fill-opacity="1" fill-rule="nonzero"/></g></g></g><g clip-path="url(#ccbef802b3)"><g transform="matrix(1, 0, 0, 1, 159, 149)"><g clip-path="url(#b04aed2ae2)"><g clip-path="url(#b3d72d6e3d)"><path fill="#ffffff" d="M 0.367188 0.261719 L 29.722656 0.261719 L 29.722656 44.0625 L 0.367188 44.0625 Z M 0.367188 0.261719 " fill-opacity="1" fill-rule="nonzero"/></g></g></g></g><path stroke-linecap="butt" transform="matrix(0.736367, 0.142352, -0.142352, 0.736367, 141.23418, 111.64357)" fill="none" stroke-linejoin="miter" d="M -0.000113447 2.001222 L 24.273868 1.998064 " stroke="#000000" stroke-width="4" stroke-opacity="1" stroke-miterlimit="4"/><path stroke-linecap="butt" transform="matrix(0.712008, -0.235678, 0.235678, 0.712008, 189.740543, 115.201815)" fill="none" stroke-linejoin="miter" d="M -0.000868994 1.998545 L 23.518624 1.998631 " stroke="#000000" stroke-width="4" stroke-opacity="1" stroke-miterlimit="4"/><g clip-path="url(#a4a67191e0)"><g clip-path="url(#d43a24a430)"><g clip-path="url(#2a790429b4)"><g clip-path="url(#976373fd15)"><path fill="#be1931" d="M 196.253906 82.441406 L 196.632812 79.695312 L 198.003906 79.882812 C 200.125 80.175781 202.492188 80.382812 203.78125 79.15625 C 204.785156 78.207031 205.183594 76.359375 204.957031 73.671875 L 204.84375 72.289062 L 207.605469 72.058594 L 207.71875 73.441406 C 208.019531 77.058594 207.355469 79.585938 205.691406 81.167969 C 203.328125 83.410156 199.617188 82.902344 197.628906 82.628906 Z M 202.941406 98.019531 L 203.128906 96.648438 C 203.421875 94.527344 203.628906 92.15625 202.402344 90.867188 C 201.453125 89.863281 199.605469 89.46875 196.917969 89.691406 L 195.535156 89.808594 L 195.304688 87.046875 L 196.6875 86.929688 C 200.304688 86.628906 202.832031 87.289062 204.414062 88.960938 C 206.65625 91.324219 206.148438 95.03125 205.875 97.023438 L 205.6875 98.394531 Z M 210.292969 99.34375 L 210.175781 97.964844 C 209.875 94.34375 210.539062 91.816406 212.207031 90.234375 C 214.570312 87.992188 218.277344 88.5 220.269531 88.773438 L 221.640625 88.960938 L 221.265625 91.707031 L 219.890625 91.519531 C 217.773438 91.230469 215.402344 91.023438 214.113281 92.246094 C 213.109375 93.199219 212.714844 95.042969 212.9375 97.734375 L 213.054688 99.113281 Z M 214.316406 83.171875 C 214.015625 82.953125 213.734375 82.710938 213.480469 82.445312 C 211.238281 80.082031 211.746094 76.375 212.019531 74.382812 L 212.207031 73.011719 L 214.953125 73.386719 L 214.765625 74.757812 C 214.476562 76.878906 214.269531 79.246094 215.492188 80.539062 C 216.441406 81.539062 218.289062 81.9375 220.980469 81.710938 L 222.359375 81.597656 L 222.589844 84.359375 L 221.210938 84.472656 C 218.171875 84.726562 215.902344 84.300781 214.316406 83.171875 Z M 214.316406 83.171875 " fill-opacity="1" fill-rule="nonzero"/></g></g></g></g><path stroke-linecap="butt" transform="matrix(0.74935, -0.031213, 0.031213, 0.74935, 159.367245, 157.99276)" fill="none" stroke-linejoin="miter" d="M 1.720036 16.522634 C 13.176419 -2.840274 24.63436 -2.842594 36.088219 16.525866 " stroke="#000000" stroke-width="4" stroke-opacity="1" stroke-miterlimit="4"/><g clip-path="url(#38b3387685)"><g clip-path="url(#363ff27aa9)"><g clip-path="url(#5f54545deb)"><g clip-path="url(#243fff8c5f)"><path fill="#c4bdb5" d="M 83.089844 147.097656 C 83.089844 147.097656 81.941406 136.089844 73.699219 114.839844 C 73.523438 114.421875 73.109375 114.113281 72.65625 114.152344 C 72.007812 114.207031 71.589844 114.808594 71.714844 115.40625 L 78.082031 142.945312 C 78.195312 143.488281 77.855469 144.042969 77.304688 144.160156 C 76.78125 144.273438 76.253906 143.960938 76.109375 143.421875 L 69.046875 115.578125 C 68.976562 115.253906 68.671875 115.035156 68.335938 115.078125 C 67.972656 115.128906 67.699219 115.472656 67.773438 115.824219 L 73.234375 143.839844 C 73.355469 144.410156 73.019531 144.996094 72.480469 145.167969 C 71.832031 145.363281 71.175781 144.992188 71.042969 144.367188 L 64.566406 116.570312 C 64.496094 116.242188 64.1875 116.023438 63.878906 116.0625 C 63.515625 116.113281 63.242188 116.453125 63.320312 116.808594 L 68.316406 145.09375 C 68.390625 145.5625 68.144531 146.039062 67.722656 146.214844 C 67.113281 146.460938 66.457031 146.089844 66.328125 145.492188 L 60.824219 117.796875 C 60.714844 117.28125 60.257812 116.894531 59.742188 116.921875 C 59.175781 116.957031 58.761719 117.445312 58.796875 118.003906 C 59.9375 140.808594 63.429688 151.3125 63.429688 151.3125 C 64.484375 154.753906 66.757812 156.085938 68.453125 156.601562 C 70.855469 157.335938 72.722656 159.324219 73.21875 161.777344 C 73.222656 161.804688 73.222656 161.804688 73.230469 161.832031 L 75.742188 174.082031 C 76.871094 180.289062 77.5625 191.054688 77.859375 197.527344 C 77.984375 200.144531 78.027344 202.75 78.039062 205.359375 C 78.105469 219.640625 84.742188 219.441406 87.210938 218.855469 C 87.84375 218.71875 88.449219 218.589844 89.082031 218.453125 C 91.570312 217.976562 97.710938 215.4375 91.890625 202.390625 C 90.832031 200.003906 89.796875 197.609375 88.84375 195.171875 C 86.480469 189.113281 82.675781 179.015625 81.164062 172.917969 L 78.433594 160.714844 C 78.429688 160.6875 78.429688 160.6875 78.421875 160.660156 C 77.898438 158.214844 78.757812 155.644531 80.648438 153.988281 C 82.011719 152.816406 83.539062 150.667969 83.089844 147.097656 Z M 83.089844 147.097656 " fill-opacity="1" fill-rule="nonzero"/></g></g></g></g><g clip-path="url(#4608e38e32)"><g clip-path="url(#04392bddce)"><g clip-path="url(#a361acffe7)"><g clip-path="url(#16b32413d7)"><path fill="#939393" d="M 72.628906 114.15625 C 73.082031 114.117188 73.523438 114.421875 73.671875 114.84375 C 79.171875 128.953125 81.515625 138.542969 82.46875 143.394531 C 80.417969 133.433594 72.628906 114.15625 72.628906 114.15625 Z M 66.296875 145.46875 L 60.824219 117.796875 C 60.714844 117.28125 60.257812 116.894531 59.742188 116.921875 Z M 71.042969 144.367188 L 64.566406 116.570312 C 64.496094 116.242188 64.1875 116.023438 63.878906 116.0625 Z M 76.109375 143.421875 L 69.046875 115.578125 C 68.976562 115.253906 68.671875 115.035156 68.335938 115.078125 Z M 76.109375 143.421875 " fill-opacity="1" fill-rule="nonzero"/></g></g></g></g><g clip-path="url(#f051110cbe)"><g clip-path="url(#e7b54c86b7)"><g clip-path="url(#68f19928b0)"><g clip-path="url(#2eb608a777)"><path fill="#e0e0e0" d="M 73.21875 161.777344 C 72.695312 159.332031 70.855469 157.335938 68.453125 156.601562 L 80.675781 153.980469 C 78.757812 155.644531 77.898438 158.214844 78.449219 160.65625 Z M 89.503906 202.023438 C 89.503906 202.023438 82.269531 185.1875 80.898438 178.121094 L 77.8125 163.71875 C 77.648438 162.957031 76.878906 162.46875 76.109375 162.632812 C 75.339844 162.800781 74.839844 163.558594 75.003906 164.320312 L 78.089844 178.722656 C 79.730469 185.703125 80.035156 204.050781 80.035156 204.050781 C 80.117188 219.351562 87.753906 217.089844 87.753906 217.089844 C 87.753906 217.089844 95.703125 216.011719 89.503906 202.023438 Z M 89.503906 202.023438 " fill-opacity="0.68" fill-rule="nonzero"/></g></g></g></g><g clip-path="url(#59c854c641)"><g clip-path="url(#54415dc8a3)"><g clip-path="url(#b800e21b20)"><g clip-path="url(#75e61e9576)"><path fill="#b5afa9" d="M 68.453125 156.601562 C 66.757812 156.085938 64.484375 154.753906 63.429688 151.3125 L 83.089844 147.097656 C 83.539062 150.667969 82.011719 152.816406 80.675781 153.980469 Z M 87.808594 217.078125 C 87.808594 217.078125 95.703125 216.011719 89.503906 202.023438 C 89.503906 202.023438 82.269531 185.1875 80.898438 178.121094 L 77.8125 163.71875 C 77.648438 162.957031 76.878906 162.46875 76.109375 162.632812 C 76.109375 162.632812 77.273438 162.953125 77.457031 163.824219 L 80.535156 178.167969 C 80.535156 178.167969 81.371094 181.796875 81.839844 183.0625 C 81.839844 183.0625 84.867188 191.675781 85.199219 192.542969 L 87.765625 199.011719 L 89.96875 204.59375 C 90.003906 204.613281 93.515625 214.691406 87.808594 217.078125 Z M 87.808594 217.078125 " fill-opacity="1" fill-rule="nonzero"/></g></g></g></g><g clip-path="url(#5060375c90)"><g clip-path="url(#82d6ae0b0e)"><g clip-path="url(#2f4e53ca27)"><path fill="#e0e0e0" d="M 266.957031 162.621094 L 271.773438 161.75 C 272.980469 161.53125 273.78125 160.375 273.519531 158.929688 L 263.90625 105.828125 C 263.757812 105.007812 262.453125 104.550781 261.667969 105.292969 C 256.851562 109.824219 255.121094 118.035156 257.558594 131.496094 L 262.652344 159.632812 C 262.738281 160.117188 262.917969 160.5625 263.183594 160.976562 C 263.449219 161.390625 263.78125 161.738281 264.1875 162.019531 C 264.589844 162.296875 265.03125 162.492188 265.511719 162.597656 C 265.992188 162.699219 266.476562 162.710938 266.957031 162.621094 Z M 266.957031 162.621094 " fill-opacity="1" fill-rule="nonzero"/></g></g></g><g clip-path="url(#15dd159d5c)"><g clip-path="url(#ef45563f1b)"><g clip-path="url(#ed317ad7b0)"><path fill="#c4bdb5" d="M 268.070312 176.832031 C 267.378906 173 266.71875 169.347656 265.40625 166.757812 C 263.945312 163.890625 263.648438 159.851562 263.648438 159.851562 L 272.453125 159.375 C 272.757812 165.957031 273.558594 172.476562 274.855469 178.933594 C 276.34375 186.050781 278.1875 192.839844 280.160156 200.542969 C 280.804688 203.058594 280.550781 206.199219 277.429688 206.761719 L 275.921875 207.035156 C 273.023438 207.5625 270.976562 206.125 270.382812 202.371094 C 269.527344 196.992188 270.082031 187.929688 268.070312 176.832031 Z M 268.070312 176.832031 " fill-opacity="1" fill-rule="nonzero"/></g></g></g><g clip-path="url(#5a3232f09f)"><g clip-path="url(#9f9f166f4c)"><g clip-path="url(#6a5f21cdde)"><path fill="#e0e0e0" d="M 269.179688 176.632812 C 268.484375 172.800781 267.824219 169.148438 266.511719 166.558594 C 265.054688 163.691406 264.757812 159.652344 264.757812 159.652344 L 273.5625 159.175781 C 273.867188 165.753906 274.667969 172.273438 275.964844 178.734375 C 277.453125 185.847656 279.296875 192.640625 281.269531 200.339844 C 281.914062 202.855469 281.660156 205.996094 278.539062 206.5625 L 277.03125 206.835938 C 274.128906 207.359375 272.082031 205.921875 271.492188 202.171875 C 270.636719 196.792969 271.1875 187.730469 269.179688 176.632812 Z M 269.179688 176.632812 " fill-opacity="1" fill-rule="nonzero"/></g></g></g><g clip-path="url(#11c5b4620e)"><g clip-path="url(#37a0bd9ea5)"><g clip-path="url(#f80b77e39f)"><path fill="#c4bdb5" d="M 261.667969 105.292969 C 262.011719 104.972656 262.410156 104.863281 262.871094 104.96875 C 262.871094 104.96875 257.25 110.945312 258.828125 123.175781 C 260.410156 135.40625 264.953125 160.5 265.976562 162.664062 C 265.574219 162.628906 265.183594 162.53125 264.808594 162.367188 C 264.4375 162.207031 264.101562 161.988281 263.800781 161.710938 C 263.5 161.4375 263.25 161.125 263.050781 160.765625 C 262.855469 160.410156 262.71875 160.035156 262.648438 159.632812 L 257.554688 131.496094 C 255.117188 118.035156 256.851562 109.824219 261.667969 105.292969 Z M 261.667969 105.292969 " fill-opacity="1" fill-rule="nonzero"/></g></g></g><g clip-path="url(#e9f875400e)"><g clip-path="url(#83fca1fe89)"><g clip-path="url(#3c3b361e6e)"><path fill="#c4bdb5" d="M 273.179688 157.050781 L 273.5625 159.175781 C 273.597656 159.367188 273.605469 159.5625 273.589844 159.757812 C 273.605469 160.167969 273.640625 160.785156 273.691406 161.574219 L 265.3125 163.089844 C 265.277344 162.890625 265.222656 162.699219 265.183594 162.507812 C 264.523438 162.304688 263.96875 161.941406 263.511719 161.425781 C 263.054688 160.910156 262.761719 160.3125 262.640625 159.632812 L 262.523438 158.980469 C 262.523438 158.980469 264.339844 159.472656 268.675781 158.6875 C 272.097656 158.070312 273.179688 157.050781 273.179688 157.050781 Z M 273.179688 157.050781 " fill-opacity="1" fill-rule="nonzero"/></g></g></g></svg>