<svg xmlns="http://www.w3.org/2000/svg" xmlns:xlink="http://www.w3.org/1999/xlink" width="480" zoomAndPan="magnify" viewBox="0 0 360 359.999987" height="480" preserveAspectRatio="xMidYMid meet" version="1.0"><defs><clipPath id="fa953336cd"><path d="M 73.78125 58.289062 L 286.03125 58.289062 L 286.03125 302.039062 L 73.78125 302.039062 Z M 73.78125 58.289062 " clip-rule="nonzero"/></clipPath><clipPath id="c7099ee0c7"><path d="M 1 0.289062 L 213.03125 0.289062 L 213.03125 244 L 1 244 Z M 1 0.289062 " clip-rule="nonzero"/></clipPath><clipPath id="4ca94238e4"><rect x="0" width="214" y="0" height="245"/></clipPath><clipPath id="ae3d80303f"><path d="M 161.582031 149.261719 L 190.9375 149.261719 L 190.9375 193.015625 L 161.582031 193.015625 Z M 161.582031 149.261719 " clip-rule="nonzero"/></clipPath><clipPath id="37cea07c20"><path d="M 0.582031 0.261719 L 29.9375 0.261719 L 29.9375 44.015625 L 0.582031 44.015625 Z M 0.582031 0.261719 " clip-rule="nonzero"/></clipPath><clipPath id="bc78604ee7"><rect x="0" width="30" y="0" height="45"/></clipPath><clipPath id="d8675ed75e"><path d="M 197 72 L 225 72 L 225 100 L 197 100 Z M 197 72 " clip-rule="nonzero"/></clipPath><clipPath id="2bb47515d7"><path d="M 207.988281 66.84375 L 229.980469 82.503906 L 214.320312 104.496094 L 192.324219 88.835938 Z M 207.988281 66.84375 " clip-rule="nonzero"/></clipPath><clipPath id="62e3332ffe"><path d="M 207.988281 66.84375 L 229.980469 82.503906 L 214.320312 104.496094 L 192.324219 88.835938 Z M 207.988281 66.84375 " clip-rule="nonzero"/></clipPath><clipPath id="99d50ee92f"><path d="M 207.988281 66.84375 L 229.980469 82.503906 L 214.320312 104.496094 L 192.324219 88.835938 Z M 207.988281 66.84375 " clip-rule="nonzero"/></clipPath></defs><g clip-path="url(#fa953336cd)"><g transform="matrix(1, 0, 0, 1, 73, 58)"><g clip-path="url(#4ca94238e4)"><g clip-path="url(#c7099ee0c7)"><path fill="#000000" d="M 111.890625 0.441406 C 111.773438 0.4375 111.65625 0.433594 111.535156 0.429688 C 105.171875 0.289062 97.800781 0.851562 91.550781 2.175781 C 89.351562 2.640625 87.164062 3.355469 84.996094 3.957031 C 82.328125 4.691406 79.625 5.375 77.011719 6.289062 C 69.371094 9.019531 62.410156 13.375 56.605469 19.058594 C 48.886719 26.539062 43.640625 34.726562 39.214844 44.464844 C 38.527344 45.984375 37.722656 47.441406 37.105469 48.992188 C 31.671875 62.636719 28.851562 78.273438 27.832031 92.886719 C 27.574219 96.847656 27.433594 100.8125 27.414062 104.78125 C 27.410156 106.414062 27.511719 108.046875 27.476562 109.675781 C 27.429688 111.851562 25.804688 115.664062 24.425781 117.359375 C 23.53125 118.457031 22.402344 119.378906 21.332031 120.300781 C 16.9375 124.085938 11.902344 127.046875 7.6875 131.058594 C 4.765625 133.839844 1.214844 136.90625 1.136719 141.242188 C 1.089844 143.808594 1.707031 146.03125 3.53125 147.90625 C 5.589844 150.019531 7.726562 150.964844 10.421875 151.996094 C 18.394531 155.050781 25.796875 154.992188 34.175781 155.046875 C 34.59375 156.726562 35.195312 158.355469 35.683594 160.015625 C 36.753906 163.652344 37.742188 167.457031 38.398438 171.191406 C 39.402344 176.894531 39.734375 182.859375 40.0625 188.636719 C 40.320312 193.195312 40.605469 197.710938 40.632812 202.28125 C 40.65625 205.996094 40.378906 209.734375 40.503906 213.445312 C 40.679688 218.660156 41.492188 225.433594 45.523438 229.132812 C 48.601562 231.957031 51.964844 231.882812 55.863281 231.230469 C 57.542969 230.949219 59.214844 230.625 60.78125 229.929688 C 62.144531 229.332031 63.390625 228.292969 64.6875 227.550781 C 67.625 225.878906 72.78125 224.003906 76.152344 223.878906 C 77.265625 223.835938 78.417969 223.863281 79.484375 224.214844 C 80.683594 224.613281 81.722656 225.378906 82.699219 226.160156 C 85.9375 228.746094 87.867188 231.570312 90.324219 234.796875 C 91.164062 235.902344 92.09375 236.933594 92.957031 238.019531 C 93.816406 239.097656 94.636719 240.285156 95.652344 241.21875 C 98.046875 243.429688 102.375 244.03125 105.503906 243.875 C 112.246094 243.527344 117.222656 237.730469 121.425781 233.070312 C 122.605469 231.714844 123.882812 230.453125 125.25 229.289062 C 126.835938 227.941406 128.636719 227.066406 130.539062 226.261719 C 132.601562 225.386719 134.558594 225.039062 136.792969 224.933594 C 141.550781 224.71875 144.996094 226.03125 149.292969 227.871094 C 150.792969 228.511719 152.3125 229.109375 153.792969 229.78125 C 157.6875 231.550781 160.652344 232.992188 165.0625 233.339844 C 167.128906 233.503906 169.382812 233.230469 171.285156 232.371094 C 178.242188 229.226562 177.429688 219.851562 181.105469 214.164062 C 182.546875 211.9375 184.847656 210.152344 187.105469 208.824219 C 190.074219 207.082031 193.5 205.625 196.863281 204.914062 C 201.289062 203.976562 206.261719 205.066406 210.125 201.695312 C 211.269531 200.699219 212.132812 199.289062 212.203125 197.746094 C 212.265625 196.367188 211.859375 194.90625 211.367188 193.628906 C 209.351562 188.390625 205.890625 187.070312 201.699219 183.929688 C 199.878906 182.566406 198.058594 180.960938 196.570312 179.238281 C 190.101562 171.75 182.179688 158.308594 182.867188 148.144531 C 185.636719 148.171875 188.378906 148.128906 191.128906 147.742188 C 196.945312 146.929688 203.289062 144.441406 207.640625 140.417969 C 210.496094 137.78125 212.917969 134.355469 213.074219 130.335938 C 213.082031 130.097656 213.082031 129.855469 213.074219 129.613281 C 213 127.542969 212.113281 125.914062 210.703125 124.445312 C 205.15625 118.667969 186.585938 115.148438 184.011719 111.527344 C 182.949219 110.035156 182.195312 104.292969 182.109375 102.355469 C 182.03125 100.585938 182.160156 98.785156 182.203125 97.015625 C 182.300781 93.261719 182.417969 89.46875 182.300781 85.71875 C 181.570312 62.804688 175.730469 39.664062 159.921875 22.390625 C 147.300781 8.601562 130.453125 1.265625 111.890625 0.441406 Z M 75.761719 169.171875 C 75.335938 169.328125 75.148438 169.375 74.894531 169.789062 C 74.609375 169.144531 74.5 168.527344 74.421875 167.835938 C 74.898438 167.851562 75.097656 167.816406 75.496094 168.128906 C 75.585938 168.46875 75.707031 168.824219 75.761719 169.171875 Z M 75.761719 169.171875 " fill-opacity="1" fill-rule="nonzero"/></g><path fill="#ffffff" d="M 117.210938 5.109375 C 113.492188 4.617188 109.816406 4.167969 106.058594 4.203125 C 98.355469 4.277344 91.671875 5.828125 84.335938 7.984375 C 82.9375 8.394531 81.421875 8.640625 80.070312 9.179688 C 78.988281 9.609375 77.949219 10.21875 76.890625 10.714844 C 72.28125 12.875 67.96875 15.167969 63.925781 18.296875 C 60.796875 20.71875 57.140625 23.726562 54.53125 26.664062 C 43.09375 39.554688 35.4375 60.738281 33.316406 77.648438 C 33.035156 79.882812 32.679688 82.125 32.46875 84.367188 C 31.347656 96.316406 31.578125 108.285156 32.480469 120.242188 C 32.628906 122.238281 32.949219 124.21875 33.171875 126.207031 C 34.277344 135.515625 35.84375 144.765625 37.863281 153.917969 C 38.167969 155.285156 38.597656 156.617188 38.933594 157.976562 C 39.710938 161.132812 40.421875 164.308594 41.058594 167.5 C 41.707031 170.890625 42.128906 174.304688 42.574219 177.726562 C 43.484375 184.757812 44.132812 191.703125 44.371094 198.789062 C 44.472656 201.554688 44.542969 204.320312 44.582031 207.085938 C 44.621094 211.804688 44.082031 221.511719 47.09375 225.316406 C 47.5 225.832031 48.054688 226.175781 48.496094 226.648438 C 50.246094 227.09375 52.175781 227.867188 54.003906 227.699219 C 55.113281 227.601562 55.972656 226.980469 56.984375 226.582031 C 57.542969 226.363281 58.15625 226.367188 58.714844 226.136719 C 60.480469 225.402344 62.222656 224.269531 63.925781 223.371094 C 69.839844 220.265625 75.792969 218.53125 82.1875 221.378906 C 81.429688 217.515625 80.777344 213.636719 80.234375 209.742188 C 79.917969 207.609375 79.441406 203.402344 78.789062 201.511719 C 78.636719 199.617188 78.308594 197.710938 78.078125 195.820312 C 77.363281 189.957031 76.496094 184.113281 75.804688 178.246094 C 75.507812 175.738281 75.09375 173.382812 75.039062 170.84375 L 74.894531 169.789062 C 74.609375 169.144531 74.5 168.527344 74.421875 167.835938 C 74.898438 167.851562 75.097656 167.816406 75.496094 168.128906 C 75.585938 168.46875 75.707031 168.824219 75.761719 169.171875 C 76.136719 172.8125 77.050781 176.363281 77.679688 179.96875 C 79.554688 190.714844 81.675781 201.410156 83.472656 212.171875 C 84.105469 215.949219 85.015625 219.773438 85.386719 223.585938 C 86.960938 225.328125 88.804688 226.789062 90.328125 228.582031 C 92.597656 231.257812 95.617188 236.359375 98.292969 238.246094 C 99.046875 238.78125 100.050781 239.066406 100.863281 239.527344 C 102.605469 240.511719 105.582031 240.40625 107.464844 239.847656 C 110.324219 238.996094 113.445312 236.703125 115.257812 234.351562 C 115.746094 233.722656 116.035156 232.960938 116.519531 232.339844 C 116.851562 231.910156 117.269531 231.539062 117.625 231.132812 C 118.667969 229.945312 119.6875 228.636719 120.585938 227.339844 C 122.769531 225.035156 125.34375 223.394531 128.203125 222.082031 C 127.832031 219.949219 126.984375 217.800781 126.335938 215.738281 C 125.226562 212.238281 124.199219 208.707031 123.253906 205.15625 C 122.191406 200.996094 121.164062 196.761719 120.378906 192.542969 C 120.140625 191.273438 119.90625 189.988281 119.722656 188.710938 C 119.617188 187.957031 119.660156 187.210938 119.46875 186.464844 L 119.230469 186.058594 L 119.347656 185.890625 C 119.628906 186.003906 119.832031 186.078125 119.964844 186.375 C 120.464844 187.488281 120.585938 188.761719 121.09375 189.914062 C 121.484375 191.585938 122.015625 193.21875 122.460938 194.875 C 124.582031 202.957031 127.121094 210.917969 130.054688 218.738281 C 130.261719 219.511719 130.558594 220.238281 130.851562 220.980469 C 136.945312 220.890625 142.976562 221.339844 148.839844 223.074219 C 150.796875 223.898438 152.710938 224.75 154.652344 225.605469 C 154.980469 225.851562 155.304688 226.03125 155.675781 226.214844 C 157.414062 227.1875 159.410156 228 161.289062 228.660156 C 163.765625 229.53125 167.351562 230.230469 169.8125 228.988281 C 174.476562 226.636719 174.6875 219.15625 176.082031 214.773438 C 174.851562 212.710938 173.09375 210.753906 171.671875 208.804688 C 171.449219 208.492188 171.203125 208.203125 170.957031 207.910156 C 170.546875 206.949219 169.007812 204.820312 168.3125 203.957031 C 167.351562 202.328125 166.332031 200.738281 165.257812 199.183594 C 164.746094 197.851562 163.707031 196.519531 163.015625 195.253906 C 161.347656 192.195312 159.707031 189.078125 158.207031 185.933594 C 156.902344 183.199219 155.8125 180.316406 154.714844 177.496094 C 154.238281 176.273438 153.863281 174.902344 153.242188 173.757812 L 153.152344 173.335938 L 153.285156 173.230469 C 153.726562 173.367188 154.09375 173.773438 154.292969 174.179688 C 155.703125 177.074219 156.964844 180.050781 158.453125 182.910156 C 162.417969 190.429688 166.914062 197.65625 171.902344 204.539062 C 172.933594 205.984375 174.019531 207.386719 175.082031 208.804688 C 175.808594 209.773438 176.503906 210.839844 177.34375 211.710938 C 177.378906 211.675781 177.417969 211.644531 177.453125 211.609375 C 178.238281 210.863281 178.859375 209.945312 179.535156 209.101562 C 180.625 207.742188 182.050781 206.535156 183.535156 205.636719 C 185.511719 204.445312 189.042969 202.777344 191.265625 202.167969 C 194.277344 201.347656 197.511719 200.8125 200.605469 200.394531 C 202.324219 200.164062 204.058594 200.117188 205.742188 199.691406 C 206.730469 199.445312 207.933594 199.171875 208.574219 198.335938 C 208.769531 197.667969 208.675781 196.992188 208.511719 196.324219 C 208.289062 195.429688 207.757812 194.644531 207.117188 193.996094 C 205.519531 192.378906 203.429688 191.164062 201.671875 189.714844 C 197.65625 186.441406 194.015625 182.730469 190.824219 178.644531 C 189.929688 177.488281 189.269531 176.148438 188.503906 174.898438 C 184.535156 168.425781 181.316406 161.617188 179.742188 154.148438 C 179.367188 152.394531 179.269531 150.59375 179.128906 148.8125 C 175.121094 148.480469 170.089844 146.652344 166.691406 144.589844 C 165.542969 144.007812 164.605469 143.230469 163.796875 142.234375 C 164.4375 141.570312 166.082031 142.40625 166.84375 142.691406 C 172.363281 144.738281 178.304688 145.289062 184.164062 145.097656 C 191.472656 144.859375 201.097656 142.339844 206.125 136.847656 C 207.566406 135.269531 208.613281 133.433594 208.523438 131.234375 C 208.242188 125.261719 201.921875 123.378906 197.226562 121.890625 C 194.863281 121.140625 192.464844 120.417969 190.179688 119.453125 C 185.695312 117.558594 181.636719 115.144531 177.988281 111.898438 C 174.527344 108.816406 171.714844 104.753906 169.742188 100.578125 C 169.183594 99.398438 168.898438 97.890625 168.25 96.792969 C 168.226562 96.757812 168.203125 96.722656 168.179688 96.691406 C 168.199219 96.398438 168.234375 96.136719 168.300781 95.847656 C 168.644531 95.707031 168.667969 95.804688 168.996094 95.9375 C 171.351562 100.085938 173.945312 103.722656 177.597656 106.835938 C 177.613281 103.699219 177.515625 100.5625 177.515625 97.425781 C 177.523438 81.949219 177.347656 68.453125 172.449219 53.558594 C 169.964844 45.992188 167.132812 40.140625 162.648438 33.554688 C 155.085938 22.453125 143.945312 13.191406 131.238281 8.652344 C 126.53125 6.972656 122.089844 6.03125 117.210938 5.109375 Z M 117.210938 5.109375 " fill-opacity="1" fill-rule="nonzero"/><path fill="#ffffff" d="M 177.597656 106.835938 C 177.613281 103.699219 177.515625 100.5625 177.515625 97.425781 C 177.523438 81.949219 177.347656 68.453125 172.449219 53.558594 C 169.964844 45.992188 167.132812 40.140625 162.648438 33.554688 C 155.085938 22.453125 143.945312 13.191406 131.238281 8.652344 C 126.53125 6.972656 122.089844 6.03125 117.210938 5.109375 C 117.03125 5.226562 116.96875 5.238281 116.871094 5.429688 C 116.601562 5.972656 116.253906 6.429688 115.667969 6.605469 L 115.53125 6.832031 C 115.796875 7.425781 116.21875 7.585938 116.804688 7.8125 C 118.765625 8.566406 122.054688 8.4375 123.691406 9.527344 C 124.246094 9.894531 125.113281 9.933594 125.746094 10.144531 C 127.027344 10.570312 128.507812 11.242188 129.707031 11.871094 C 132.296875 13.242188 135.09375 14.886719 137.296875 16.839844 C 138.554688 17.957031 139.628906 19.285156 140.996094 20.273438 C 142.535156 21.378906 144.621094 22.078125 145.910156 23.449219 C 146.449219 24.023438 146.785156 25.105469 147.160156 25.824219 C 146.921875 26.027344 146.734375 26.011719 146.433594 25.96875 C 144.851562 25.753906 144.867188 24.777344 143.796875 23.9375 C 143.226562 23.488281 142.5 23.242188 141.890625 22.847656 C 141.515625 22.605469 141.203125 22.285156 140.820312 22.050781 C 139.503906 21.238281 137.277344 20.527344 135.765625 20.953125 C 134.425781 21.324219 133.128906 21.144531 132.023438 22.089844 C 131.066406 22.90625 130.257812 23.542969 130.132812 24.894531 C 129.789062 28.597656 133.207031 32.234375 135.324219 34.875 C 135.785156 35.449219 136.113281 36.144531 136.59375 36.6875 C 137.488281 37.707031 138.808594 38.324219 139.835938 39.183594 C 141.480469 40.5625 142.792969 42.390625 144.453125 43.707031 C 145.664062 44.667969 146.980469 44.878906 148.324219 45.527344 C 149.234375 45.964844 149.996094 46.757812 150.792969 47.144531 C 151.367188 47.425781 152.457031 47.515625 153.097656 47.515625 C 153.234375 47.515625 153.269531 47.503906 153.386719 47.484375 L 153.097656 47.335938 C 154.109375 47.316406 155.035156 47.277344 155.804688 46.523438 C 156.574219 45.769531 156.800781 44.613281 156.785156 43.574219 C 156.769531 42.722656 156.550781 41.820312 156.234375 41.03125 C 155.324219 38.746094 154.71875 36.238281 153.050781 34.378906 C 152.808594 34.109375 152.542969 33.542969 152.636719 33.171875 C 152.65625 33.109375 152.695312 33.054688 152.722656 32.996094 C 153.03125 32.902344 153.1875 32.925781 153.480469 33.070312 C 154.121094 33.386719 154.710938 34.09375 155.136719 34.660156 C 156.050781 35.875 156.722656 37.277344 157.503906 38.578125 C 158.242188 39.796875 159.082031 40.980469 159.683594 42.277344 C 160.660156 44.371094 161.808594 47.304688 162.421875 49.546875 C 162.675781 50.460938 162.808594 51.4375 163.117188 52.335938 C 163.5 53.453125 164.125 54.207031 164.230469 55.453125 C 164.019531 55.71875 163.847656 55.734375 163.523438 55.769531 C 162.019531 55.933594 160.359375 55.367188 159.25 56.691406 C 158.742188 57.292969 158.515625 58.148438 158.601562 58.925781 C 158.636719 59.269531 158.707031 59.621094 158.828125 59.941406 C 159.058594 60.550781 159.113281 60.832031 158.96875 61.453125 C 158.738281 62.425781 159.925781 65.070312 160.464844 65.890625 C 161.066406 66.8125 162.03125 67.585938 163.128906 67.800781 C 163.816406 67.9375 164.839844 67.785156 165.40625 67.335938 C 166.039062 66.828125 166.039062 65.816406 166.660156 65.308594 C 166.960938 65.339844 167.058594 65.457031 167.238281 65.6875 C 167.480469 66 167.652344 66.375 167.75 66.757812 C 168.609375 70.179688 168.886719 74.628906 169.234375 78.171875 C 169.457031 80.429688 169.808594 82.652344 169.917969 84.925781 C 169.984375 86.324219 169.953125 90.074219 169.734375 91.375 C 169.496094 92.800781 168.683594 94.488281 168.996094 95.9375 C 171.351562 100.085938 173.945312 103.722656 177.597656 106.835938 Z M 177.597656 106.835938 " fill-opacity="1" fill-rule="nonzero"/><path fill="#ffffff" d="M 173.9375 152.378906 C 173.457031 152.246094 173.199219 152.105469 172.710938 152.28125 C 172.402344 152.675781 172.441406 153.347656 172.507812 153.828125 C 172.757812 155.566406 173.828125 159.890625 174.691406 161.335938 C 175.320312 162.390625 175.484375 163.734375 175.921875 164.894531 C 176.882812 167.453125 178.03125 170.203125 179.347656 172.601562 C 180.027344 173.839844 181.148438 174.804688 181.902344 175.984375 C 182.789062 177.367188 183.199219 178.992188 184.210938 180.308594 C 185.496094 181.988281 187.070312 183.273438 188.515625 184.777344 C 189.53125 185.839844 190.230469 187.253906 191.253906 188.355469 C 192.191406 189.367188 193.203125 190.394531 194.257812 191.285156 C 195.039062 191.945312 195.910156 192.53125 196.644531 193.246094 C 197.664062 194.246094 198.492188 195.617188 199.667969 196.429688 C 200.28125 196.855469 201.246094 197.074219 201.964844 197.253906 C 203.082031 197.535156 206.753906 198.34375 207.726562 198.335938 C 208.007812 198.332031 208.292969 198.339844 208.574219 198.335938 C 208.769531 197.667969 208.675781 196.992188 208.511719 196.324219 C 208.289062 195.429688 207.757812 194.644531 207.117188 193.996094 C 205.519531 192.378906 203.429688 191.164062 201.671875 189.714844 C 197.65625 186.441406 194.015625 182.730469 190.824219 178.644531 C 189.929688 177.488281 189.269531 176.148438 188.503906 174.898438 C 184.535156 168.425781 181.316406 161.617188 179.742188 154.148438 C 177.4375 153.613281 176.136719 153.429688 173.9375 152.378906 Z M 173.9375 152.378906 " fill-opacity="1" fill-rule="nonzero"/><path fill="#ffffff" d="M 168.179688 96.691406 L 167.757812 96.425781 C 167.328125 96.601562 167.121094 96.753906 166.941406 97.195312 C 166.128906 99.1875 167.050781 103.035156 167.933594 104.984375 C 168.921875 107.164062 170.210938 109.328125 171.636719 111.257812 C 172.425781 112.332031 173.421875 113.3125 174.328125 114.296875 C 176.800781 116.992188 179.261719 119.53125 182.210938 121.714844 C 182.773438 122.132812 183.40625 122.390625 183.976562 122.777344 C 184.464844 123.105469 184.796875 123.648438 185.277344 123.992188 C 186.042969 124.542969 187.40625 124.953125 188.304688 125.28125 C 189.226562 125.621094 190.1875 125.882812 191.101562 126.25 C 192.214844 126.691406 193.335938 127.300781 194.484375 127.625 C 195.699219 127.96875 197.445312 127.90625 198.472656 128.625 C 199.726562 129.5 201.894531 130.300781 202.921875 131.21875 C 204.027344 132.203125 204.347656 134.265625 205.488281 135.058594 C 205.746094 135.234375 206.160156 135.269531 206.464844 135.316406 C 207.40625 134.042969 207.652344 132.503906 208.523438 131.234375 C 208.242188 125.261719 201.921875 123.378906 197.226562 121.890625 C 194.863281 121.140625 192.464844 120.417969 190.179688 119.453125 C 185.695312 117.558594 181.636719 115.144531 177.988281 111.898438 C 174.527344 108.816406 171.714844 104.753906 169.742188 100.578125 C 169.183594 99.398438 168.898438 97.890625 168.25 96.792969 C 168.226562 96.757812 168.203125 96.722656 168.179688 96.691406 Z M 168.179688 96.691406 " fill-opacity="1" fill-rule="nonzero"/><path fill="#ffffff" d="M 208.523438 131.234375 C 207.652344 132.503906 207.40625 134.042969 206.464844 135.316406 C 205.585938 136.359375 203.703125 136.757812 202.441406 137.21875 C 200.9375 137.773438 199.453125 138.421875 197.9375 138.9375 C 194.773438 140.023438 191.261719 140.726562 187.9375 141.027344 C 183.007812 141.46875 177.6875 141.332031 172.84375 140.34375 C 171.316406 140.03125 169.722656 139.664062 168.230469 139.207031 C 166.273438 138.605469 161.832031 136.699219 159.996094 136.898438 L 159.882812 137.054688 C 160.203125 138.289062 162.742188 141.367188 163.796875 142.234375 C 164.4375 141.570312 166.082031 142.40625 166.84375 142.691406 C 172.363281 144.738281 178.304688 145.289062 184.164062 145.097656 C 191.472656 144.859375 201.097656 142.339844 206.125 136.847656 C 207.566406 135.269531 208.613281 133.433594 208.523438 131.234375 Z M 208.523438 131.234375 " fill-opacity="1" fill-rule="nonzero"/><path fill="#ffffff" d="M 171.671875 208.804688 C 171.414062 211.128906 171.875 213.199219 172.003906 215.503906 C 172.191406 218.902344 171.273438 222.46875 168.558594 224.714844 C 164.449219 228.117188 160.046875 225.617188 155.675781 226.214844 C 157.414062 227.1875 159.410156 228 161.289062 228.660156 C 163.765625 229.53125 167.351562 230.230469 169.8125 228.988281 C 174.476562 226.636719 174.6875 219.15625 176.082031 214.773438 C 174.851562 212.710938 173.09375 210.753906 171.671875 208.804688 Z M 171.671875 208.804688 " fill-opacity="1" fill-rule="nonzero"/><path fill="#ffffff" d="M 119.46875 186.464844 C 119.082031 186.792969 118.886719 187.007812 118.839844 187.546875 C 118.675781 189.375 120.070312 201.191406 120.585938 202.929688 C 120.96875 204.222656 121.699219 206.226562 122.261719 207.445312 C 122.742188 208.488281 123.355469 209.46875 123.8125 210.523438 C 124.929688 213.085938 125.757812 216.601562 124.539062 219.273438 C 124.285156 219.839844 123.878906 220.320312 123.523438 220.828125 C 123.078125 221.464844 122.65625 222.273438 122.074219 222.792969 C 121.269531 223.507812 119.960938 224.125 119.773438 225.316406 C 119.710938 225.699219 119.78125 226.363281 120.023438 226.675781 L 120.625 226.628906 L 120.746094 226.738281 C 120.605469 226.925781 120.40625 227.085938 120.433594 227.324219 L 120.585938 227.339844 C 122.769531 225.035156 125.34375 223.394531 128.203125 222.082031 C 127.832031 219.949219 126.984375 217.800781 126.335938 215.738281 C 125.226562 212.238281 124.199219 208.707031 123.253906 205.15625 C 122.191406 200.996094 121.164062 196.761719 120.378906 192.542969 C 120.140625 191.273438 119.90625 189.988281 119.722656 188.710938 C 119.617188 187.957031 119.660156 187.210938 119.46875 186.464844 Z M 119.46875 186.464844 " fill-opacity="1" fill-rule="nonzero"/><path fill="#ffffff" d="M 75.039062 170.84375 L 74.894531 170.773438 C 74.675781 171.40625 74.398438 171.882812 74.390625 172.566406 C 74.371094 173.941406 74.28125 175.328125 74.308594 176.699219 C 74.332031 177.863281 74.5 179.0625 74.46875 180.222656 C 74.445312 181.042969 74.097656 181.878906 74.148438 182.699219 C 74.203125 183.621094 74.464844 184.550781 74.570312 185.472656 C 75.066406 189.851562 75.4375 194.183594 76.710938 198.425781 C 76.890625 199.035156 77.03125 199.773438 77.367188 200.3125 C 77.695312 200.539062 77.933594 200.601562 78.3125 200.664062 C 78.488281 200.894531 78.542969 201.085938 78.613281 201.363281 L 78.789062 201.511719 C 78.636719 199.617188 78.308594 197.710938 78.078125 195.820312 C 77.363281 189.957031 76.496094 184.113281 75.804688 178.246094 C 75.507812 175.738281 75.09375 173.382812 75.039062 170.84375 Z M 75.039062 170.84375 " fill-opacity="1" fill-rule="nonzero"/><path fill="#ffffff" d="M 166.691406 144.589844 C 166.804688 145.265625 166.9375 146.039062 167.226562 146.664062 C 168.050781 148.453125 170.449219 149.957031 172.035156 151.089844 C 172.65625 151.53125 173.339844 151.914062 173.9375 152.378906 C 176.136719 153.429688 177.4375 153.613281 179.742188 154.148438 C 179.367188 152.394531 179.269531 150.59375 179.128906 148.8125 C 175.121094 148.480469 170.089844 146.652344 166.691406 144.589844 Z M 166.691406 144.589844 " fill-opacity="1" fill-rule="nonzero"/><path fill="#ffffff" d="M 153.242188 173.757812 C 153.199219 173.9375 153.171875 174.074219 153.175781 174.261719 C 153.175781 174.730469 153 175.257812 153.058594 175.71875 C 153.183594 176.683594 156.367188 185.125 156.84375 186.097656 C 157.136719 186.703125 157.710938 187.144531 157.984375 187.765625 C 158.453125 188.828125 158.566406 190.070312 158.863281 191.183594 C 159.347656 193.007812 160.910156 195.695312 162.234375 197.023438 C 162.558594 197.347656 163.910156 198.417969 164 198.527344 C 164.277344 198.863281 164.792969 198.929688 165.128906 199.285156 L 165.257812 199.183594 C 164.746094 197.851562 163.707031 196.519531 163.015625 195.253906 C 161.347656 192.195312 159.707031 189.078125 158.207031 185.933594 C 156.902344 183.199219 155.8125 180.316406 154.714844 177.496094 C 154.238281 176.273438 153.863281 174.902344 153.242188 173.757812 Z M 153.242188 173.757812 " fill-opacity="1" fill-rule="nonzero"/><path fill="#ffffff" d="M 130.054688 218.738281 C 130.203125 218.25 130.0625 217.929688 129.910156 217.464844 L 129.839844 217.238281 C 130.019531 216.789062 130.585938 216.699219 130.839844 216.300781 C 131.507812 215.261719 129.453125 213.578125 129.257812 212.539062 C 129.03125 211.316406 128.675781 209.859375 128.019531 208.785156 C 127.460938 207.878906 126.742188 207.144531 126.402344 206.105469 C 126.03125 204.976562 126.085938 203.832031 126.027344 202.664062 C 125.914062 200.386719 124.746094 199.878906 123.945312 198.046875 C 123.34375 196.675781 123.351562 194.976562 123.054688 193.519531 C 122.898438 192.753906 122.550781 192.101562 122.304688 191.375 C 122.132812 190.847656 122.023438 190.234375 121.597656 189.851562 L 121.09375 189.914062 C 121.484375 191.585938 122.015625 193.21875 122.460938 194.875 C 124.582031 202.957031 127.121094 210.917969 130.054688 218.738281 Z M 130.054688 218.738281 " fill-opacity="1" fill-rule="nonzero"/><path fill="#ffffff" d="M 168.3125 203.957031 C 168.179688 204.21875 168.210938 204.066406 168.222656 204.277344 C 168.234375 204.507812 168.230469 204.414062 168.191406 204.648438 C 168.046875 205.457031 168.585938 207.183594 169.03125 207.832031 C 169.222656 208.109375 169.402344 208.230469 169.738281 208.296875 C 170.136719 208.222656 170.246094 208.09375 170.519531 207.816406 C 170.730469 207.933594 170.621094 207.863281 170.84375 208.023438 L 170.957031 207.910156 C 170.546875 206.949219 169.007812 204.820312 168.3125 203.957031 Z M 168.3125 203.957031 " fill-opacity="1" fill-rule="nonzero"/><path fill="#ffffff" d="M 154.652344 225.605469 L 154.640625 225.457031 C 154.402344 225.1875 154.078125 225.054688 153.765625 224.890625 L 153.757812 224.894531 C 153.796875 224.816406 153.820312 224.730469 153.871094 224.660156 C 154.0625 224.382812 153.972656 224.714844 154.027344 224.378906 C 152.871094 223.886719 151.691406 223.332031 150.425781 223.203125 C 150.027344 223.160156 149.613281 223.132812 149.226562 223.023438 C 148.976562 222.953125 149.117188 222.945312 148.839844 223.074219 C 150.796875 223.898438 152.710938 224.75 154.652344 225.605469 Z M 154.652344 225.605469 " fill-opacity="1" fill-rule="nonzero"/><path fill="#000000" d="M 75.496094 168.128906 C 75.449219 167.527344 75.332031 166.664062 74.871094 166.238281 L 74.660156 166.292969 C 74.363281 166.746094 74.429688 167.308594 74.421875 167.835938 C 74.898438 167.851562 75.097656 167.816406 75.496094 168.128906 Z M 75.496094 168.128906 " fill-opacity="1" fill-rule="nonzero"/><path fill="#000000" d="M 84.78125 88.644531 L 84.886719 88.691406 C 85.21875 88.132812 85.476562 87.285156 85.597656 86.640625 C 85.851562 85.28125 86.902344 84.207031 87.574219 83.019531 C 88.164062 81.976562 88.550781 76.230469 88.195312 75.085938 C 88.179688 75.042969 88.164062 74.996094 88.148438 74.949219 C 87.867188 74.117188 86.085938 70.59375 85.574219 69.8125 C 85.351562 69.476562 84.949219 69.230469 84.625 69.003906 C 83.773438 68.414062 83.210938 67.390625 82.613281 66.554688 C 82.753906 66.464844 82.859375 66.5 83.019531 66.503906 L 83.089844 66.273438 C 82.617188 65.308594 80.800781 64.480469 79.882812 63.960938 C 79.871094 63.785156 79.855469 63.628906 79.824219 63.457031 C 78.84375 62.671875 77.042969 62.183594 75.808594 62.039062 C 74.113281 61.84375 72.570312 63.015625 71.273438 64.019531 C 71.210938 64.351562 71.285156 64.386719 71.449219 64.683594 C 70.386719 66.058594 68.667969 66.910156 67.800781 68.441406 L 67.890625 68.71875 C 67.1875 69.769531 66.546875 70.859375 65.96875 71.984375 C 65.6875 72.53125 65.40625 73.382812 65.039062 73.855469 L 64.847656 73.820312 C 64.484375 74.390625 64.550781 75.183594 64.171875 75.746094 C 63.761719 76.367188 62.96875 76.578125 62.507812 77.132812 C 62.085938 77.640625 61.867188 78.539062 61.550781 79.144531 C 61.175781 79.859375 61.441406 80.722656 61.304688 81.488281 C 61.230469 81.878906 61.050781 82.238281 60.976562 82.632812 C 60.273438 86.589844 60.554688 89.527344 61.886719 93.269531 C 62.097656 93.867188 62.320312 94.363281 62.714844 94.863281 C 62.992188 94.851562 63.082031 94.789062 63.316406 94.660156 C 63.636719 94.894531 63.3125 94.988281 63.746094 95.105469 C 64.035156 95.570312 64.292969 96.042969 64.542969 96.53125 C 65.335938 97.613281 66.058594 98.777344 67.109375 99.625 C 68.957031 101.023438 70.617188 101.5 72.914062 101.523438 C 73.910156 101.722656 74.667969 101.082031 75.519531 101.210938 C 76.460938 101.351562 76.558594 102.039062 77.800781 101.667969 C 78.117188 101.574219 78.558594 101.425781 78.835938 101.242188 C 79.972656 100.496094 80.945312 97.164062 81.628906 95.957031 C 81.734375 95.773438 81.832031 95.585938 81.929688 95.398438 L 81.835938 95.230469 C 83.113281 93.125 83.851562 90.90625 84.78125 88.644531 Z M 84.78125 88.644531 " fill-opacity="1" fill-rule="nonzero"/><path fill="#ffffff" d="M 84.78125 88.644531 L 84.886719 88.691406 C 85.21875 88.132812 85.476562 87.285156 85.597656 86.640625 C 85.851562 85.28125 86.902344 84.207031 87.574219 83.019531 C 88.164062 81.976562 88.550781 76.230469 88.195312 75.085938 C 88.179688 75.042969 88.164062 74.996094 88.148438 74.949219 C 87.867188 74.117188 86.085938 70.59375 85.574219 69.8125 C 85.351562 69.476562 84.949219 69.230469 84.625 69.003906 C 83.773438 68.414062 83.210938 67.390625 82.613281 66.554688 C 82.753906 66.464844 82.859375 66.5 83.019531 66.503906 L 83.089844 66.273438 C 82.617188 65.308594 80.800781 64.480469 79.882812 63.960938 C 79.871094 63.785156 79.855469 63.628906 79.824219 63.457031 C 78.84375 62.671875 77.042969 62.183594 75.808594 62.039062 C 74.113281 61.84375 72.570312 63.015625 71.273438 64.019531 C 71.210938 64.351562 71.285156 64.386719 71.449219 64.683594 C 70.386719 66.058594 68.667969 66.910156 67.800781 68.441406 L 67.890625 68.71875 C 69.703125 66.410156 72.164062 64.324219 75.171875 63.941406 C 77.417969 63.65625 79.507812 64.257812 81.269531 65.667969 C 84.367188 68.144531 85.660156 72.296875 86.0625 76.101562 C 86.507812 80.351562 85.890625 84.546875 84.78125 88.644531 Z M 84.78125 88.644531 " fill-opacity="1" fill-rule="nonzero"/><path fill="#ffffff" d="M 65.039062 73.855469 L 64.847656 73.820312 C 64.484375 74.390625 64.550781 75.183594 64.171875 75.746094 C 63.761719 76.367188 62.96875 76.578125 62.507812 77.132812 C 62.085938 77.640625 61.867188 78.539062 61.550781 79.144531 C 61.175781 79.859375 61.441406 80.722656 61.304688 81.488281 C 61.230469 81.878906 61.050781 82.238281 60.976562 82.632812 C 60.273438 86.589844 60.554688 89.527344 61.886719 93.269531 C 62.097656 93.867188 62.320312 94.363281 62.714844 94.863281 C 62.992188 94.851562 63.082031 94.789062 63.316406 94.660156 C 63.636719 94.894531 63.3125 94.988281 63.746094 95.105469 C 61.488281 87.847656 62.503906 80.859375 65.039062 73.855469 Z M 65.039062 73.855469 " fill-opacity="1" fill-rule="nonzero"/><path fill="#ffffff" d="M 81.835938 95.230469 C 79.078125 98.625 77.410156 100.738281 72.914062 101.523438 C 73.910156 101.722656 74.667969 101.082031 75.519531 101.210938 C 76.460938 101.351562 76.558594 102.039062 77.800781 101.667969 C 78.117188 101.574219 78.558594 101.425781 78.835938 101.242188 C 79.972656 100.496094 80.945312 97.164062 81.628906 95.957031 C 81.734375 95.773438 81.832031 95.585938 81.929688 95.398438 Z M 81.835938 95.230469 " fill-opacity="1" fill-rule="nonzero"/><path fill="#000000" d="M 128.433594 63.148438 C 128.359375 63.140625 128.289062 63.132812 128.214844 63.125 C 127.859375 63.082031 127.648438 62.90625 127.335938 62.757812 C 126.273438 62.261719 124.234375 62.542969 123.222656 63.003906 C 122.273438 63.4375 121 64.066406 120.277344 64.828125 C 120.246094 65.070312 120.230469 64.964844 120.289062 65.144531 C 118.203125 67.367188 118.21875 67.625 116.90625 70.300781 L 116.664062 70.363281 C 116.570312 70.617188 116.507812 70.84375 116.464844 71.105469 L 116.289062 71.128906 L 116.101562 70.976562 C 115.511719 71.3125 114.28125 74.117188 114.066406 74.90625 C 113.214844 78.027344 112.863281 81.683594 114.605469 84.617188 C 115.058594 85.378906 115.808594 85.941406 116.332031 86.652344 C 117 87.5625 117 88.621094 117.90625 89.367188 C 118.730469 91.160156 119.601562 92.917969 120.597656 94.617188 L 120.429688 94.691406 C 120.457031 94.753906 120.492188 94.816406 120.519531 94.878906 C 120.726562 95.339844 120.652344 95.9375 120.746094 96.433594 C 120.851562 96.992188 121.097656 97.429688 121.304688 97.949219 C 122.027344 99.761719 122.050781 99.945312 123.933594 100.757812 C 124.761719 101.113281 125.558594 101.324219 126.464844 101.355469 C 126.929688 101.148438 127.332031 100.789062 127.851562 100.800781 C 128.027344 100.800781 128.234375 100.792969 128.40625 100.761719 C 128.882812 100.804688 129.355469 100.882812 129.832031 100.914062 C 132.09375 101.054688 133.992188 100.371094 135.675781 98.84375 C 136.617188 97.902344 137.320312 96.902344 138.027344 95.773438 C 139.4375 93.304688 139.773438 90.535156 140 87.742188 C 140.035156 88.164062 140.078125 88.578125 140.140625 88.996094 C 140.152344 88.769531 140.167969 88.542969 140.175781 88.316406 C 140.183594 87.921875 140.160156 87.667969 140.355469 87.308594 C 140.453125 87.128906 140.507812 87.058594 140.535156 86.847656 C 140.574219 86.5625 140.511719 86.785156 140.613281 86.480469 C 140.636719 86.414062 140.664062 86.347656 140.683594 86.277344 C 140.847656 85.691406 141.160156 85.203125 141.300781 84.601562 C 141.644531 83.101562 141.226562 82.863281 141.144531 81.617188 C 141.089844 80.777344 141.242188 79.882812 141.097656 79.054688 C 140.90625 77.945312 138.242188 74.417969 137.476562 73.191406 L 137.300781 73.210938 C 135.882812 70.078125 134.328125 67.601562 131.753906 65.300781 C 131.292969 65.007812 130.84375 64.714844 130.40625 64.390625 C 130.121094 63.710938 129.070312 63.425781 128.433594 63.148438 Z M 128.433594 63.148438 " fill-opacity="1" fill-rule="nonzero"/><path fill="#ffffff" d="M 116.90625 70.300781 L 116.664062 70.363281 C 116.570312 70.617188 116.507812 70.84375 116.464844 71.105469 L 116.289062 71.128906 L 116.101562 70.976562 C 115.511719 71.3125 114.28125 74.117188 114.066406 74.90625 C 113.214844 78.027344 112.863281 81.683594 114.605469 84.617188 C 115.058594 85.378906 115.808594 85.941406 116.332031 86.652344 C 117 87.5625 117 88.621094 117.90625 89.367188 C 117.59375 87.691406 116.929688 86.03125 116.546875 84.355469 C 115.515625 79.875 115.601562 74.699219 116.90625 70.300781 Z M 116.90625 70.300781 " fill-opacity="1" fill-rule="nonzero"/><path fill="#ffffff" d="M 140 87.742188 C 140.035156 88.164062 140.078125 88.578125 140.140625 88.996094 C 140.152344 88.769531 140.167969 88.542969 140.175781 88.316406 C 140.183594 87.921875 140.160156 87.667969 140.355469 87.308594 C 140.453125 87.128906 140.507812 87.058594 140.535156 86.847656 C 140.574219 86.5625 140.511719 86.785156 140.613281 86.480469 C 140.636719 86.414062 140.664062 86.347656 140.683594 86.277344 C 140.847656 85.691406 141.160156 85.203125 141.300781 84.601562 C 141.644531 83.101562 141.226562 82.863281 141.144531 81.617188 C 141.089844 80.777344 141.242188 79.882812 141.097656 79.054688 C 140.90625 77.945312 138.242188 74.417969 137.476562 73.191406 L 137.300781 73.210938 C 137.792969 74.800781 138.394531 76.371094 138.835938 77.976562 C 139.714844 81.152344 139.9375 84.46875 140 87.742188 Z M 140 87.742188 " fill-opacity="1" fill-rule="nonzero"/><path fill="#ffffff" d="M 120.597656 94.617188 L 120.429688 94.691406 C 120.457031 94.753906 120.492188 94.816406 120.519531 94.878906 C 120.726562 95.339844 120.652344 95.9375 120.746094 96.433594 C 120.851562 96.992188 121.097656 97.429688 121.304688 97.949219 C 122.027344 99.761719 122.050781 99.945312 123.933594 100.757812 C 124.761719 101.113281 125.558594 101.324219 126.464844 101.355469 C 126.929688 101.148438 127.332031 100.789062 127.851562 100.800781 C 128.027344 100.800781 128.234375 100.792969 128.40625 100.761719 C 124.59375 99.472656 123.082031 97.679688 120.597656 94.617188 Z M 120.597656 94.617188 " fill-opacity="1" fill-rule="nonzero"/><path fill="#ffffff" d="M 128.433594 63.148438 C 128.359375 63.140625 128.289062 63.132812 128.214844 63.125 C 127.859375 63.082031 127.648438 62.90625 127.335938 62.757812 C 126.273438 62.261719 124.234375 62.542969 123.222656 63.003906 C 122.273438 63.4375 121 64.066406 120.277344 64.828125 C 120.246094 65.070312 120.230469 64.964844 120.289062 65.144531 C 121.207031 64.4375 122.152344 63.816406 123.257812 63.441406 C 125.8125 62.578125 128.085938 63.246094 130.40625 64.390625 C 130.121094 63.710938 129.070312 63.425781 128.433594 63.148438 Z M 128.433594 63.148438 " fill-opacity="1" fill-rule="nonzero"/><path fill="#000000" d="M 106.765625 97.945312 L 106.878906 97.792969 C 106.574219 97.238281 106.097656 96.804688 105.664062 96.355469 L 105.890625 96.269531 C 106.089844 96.039062 106.035156 95.921875 106.027344 95.640625 C 106.003906 94.777344 105.621094 94.128906 104.976562 93.554688 C 104.859375 93.449219 104.691406 93.300781 104.542969 93.246094 C 104.300781 93.152344 99.113281 92.84375 98.808594 92.882812 C 98.242188 92.957031 97.632812 93.835938 97.292969 94.273438 C 96.800781 94.898438 96.1875 94.992188 95.773438 95.472656 C 95.566406 95.707031 95.769531 95.539062 95.460938 95.757812 C 95.296875 95.878906 95.1875 95.964844 95.054688 96.117188 L 95.308594 96.207031 C 94.628906 97.058594 93.996094 97.917969 93.398438 98.824219 L 93.34375 98.6875 L 93.226562 98.664062 L 93.007812 99.199219 C 92.78125 99.742188 92.703125 100.8125 92.328125 101.210938 L 92.238281 100.886719 C 91.515625 100.96875 90.183594 102.96875 89.703125 103.589844 C 89.417969 103.957031 89.363281 104.382812 89.316406 104.832031 C 89.222656 105.773438 89.382812 110.625 89.527344 111.65625 C 89.847656 113.933594 90.761719 115.101562 91.5625 117.117188 C 91.914062 118 91.761719 119.171875 92.65625 119.75 C 92.8125 119.851562 92.851562 119.859375 93.007812 119.917969 L 92.984375 119.828125 C 93.050781 119.839844 93.121094 119.863281 93.191406 119.867188 C 93.253906 119.871094 93.316406 119.855469 93.375 119.847656 C 95.015625 122.898438 96.648438 126.027344 100.226562 127.101562 C 101.949219 127.617188 103.738281 127.40625 105.308594 126.539062 C 107.703125 125.21875 107.96875 123.59375 109.324219 121.496094 L 109.433594 121.550781 C 109.683594 121.402344 109.675781 121.234375 109.746094 120.972656 C 109.980469 120.136719 110.238281 118.914062 110.59375 118.140625 C 111.117188 117.003906 111.839844 115.960938 112.3125 114.796875 C 112.226562 114 111.769531 113.277344 111.679688 112.527344 C 111.589844 111.796875 111.90625 110.863281 111.9375 110.113281 C 111.980469 109.066406 111.703125 107.34375 111.058594 106.488281 C 110.753906 106.09375 110.355469 105.757812 110.089844 105.335938 C 109.886719 105.019531 109.90625 104.636719 109.726562 104.300781 L 109.574219 104.480469 C 109.320312 103.925781 109.195312 103.25 108.988281 102.667969 C 108.386719 101.011719 107.675781 99.453125 106.765625 97.945312 Z M 106.765625 97.945312 " fill-opacity="1" fill-rule="nonzero"/><path fill="#ffffff" d="M 93.398438 98.824219 L 93.34375 98.6875 L 93.226562 98.664062 L 93.007812 99.199219 C 92.78125 99.742188 92.703125 100.8125 92.328125 101.210938 L 92.238281 100.886719 C 91.515625 100.96875 90.183594 102.96875 89.703125 103.589844 C 89.417969 103.957031 89.363281 104.382812 89.316406 104.832031 C 89.222656 105.773438 89.382812 110.625 89.527344 111.65625 C 89.847656 113.933594 90.761719 115.101562 91.5625 117.117188 C 91.914062 118 91.761719 119.171875 92.65625 119.75 C 92.8125 119.851562 92.851562 119.859375 93.007812 119.917969 L 92.984375 119.828125 C 93.050781 119.839844 93.121094 119.863281 93.191406 119.867188 C 93.253906 119.871094 93.316406 119.855469 93.375 119.847656 C 91.683594 114.066406 90.789062 108.511719 92.210938 102.542969 C 92.511719 101.277344 93.039062 100.074219 93.398438 98.824219 Z M 93.398438 98.824219 " fill-opacity="1" fill-rule="nonzero"/><path fill="#ffffff" d="M 109.324219 121.496094 L 109.433594 121.550781 C 109.683594 121.402344 109.675781 121.234375 109.746094 120.972656 C 109.980469 120.136719 110.238281 118.914062 110.59375 118.140625 C 111.117188 117.003906 111.839844 115.960938 112.3125 114.796875 C 112.226562 114 111.769531 113.277344 111.679688 112.527344 C 111.589844 111.796875 111.90625 110.863281 111.9375 110.113281 C 111.980469 109.066406 111.703125 107.34375 111.058594 106.488281 C 110.753906 106.09375 110.355469 105.757812 110.089844 105.335938 C 109.886719 105.019531 109.90625 104.636719 109.726562 104.300781 L 109.574219 104.480469 C 110.914062 110.058594 111.078125 115.992188 109.324219 121.496094 Z M 109.324219 121.496094 " fill-opacity="1" fill-rule="nonzero"/><path fill="#ffffff" d="M 106.765625 97.945312 L 106.878906 97.792969 C 106.574219 97.238281 106.097656 96.804688 105.664062 96.355469 L 105.890625 96.269531 C 106.089844 96.039062 106.035156 95.921875 106.027344 95.640625 C 106.003906 94.777344 105.621094 94.128906 104.976562 93.554688 C 104.859375 93.449219 104.691406 93.300781 104.542969 93.246094 C 104.300781 93.152344 99.113281 92.84375 98.808594 92.882812 C 98.242188 92.957031 97.632812 93.835938 97.292969 94.273438 C 96.800781 94.898438 96.1875 94.992188 95.773438 95.472656 C 95.566406 95.707031 95.769531 95.539062 95.460938 95.757812 C 95.296875 95.878906 95.1875 95.964844 95.054688 96.117188 L 95.308594 96.207031 C 96.96875 94.917969 98.863281 94.078125 101.019531 94.335938 C 102.761719 94.546875 104.363281 95.425781 105.570312 96.679688 C 105.902344 97.027344 106.367188 97.699219 106.765625 97.945312 Z M 106.765625 97.945312 " fill-opacity="1" fill-rule="nonzero"/><path fill="#000000" d="M 101.695312 97.457031 C 100.847656 97.371094 99.628906 97.230469 98.808594 97.46875 C 97.769531 97.773438 96.921875 98.960938 96.429688 99.875 C 93.914062 104.546875 94.253906 111.996094 95.777344 116.957031 C 96.585938 119.601562 98.023438 122.644531 100.554688 123.996094 C 101.480469 124.285156 102.636719 124.367188 103.558594 124.035156 C 104.925781 123.542969 105.746094 122.238281 106.308594 120.96875 C 108.523438 115.984375 107.890625 107.996094 105.972656 103.011719 C 105.167969 100.914062 103.84375 98.40625 101.695312 97.457031 Z M 101.695312 97.457031 " fill-opacity="1" fill-rule="nonzero"/><path fill="#ffffff" d="M 64.542969 96.53125 C 64.496094 96.574219 64.453125 96.617188 64.402344 96.65625 C 64.121094 96.875 63.878906 96.910156 63.535156 96.839844 C 62.710938 96.667969 61.871094 95.664062 61.164062 95.21875 C 58.960938 93.816406 55.007812 93.4375 52.65625 94.59375 C 51.664062 95.082031 50.835938 95.933594 50.480469 96.992188 C 50.078125 98.191406 50.34375 99.410156 50.9375 100.492188 C 52.402344 103.167969 55.308594 105.015625 58.1875 105.808594 C 60.121094 106.34375 62.917969 106.492188 64.695312 105.449219 C 65.589844 104.925781 66.316406 104.09375 66.535156 103.0625 C 66.785156 101.875 66.277344 100.625 67.109375 99.625 C 66.058594 98.777344 65.335938 97.613281 64.542969 96.53125 Z M 64.542969 96.53125 " fill-opacity="1" fill-rule="nonzero"/><path fill="#ffffff" d="M 135.675781 98.84375 C 136.535156 100.222656 135.476562 101.691406 136.527344 103.460938 C 137.128906 104.472656 138.082031 105.070312 139.214844 105.332031 C 142.222656 106.023438 145.441406 104.96875 147.949219 103.324219 C 149.753906 102.140625 151.566406 100.402344 151.972656 98.1875 C 152.15625 97.183594 151.996094 96.203125 151.378906 95.378906 C 150.523438 94.230469 148.992188 93.441406 147.59375 93.257812 C 145.378906 92.96875 142.230469 93.753906 140.484375 95.15625 C 140.027344 95.519531 139.5625 95.933594 139.003906 96.121094 C 138.640625 96.09375 138.441406 96.019531 138.125 95.835938 C 138.09375 95.816406 138.058594 95.792969 138.027344 95.773438 C 137.320312 96.902344 136.617188 97.902344 135.675781 98.84375 Z M 135.675781 98.84375 " fill-opacity="1" fill-rule="nonzero"/><path fill="#ffffff" d="M 131.753906 65.300781 C 131.746094 65.28125 131.742188 65.257812 131.730469 65.238281 C 131.582031 64.949219 131.472656 64.742188 131.398438 64.421875 C 131.335938 64.15625 131.285156 63.945312 131.160156 63.703125 C 130.234375 61.890625 129.671875 62.835938 129.277344 62.71875 C 129.167969 62.683594 129.085938 62.460938 128.890625 62.398438 L 128.730469 62.753906 L 128.800781 62.917969 L 128.433594 63.148438 C 129.070312 63.425781 130.121094 63.710938 130.40625 64.390625 C 130.84375 64.714844 131.292969 65.007812 131.753906 65.300781 Z M 131.753906 65.300781 " fill-opacity="1" fill-rule="nonzero"/><path fill="#ffffff" d="M 28.066406 118.519531 C 26.765625 120.402344 24.871094 122.710938 23.265625 124.296875 C 20.972656 126.675781 18.46875 128.84375 15.789062 130.765625 C 13.429688 132.464844 10.617188 134.019531 8.632812 136.144531 L 8.425781 135.953125 C 8.285156 135.980469 8.265625 135.976562 8.121094 136.058594 C 7.167969 136.601562 6.046875 139.050781 5.78125 140.109375 C 5.433594 141.488281 5.644531 142.871094 6.367188 144.089844 C 7.898438 146.667969 10.273438 147.914062 13.082031 148.601562 C 15.191406 149.121094 17.359375 149.546875 19.515625 149.832031 C 21.925781 150.148438 30.839844 150.871094 32.625 149.78125 C 32.886719 148.894531 31.519531 142.992188 31.289062 141.699219 C 30.453125 137.054688 29.625 132.351562 29.089844 127.660156 C 28.746094 124.628906 28.679688 121.511719 28.066406 118.519531 Z M 28.066406 118.519531 " fill-opacity="1" fill-rule="nonzero"/><path fill="#ffffff" d="M 23.265625 124.296875 C 20.972656 126.675781 18.46875 128.84375 15.789062 130.765625 C 13.429688 132.464844 10.617188 134.019531 8.632812 136.144531 C 8.472656 136.527344 8.113281 136.875 7.855469 137.203125 C 7.144531 138.109375 6.011719 139.457031 6.25 140.699219 C 6.335938 141.144531 6.664062 141.457031 7.039062 141.683594 C 9.328125 143.078125 13.359375 143.167969 15.898438 142.496094 C 18.652344 141.765625 21.019531 140.058594 22.453125 137.574219 C 24.019531 134.855469 23.800781 132.269531 23.917969 129.25 C 23.960938 128.078125 24.179688 126.675781 23.9375 125.527344 C 23.828125 124.992188 23.417969 124.863281 23.265625 124.296875 Z M 23.265625 124.296875 " fill-opacity="1" fill-rule="nonzero"/><path fill="#000000" d="M 75.496094 168.128906 C 75.097656 167.816406 74.898438 167.851562 74.421875 167.835938 C 74.5 168.527344 74.609375 169.144531 74.894531 169.789062 C 75.148438 169.375 75.335938 169.328125 75.761719 169.171875 C 75.707031 168.824219 75.585938 168.46875 75.496094 168.128906 Z M 75.496094 168.128906 " fill-opacity="1" fill-rule="nonzero"/></g></g></g><g clip-path="url(#ae3d80303f)"><g transform="matrix(1, 0, 0, 1, 161, 149)"><g clip-path="url(#bc78604ee7)"><g clip-path="url(#37cea07c20)"><path fill="#ffffff" d="M 0.582031 0.261719 L 29.9375 0.261719 L 29.9375 44.0625 L 0.582031 44.0625 Z M 0.582031 0.261719 " fill-opacity="1" fill-rule="nonzero"/></g></g></g></g><path stroke-linecap="butt" transform="matrix(0.736367, 0.142352, -0.142352, 0.736367, 143.449551, 111.643556)" fill="none" stroke-linejoin="miter" d="M -0.00079901 2.001374 L 24.278296 1.997227 " stroke="#000000" stroke-width="4" stroke-opacity="1" stroke-miterlimit="4"/><path stroke-linecap="butt" transform="matrix(0.712008, -0.235678, 0.235678, 0.712008, 191.955916, 115.201808)" fill="none" stroke-linejoin="miter" d="M -0.00154146 1.998332 L 23.517952 1.998419 " stroke="#000000" stroke-width="4" stroke-opacity="1" stroke-miterlimit="4"/><g clip-path="url(#d8675ed75e)"><g clip-path="url(#2bb47515d7)"><g clip-path="url(#62e3332ffe)"><g clip-path="url(#99d50ee92f)"><path fill="#be1931" d="M 198.46875 82.441406 L 198.847656 79.695312 L 200.21875 79.882812 C 202.339844 80.175781 204.707031 80.382812 206 79.15625 C 207 78.207031 207.398438 76.359375 207.171875 73.671875 L 207.058594 72.289062 L 209.820312 72.058594 L 209.933594 73.441406 C 210.234375 77.058594 209.574219 79.585938 207.90625 81.167969 C 205.542969 83.410156 201.835938 82.902344 199.84375 82.628906 Z M 205.15625 98.019531 L 205.347656 96.648438 C 205.636719 94.527344 205.84375 92.15625 204.621094 90.867188 C 203.667969 89.863281 201.820312 89.46875 199.132812 89.691406 L 197.75 89.808594 L 197.519531 87.046875 L 198.902344 86.929688 C 202.519531 86.628906 205.046875 87.289062 206.628906 88.960938 C 208.871094 91.324219 208.363281 95.03125 208.089844 97.023438 L 207.902344 98.394531 Z M 212.507812 99.34375 L 212.390625 97.964844 C 212.089844 94.34375 212.753906 91.816406 214.421875 90.234375 C 216.785156 87.992188 220.492188 88.5 222.484375 88.773438 L 223.855469 88.960938 L 223.480469 91.707031 L 222.109375 91.519531 C 219.988281 91.230469 217.617188 91.023438 216.328125 92.246094 C 215.324219 93.199219 214.929688 95.042969 215.152344 97.734375 L 215.269531 99.113281 Z M 216.53125 83.171875 C 216.230469 82.953125 215.953125 82.710938 215.695312 82.445312 C 213.453125 80.082031 213.964844 76.375 214.234375 74.382812 L 214.421875 73.011719 L 217.167969 73.386719 L 216.980469 74.757812 C 216.691406 76.878906 216.484375 79.246094 217.707031 80.539062 C 218.65625 81.539062 220.503906 81.9375 223.195312 81.710938 L 224.578125 81.597656 L 224.804688 84.359375 L 223.425781 84.472656 C 220.386719 84.726562 218.117188 84.300781 216.53125 83.171875 Z M 216.53125 83.171875 " fill-opacity="1" fill-rule="nonzero"/></g></g></g></g><path stroke-linecap="butt" transform="matrix(0.74935, -0.031213, 0.031213, 0.74935, 161.582632, 157.99276)" fill="none" stroke-linejoin="miter" d="M 1.719312 16.522604 C 13.175696 -2.840304 24.633636 -2.842624 36.087496 16.525836 " stroke="#000000" stroke-width="4" stroke-opacity="1" stroke-miterlimit="4"/></svg>