<svg xmlns="http://www.w3.org/2000/svg" xmlns:xlink="http://www.w3.org/1999/xlink" width="480" zoomAndPan="magnify" viewBox="0 0 360 359.999987" height="480" preserveAspectRatio="xMidYMid meet" version="1.0"><defs><clipPath id="1ec17111ff"><path d="M 71.566406 58.289062 L 283.816406 58.289062 L 283.816406 302 L 71.566406 302 Z M 71.566406 58.289062 " clip-rule="nonzero"/></clipPath><clipPath id="696ab00b12"><path d="M 169.273438 148.445312 L 198.625 148.445312 L 198.625 192.199219 L 169.273438 192.199219 Z M 169.273438 148.445312 " clip-rule="nonzero"/></clipPath><clipPath id="3dff988376"><path d="M 0.273438 0.445312 L 29.625 0.445312 L 29.625 44.199219 L 0.273438 44.199219 Z M 0.273438 0.445312 " clip-rule="nonzero"/></clipPath><clipPath id="30291aef94"><rect x="0" width="30" y="0" height="45"/></clipPath><clipPath id="b5dc49584b"><path d="M 131 74 L 159 74 L 159 102 L 131 102 Z M 131 74 " clip-rule="nonzero"/></clipPath><clipPath id="46520bdca9"><path d="M 141.597656 69.390625 L 163.59375 85.054688 L 147.929688 107.046875 L 125.9375 91.386719 Z M 141.597656 69.390625 " clip-rule="nonzero"/></clipPath><clipPath id="74c1daa184"><path d="M 141.597656 69.390625 L 163.59375 85.054688 L 147.929688 107.046875 L 125.9375 91.386719 Z M 141.597656 69.390625 " clip-rule="nonzero"/></clipPath><clipPath id="4b3d167339"><path d="M 141.597656 69.390625 L 163.59375 85.054688 L 147.929688 107.046875 L 125.9375 91.386719 Z M 141.597656 69.390625 " clip-rule="nonzero"/></clipPath><clipPath id="b48f6f5b18"><path d="M 260 108 L 282 108 L 282 213.703125 L 260 213.703125 Z M 260 108 " clip-rule="nonzero"/></clipPath><clipPath id="6830feda1e"><path d="M 79 103 L 96 103 L 96 208 L 79 208 Z M 79 103 " clip-rule="nonzero"/></clipPath><clipPath id="47dc40d892"><path d="M 83.847656 103.75 L 95.085938 104.265625 L 90.324219 207.65625 L 79.089844 207.140625 Z M 83.847656 103.75 " clip-rule="nonzero"/></clipPath><clipPath id="e52996fab5"><path d="M 2 1 L 16 1 L 16 59 L 2 59 Z M 2 1 " clip-rule="nonzero"/></clipPath><clipPath id="4e652018a7"><path d="M 4.847656 0.75 L 16.085938 1.265625 L 11.324219 104.65625 L 0.0898438 104.140625 Z M 4.847656 0.75 " clip-rule="nonzero"/></clipPath><clipPath id="44394778cd"><path d="M 16.285156 1.273438 L 5.046875 0.757812 L 0.285156 104.148438 L 11.523438 104.664062 Z M 16.285156 1.273438 " clip-rule="nonzero"/></clipPath><clipPath id="6aa0871257"><path d="M 1 55 L 13 55 L 13 104.601562 L 1 104.601562 Z M 1 55 " clip-rule="nonzero"/></clipPath><clipPath id="801721cb51"><path d="M 4.847656 0.75 L 16.085938 1.265625 L 11.324219 104.65625 L 0.0898438 104.140625 Z M 4.847656 0.75 " clip-rule="nonzero"/></clipPath><clipPath id="a2728f75b0"><path d="M 16.285156 1.273438 L 5.046875 0.757812 L 0.285156 104.148438 L 11.523438 104.664062 Z M 16.285156 1.273438 " clip-rule="nonzero"/></clipPath><clipPath id="24c22d158d"><path d="M 0 55 L 12 55 L 12 104.601562 L 0 104.601562 Z M 0 55 " clip-rule="nonzero"/></clipPath><clipPath id="f505d219a0"><path d="M 4.847656 0.75 L 16.085938 1.265625 L 11.324219 104.65625 L 0.0898438 104.140625 Z M 4.847656 0.75 " clip-rule="nonzero"/></clipPath><clipPath id="e4b9792ec1"><path d="M 16.285156 1.273438 L 5.046875 0.757812 L 0.285156 104.148438 L 11.523438 104.664062 Z M 16.285156 1.273438 " clip-rule="nonzero"/></clipPath><clipPath id="9302d28d2f"><path d="M 6 1 L 16 1 L 16 59 L 6 59 Z M 6 1 " clip-rule="nonzero"/></clipPath><clipPath id="c5c85cfe70"><path d="M 4.847656 0.75 L 16.085938 1.265625 L 11.324219 104.65625 L 0.0898438 104.140625 Z M 4.847656 0.75 " clip-rule="nonzero"/></clipPath><clipPath id="58fc095352"><path d="M 16.285156 1.273438 L 5.046875 0.757812 L 0.285156 104.148438 L 11.523438 104.664062 Z M 16.285156 1.273438 " clip-rule="nonzero"/></clipPath><clipPath id="1241cd80d4"><path d="M 2 54 L 14 54 L 14 60 L 2 60 Z M 2 54 " clip-rule="nonzero"/></clipPath><clipPath id="001a1ac02d"><path d="M 4.847656 0.75 L 16.085938 1.265625 L 11.324219 104.65625 L 0.0898438 104.140625 Z M 4.847656 0.75 " clip-rule="nonzero"/></clipPath><clipPath id="2207b39aec"><path d="M 16.285156 1.273438 L 5.046875 0.757812 L 0.285156 104.148438 L 11.523438 104.664062 Z M 16.285156 1.273438 " clip-rule="nonzero"/></clipPath><clipPath id="fad17d4900"><rect x="0" width="17" y="0" height="105"/></clipPath></defs><g clip-path="url(#1ec17111ff)"><path fill="#000000" d="M 172.890625 58.441406 C 173.007812 58.4375 173.128906 58.433594 173.246094 58.429688 C 179.609375 58.289062 186.980469 58.851562 193.230469 60.175781 C 195.429688 60.640625 197.621094 61.355469 199.789062 61.957031 C 202.453125 62.691406 205.15625 63.375 207.769531 64.289062 C 215.414062 67.019531 222.375 71.375 228.175781 77.058594 C 235.894531 84.539062 241.140625 92.726562 245.566406 102.464844 C 246.257812 103.984375 247.0625 105.441406 247.679688 106.992188 C 253.109375 120.636719 255.929688 136.273438 256.949219 150.886719 C 257.207031 154.847656 257.347656 158.8125 257.367188 162.78125 C 257.375 164.414062 257.269531 166.046875 257.304688 167.675781 C 257.351562 169.851562 258.976562 173.664062 260.355469 175.359375 C 261.25 176.457031 262.378906 177.378906 263.449219 178.300781 C 267.84375 182.085938 272.878906 185.046875 277.09375 189.058594 C 280.015625 191.839844 283.566406 194.90625 283.644531 199.242188 C 283.691406 201.808594 283.074219 204.03125 281.25 205.90625 C 279.191406 208.019531 277.058594 208.964844 274.363281 209.996094 C 266.386719 213.050781 258.984375 212.992188 250.605469 213.046875 C 250.1875 214.726562 249.585938 216.355469 249.097656 218.015625 C 248.027344 221.652344 247.042969 225.457031 246.386719 229.191406 C 245.382812 234.894531 245.050781 240.859375 244.722656 246.636719 C 244.460938 251.195312 244.175781 255.710938 244.148438 260.28125 C 244.128906 263.996094 244.402344 267.734375 244.277344 271.445312 C 244.105469 276.660156 243.289062 283.433594 239.257812 287.132812 C 236.179688 289.957031 232.816406 289.882812 228.917969 289.230469 C 227.238281 288.949219 225.570312 288.625 224 287.929688 C 222.636719 287.332031 221.394531 286.292969 220.09375 285.550781 C 217.15625 283.878906 212 282.003906 208.632812 281.878906 C 207.519531 281.835938 206.363281 281.863281 205.296875 282.214844 C 204.101562 282.613281 203.058594 283.378906 202.082031 284.160156 C 198.84375 286.746094 196.914062 289.570312 194.460938 292.796875 C 193.621094 293.902344 192.6875 294.933594 191.824219 296.019531 C 190.964844 297.097656 190.144531 298.285156 189.128906 299.21875 C 186.734375 301.429688 182.40625 302.03125 179.277344 301.875 C 172.535156 301.527344 167.558594 295.730469 163.355469 291.070312 C 162.179688 289.714844 160.898438 288.453125 159.53125 287.289062 C 157.949219 285.941406 156.144531 285.066406 154.246094 284.261719 C 152.179688 283.386719 150.222656 283.039062 147.992188 282.933594 C 143.234375 282.71875 139.785156 284.03125 135.488281 285.871094 C 133.992188 286.511719 132.46875 287.109375 130.988281 287.78125 C 127.097656 289.550781 124.132812 290.992188 119.722656 291.339844 C 117.65625 291.503906 115.398438 291.230469 113.5 290.371094 C 106.539062 287.226562 107.355469 277.851562 103.675781 272.164062 C 102.234375 269.9375 99.9375 268.152344 97.675781 266.824219 C 94.710938 265.082031 91.28125 263.625 87.917969 262.914062 C 83.492188 261.976562 78.519531 263.066406 74.65625 259.695312 C 73.515625 258.699219 72.652344 257.289062 72.578125 255.746094 C 72.515625 254.367188 72.921875 252.90625 73.414062 251.628906 C 75.433594 246.390625 78.894531 245.070312 83.085938 241.929688 C 84.902344 240.566406 86.722656 238.960938 88.210938 237.238281 C 94.683594 229.75 102.601562 216.308594 101.914062 206.144531 C 99.148438 206.171875 96.402344 206.128906 93.652344 205.742188 C 87.835938 204.929688 81.496094 202.441406 77.140625 198.417969 C 74.285156 195.78125 71.863281 192.355469 71.710938 188.335938 C 71.699219 188.097656 71.699219 187.855469 71.707031 187.613281 C 71.785156 185.542969 72.671875 183.914062 74.082031 182.445312 C 79.628906 176.667969 98.195312 173.148438 100.769531 169.527344 C 101.832031 168.035156 102.589844 162.292969 102.675781 160.355469 C 102.753906 158.585938 102.621094 156.785156 102.578125 155.015625 C 102.484375 151.261719 102.363281 147.46875 102.484375 143.71875 C 103.210938 120.804688 109.050781 97.664062 124.859375 80.390625 C 137.480469 66.601562 154.328125 59.265625 172.890625 58.441406 Z M 209.019531 227.171875 C 209.449219 227.328125 209.632812 227.375 209.886719 227.789062 C 210.171875 227.144531 210.285156 226.527344 210.359375 225.835938 C 209.882812 225.851562 209.683594 225.816406 209.285156 226.128906 C 209.195312 226.46875 209.078125 226.824219 209.019531 227.171875 Z M 209.019531 227.171875 " fill-opacity="1" fill-rule="nonzero"/></g><path fill="#ffffff" d="M 167.574219 63.109375 C 171.289062 62.617188 174.964844 62.167969 178.722656 62.203125 C 186.425781 62.277344 193.109375 63.828125 200.449219 65.984375 C 201.847656 66.394531 203.363281 66.640625 204.714844 67.179688 C 205.792969 67.609375 206.835938 68.21875 207.890625 68.714844 C 212.503906 70.875 216.8125 73.167969 220.855469 76.296875 C 223.984375 78.71875 227.640625 81.726562 230.25 84.664062 C 241.691406 97.554688 249.34375 118.738281 251.464844 135.648438 C 251.746094 137.882812 252.101562 140.125 252.3125 142.367188 C 253.4375 154.316406 253.207031 166.285156 252.304688 178.242188 C 252.152344 180.238281 251.832031 182.21875 251.609375 184.207031 C 250.503906 193.515625 248.9375 202.765625 246.917969 211.917969 C 246.617188 213.285156 246.183594 214.617188 245.851562 215.976562 C 245.070312 219.132812 244.363281 222.308594 243.722656 225.5 C 243.078125 228.890625 242.652344 232.304688 242.207031 235.726562 C 241.300781 242.757812 240.648438 249.703125 240.410156 256.789062 C 240.308594 259.554688 240.238281 262.320312 240.199219 265.085938 C 240.160156 269.804688 240.703125 279.511719 237.691406 283.316406 C 237.28125 283.832031 236.726562 284.175781 236.285156 284.648438 C 234.535156 285.09375 232.605469 285.867188 230.78125 285.699219 C 229.667969 285.601562 228.808594 284.980469 227.796875 284.582031 C 227.242188 284.363281 226.625 284.367188 226.066406 284.136719 C 224.300781 283.402344 222.558594 282.269531 220.855469 281.371094 C 214.941406 278.265625 208.988281 276.53125 202.597656 279.378906 C 203.355469 275.515625 204.003906 271.636719 204.550781 267.742188 C 204.863281 265.609375 205.339844 261.402344 205.992188 259.511719 C 206.144531 257.617188 206.476562 255.710938 206.707031 253.820312 C 207.421875 247.957031 208.285156 242.113281 208.980469 236.246094 C 209.277344 233.738281 209.6875 231.382812 209.742188 228.84375 L 209.886719 227.789062 C 210.171875 227.144531 210.285156 226.527344 210.359375 225.835938 C 209.882812 225.851562 209.683594 225.816406 209.285156 226.128906 C 209.195312 226.46875 209.078125 226.824219 209.019531 227.171875 C 208.644531 230.8125 207.734375 234.363281 207.105469 237.96875 C 205.226562 248.714844 203.105469 259.410156 201.308594 270.171875 C 200.679688 273.949219 199.765625 277.773438 199.394531 281.585938 C 197.824219 283.328125 195.980469 284.789062 194.457031 286.582031 C 192.183594 289.257812 189.164062 294.359375 186.492188 296.246094 C 185.734375 296.78125 184.734375 297.066406 183.917969 297.527344 C 182.175781 298.511719 179.203125 298.40625 177.320312 297.847656 C 174.460938 296.996094 171.335938 294.703125 169.523438 292.351562 C 169.035156 291.722656 168.75 290.960938 168.265625 290.339844 C 167.929688 289.910156 167.515625 289.539062 167.15625 289.132812 C 166.113281 287.945312 165.097656 286.636719 164.195312 285.339844 C 162.011719 283.035156 159.441406 281.394531 156.578125 280.082031 C 156.953125 277.949219 157.796875 275.800781 158.445312 273.738281 C 159.558594 270.238281 160.585938 266.707031 161.527344 263.15625 C 162.589844 258.996094 163.617188 254.761719 164.40625 250.542969 C 164.640625 249.273438 164.878906 247.988281 165.058594 246.710938 C 165.164062 245.953125 165.121094 245.210938 165.3125 244.464844 L 165.550781 244.058594 L 165.433594 243.890625 C 165.152344 244.003906 164.949219 244.078125 164.816406 244.375 C 164.316406 245.488281 164.195312 246.761719 163.691406 247.914062 C 163.296875 249.585938 162.765625 251.21875 162.320312 252.875 C 160.199219 260.957031 157.664062 268.917969 154.726562 276.738281 C 154.523438 277.511719 154.226562 278.238281 153.929688 278.980469 C 147.835938 278.890625 141.804688 279.339844 135.941406 281.074219 C 133.984375 281.898438 132.070312 282.75 130.128906 283.605469 C 129.800781 283.851562 129.476562 284.03125 129.109375 284.214844 C 127.371094 285.1875 125.371094 286 123.492188 286.660156 C 121.015625 287.53125 117.429688 288.230469 114.96875 286.988281 C 110.304688 284.636719 110.09375 277.15625 108.699219 272.773438 C 109.929688 270.710938 111.6875 268.753906 113.113281 266.804688 C 113.332031 266.492188 113.578125 266.203125 113.828125 265.910156 C 114.234375 264.949219 115.777344 262.820312 116.472656 261.957031 C 117.429688 260.328125 118.449219 258.738281 119.523438 257.183594 C 120.039062 255.851562 121.078125 254.519531 121.765625 253.253906 C 123.4375 250.195312 125.078125 247.078125 126.578125 243.933594 C 127.882812 241.199219 128.96875 238.316406 130.070312 235.496094 C 130.542969 234.273438 130.917969 232.902344 131.539062 231.757812 L 131.632812 231.335938 L 131.496094 231.230469 C 131.058594 231.367188 130.6875 231.773438 130.488281 232.179688 C 129.078125 235.074219 127.820312 238.050781 126.328125 240.910156 C 122.363281 248.429688 117.867188 255.65625 112.878906 262.539062 C 111.847656 263.984375 110.765625 265.386719 109.699219 266.804688 C 108.972656 267.773438 108.277344 268.839844 107.4375 269.710938 C 107.402344 269.675781 107.367188 269.644531 107.332031 269.609375 C 106.542969 268.863281 105.921875 267.945312 105.246094 267.101562 C 104.160156 265.742188 102.734375 264.535156 101.246094 263.636719 C 99.269531 262.445312 95.738281 260.777344 93.515625 260.167969 C 90.503906 259.347656 87.269531 258.8125 84.175781 258.394531 C 82.460938 258.164062 80.726562 258.117188 79.039062 257.691406 C 78.054688 257.445312 76.847656 257.171875 76.207031 256.335938 C 76.011719 255.667969 76.105469 254.992188 76.269531 254.324219 C 76.492188 253.429688 77.023438 252.644531 77.667969 251.996094 C 79.265625 250.378906 81.351562 249.164062 83.113281 247.714844 C 87.128906 244.441406 90.765625 240.730469 93.957031 236.644531 C 94.851562 235.488281 95.515625 234.148438 96.277344 232.898438 C 100.246094 226.425781 103.464844 219.617188 105.039062 212.148438 C 105.414062 210.394531 105.511719 208.59375 105.652344 206.8125 C 109.664062 206.480469 114.695312 204.652344 118.09375 202.589844 C 119.238281 202.007812 120.175781 201.230469 120.984375 200.234375 C 120.34375 199.570312 118.703125 200.40625 117.9375 200.691406 C 112.417969 202.738281 106.480469 203.289062 100.621094 203.097656 C 93.3125 202.859375 83.683594 200.339844 78.65625 194.847656 C 77.214844 193.269531 76.167969 191.433594 76.257812 189.234375 C 76.542969 183.261719 82.863281 181.378906 87.554688 179.890625 C 89.917969 179.140625 92.316406 178.417969 94.601562 177.453125 C 99.089844 175.558594 103.144531 173.144531 106.792969 169.898438 C 110.253906 166.816406 113.066406 162.753906 115.042969 158.578125 C 115.601562 157.398438 115.882812 155.890625 116.535156 154.792969 C 116.554688 154.757812 116.578125 154.722656 116.601562 154.691406 C 116.585938 154.398438 116.546875 154.136719 116.480469 153.847656 C 116.140625 153.707031 116.113281 153.804688 115.785156 153.9375 C 113.429688 158.085938 110.835938 161.722656 107.183594 164.835938 C 107.167969 161.699219 107.269531 158.5625 107.265625 155.425781 C 107.257812 139.949219 107.4375 126.453125 112.332031 111.558594 C 114.820312 103.992188 117.648438 98.140625 122.132812 91.554688 C 129.699219 80.453125 140.839844 71.191406 153.542969 66.652344 C 158.253906 64.972656 162.691406 64.03125 167.574219 63.109375 Z M 167.574219 63.109375 " fill-opacity="1" fill-rule="nonzero"/><path fill="#ffffff" d="M 107.183594 164.835938 C 107.167969 161.699219 107.269531 158.5625 107.265625 155.425781 C 107.257812 139.949219 107.4375 126.453125 112.332031 111.558594 C 114.820312 103.992188 117.648438 98.140625 122.132812 91.554688 C 129.699219 80.453125 140.839844 71.191406 153.542969 66.652344 C 158.253906 64.972656 162.691406 64.03125 167.574219 63.109375 C 167.75 63.226562 167.8125 63.238281 167.910156 63.429688 C 168.179688 63.972656 168.53125 64.429688 169.113281 64.605469 L 169.25 64.832031 C 168.988281 65.425781 168.5625 65.585938 167.976562 65.8125 C 166.015625 66.566406 162.726562 66.4375 161.089844 67.527344 C 160.535156 67.894531 159.671875 67.933594 159.039062 68.144531 C 157.753906 68.570312 156.273438 69.242188 155.078125 69.871094 C 152.484375 71.242188 149.6875 72.886719 147.484375 74.839844 C 146.226562 75.957031 145.15625 77.285156 143.785156 78.273438 C 142.25 79.378906 140.160156 80.078125 138.871094 81.449219 C 138.332031 82.023438 137.996094 83.105469 137.621094 83.824219 C 137.859375 84.027344 138.046875 84.011719 138.347656 83.96875 C 139.929688 83.753906 139.917969 82.777344 140.984375 81.9375 C 141.554688 81.488281 142.28125 81.242188 142.890625 80.847656 C 143.269531 80.605469 143.578125 80.285156 143.964844 80.050781 C 145.28125 79.238281 147.503906 78.527344 149.019531 78.953125 C 150.355469 79.324219 151.65625 79.144531 152.761719 80.089844 C 153.714844 80.90625 154.523438 81.542969 154.648438 82.894531 C 154.992188 86.597656 151.574219 90.234375 149.457031 92.875 C 148.996094 93.449219 148.667969 94.144531 148.191406 94.6875 C 147.292969 95.707031 145.972656 96.324219 144.945312 97.183594 C 143.300781 98.5625 141.992188 100.390625 140.328125 101.707031 C 139.117188 102.667969 137.800781 102.878906 136.460938 103.527344 C 135.546875 103.964844 134.789062 104.757812 133.992188 105.144531 C 133.414062 105.425781 132.328125 105.515625 131.683594 105.515625 C 131.550781 105.515625 131.511719 105.503906 131.394531 105.484375 L 131.683594 105.335938 C 130.671875 105.316406 129.746094 105.277344 128.976562 104.523438 C 128.210938 103.769531 127.980469 102.613281 128 101.574219 C 128.011719 100.722656 128.234375 99.820312 128.546875 99.03125 C 129.460938 96.746094 130.066406 94.238281 131.730469 92.378906 C 131.972656 92.109375 132.238281 91.542969 132.144531 91.171875 C 132.128906 91.109375 132.089844 91.054688 132.0625 90.996094 C 131.753906 90.902344 131.59375 90.925781 131.300781 91.070312 C 130.664062 91.386719 130.070312 92.09375 129.644531 92.660156 C 128.734375 93.875 128.058594 95.277344 127.277344 96.578125 C 126.542969 97.796875 125.699219 98.980469 125.097656 100.277344 C 124.121094 102.371094 122.972656 105.304688 122.359375 107.546875 C 122.109375 108.460938 121.972656 109.4375 121.664062 110.335938 C 121.28125 111.453125 120.65625 112.207031 120.550781 113.453125 C 120.761719 113.71875 120.9375 113.734375 121.261719 113.769531 C 122.765625 113.933594 124.421875 113.367188 125.535156 114.691406 C 126.039062 115.292969 126.265625 116.148438 126.183594 116.925781 C 126.144531 117.269531 126.074219 117.621094 125.953125 117.941406 C 125.722656 118.550781 125.667969 118.832031 125.8125 119.453125 C 126.042969 120.425781 124.859375 123.070312 124.320312 123.890625 C 123.714844 124.8125 122.75 125.585938 121.65625 125.800781 C 120.964844 125.9375 119.941406 125.785156 119.378906 125.335938 C 118.742188 124.828125 118.742188 123.816406 118.121094 123.308594 C 117.824219 123.339844 117.722656 123.457031 117.542969 123.6875 C 117.300781 124 117.128906 124.375 117.03125 124.757812 C 116.171875 128.179688 115.894531 132.628906 115.546875 136.171875 C 115.328125 138.429688 114.972656 140.652344 114.863281 142.925781 C 114.796875 144.324219 114.828125 148.074219 115.046875 149.375 C 115.285156 150.800781 116.101562 152.488281 115.785156 153.9375 C 113.429688 158.085938 110.835938 161.722656 107.183594 164.835938 Z M 107.183594 164.835938 " fill-opacity="1" fill-rule="nonzero"/><path fill="#ffffff" d="M 110.84375 210.378906 C 111.324219 210.246094 111.585938 210.105469 112.070312 210.28125 C 112.378906 210.675781 112.34375 211.347656 112.273438 211.828125 C 112.023438 213.566406 110.953125 217.890625 110.089844 219.335938 C 109.460938 220.390625 109.296875 221.734375 108.859375 222.894531 C 107.898438 225.453125 106.75 228.203125 105.433594 230.601562 C 104.753906 231.839844 103.632812 232.804688 102.878906 233.984375 C 101.996094 235.367188 101.585938 236.992188 100.574219 238.308594 C 99.285156 239.988281 97.710938 241.273438 96.269531 242.777344 C 95.253906 243.839844 94.554688 245.253906 93.53125 246.355469 C 92.589844 247.367188 91.578125 248.394531 90.523438 249.285156 C 89.742188 249.945312 88.871094 250.53125 88.140625 251.246094 C 87.117188 252.246094 86.289062 253.617188 85.113281 254.429688 C 84.5 254.855469 83.535156 255.074219 82.820312 255.253906 C 81.699219 255.535156 78.027344 256.34375 77.054688 256.335938 C 76.773438 256.332031 76.492188 256.339844 76.207031 256.335938 C 76.011719 255.667969 76.105469 254.992188 76.269531 254.324219 C 76.492188 253.429688 77.023438 252.644531 77.667969 251.996094 C 79.265625 250.378906 81.351562 249.164062 83.113281 247.714844 C 87.128906 244.441406 90.765625 240.730469 93.957031 236.644531 C 94.851562 235.488281 95.515625 234.148438 96.277344 232.898438 C 100.246094 226.425781 103.464844 219.617188 105.039062 212.148438 C 107.34375 211.613281 108.644531 211.429688 110.84375 210.378906 Z M 110.84375 210.378906 " fill-opacity="1" fill-rule="nonzero"/><path fill="#ffffff" d="M 116.601562 154.691406 L 117.023438 154.425781 C 117.453125 154.601562 117.664062 154.753906 117.84375 155.195312 C 118.652344 157.1875 117.730469 161.035156 116.847656 162.984375 C 115.859375 165.164062 114.570312 167.328125 113.148438 169.257812 C 112.355469 170.332031 111.359375 171.3125 110.457031 172.296875 C 107.984375 174.992188 105.523438 177.53125 102.574219 179.714844 C 102.007812 180.132812 101.378906 180.390625 100.804688 180.777344 C 100.316406 181.105469 99.984375 181.648438 99.507812 181.992188 C 98.738281 182.542969 97.375 182.953125 96.480469 183.28125 C 95.554688 183.621094 94.597656 183.882812 93.679688 184.25 C 92.566406 184.691406 91.449219 185.300781 90.296875 185.625 C 89.082031 185.96875 87.335938 185.90625 86.308594 186.625 C 85.054688 187.5 82.886719 188.300781 81.859375 189.21875 C 80.757812 190.203125 80.4375 192.265625 79.292969 193.058594 C 79.035156 193.234375 78.625 193.269531 78.320312 193.316406 C 77.378906 192.042969 77.132812 190.503906 76.257812 189.234375 C 76.542969 183.261719 82.863281 181.378906 87.554688 179.890625 C 89.917969 179.140625 92.316406 178.417969 94.601562 177.453125 C 99.089844 175.558594 103.144531 173.144531 106.792969 169.898438 C 110.253906 166.816406 113.066406 162.753906 115.042969 158.578125 C 115.601562 157.398438 115.882812 155.890625 116.535156 154.792969 C 116.554688 154.757812 116.578125 154.722656 116.601562 154.691406 Z M 116.601562 154.691406 " fill-opacity="1" fill-rule="nonzero"/><path fill="#ffffff" d="M 76.257812 189.234375 C 77.132812 190.503906 77.378906 192.042969 78.320312 193.316406 C 79.195312 194.359375 81.082031 194.757812 82.339844 195.21875 C 83.847656 195.773438 85.328125 196.421875 86.84375 196.9375 C 90.007812 198.023438 93.519531 198.726562 96.847656 199.027344 C 101.773438 199.46875 107.09375 199.332031 111.9375 198.34375 C 113.46875 198.03125 115.0625 197.664062 116.550781 197.207031 C 118.507812 196.605469 122.949219 194.699219 124.785156 194.898438 L 124.898438 195.054688 C 124.582031 196.289062 122.042969 199.367188 120.984375 200.234375 C 120.34375 199.570312 118.703125 200.40625 117.9375 200.691406 C 112.417969 202.738281 106.480469 203.289062 100.621094 203.097656 C 93.3125 202.859375 83.683594 200.339844 78.65625 194.847656 C 77.214844 193.269531 76.167969 191.433594 76.257812 189.234375 Z M 76.257812 189.234375 " fill-opacity="1" fill-rule="nonzero"/><path fill="#ffffff" d="M 113.113281 266.804688 C 113.367188 269.128906 112.90625 271.199219 112.777344 273.503906 C 112.589844 276.902344 113.507812 280.46875 116.222656 282.714844 C 120.335938 286.117188 124.738281 283.617188 129.109375 284.214844 C 127.371094 285.1875 125.371094 286 123.492188 286.660156 C 121.015625 287.53125 117.429688 288.230469 114.96875 286.988281 C 110.304688 284.636719 110.09375 277.15625 108.699219 272.773438 C 109.929688 270.710938 111.6875 268.753906 113.113281 266.804688 Z M 113.113281 266.804688 " fill-opacity="1" fill-rule="nonzero"/><path fill="#ffffff" d="M 165.3125 244.464844 C 165.699219 244.792969 165.894531 245.007812 165.941406 245.546875 C 166.105469 247.375 164.710938 259.191406 164.195312 260.929688 C 163.8125 262.222656 163.082031 264.226562 162.519531 265.445312 C 162.039062 266.488281 161.425781 267.46875 160.96875 268.523438 C 159.851562 271.085938 159.027344 274.601562 160.242188 277.273438 C 160.5 277.839844 160.90625 278.320312 161.257812 278.828125 C 161.703125 279.464844 162.125 280.273438 162.707031 280.792969 C 163.511719 281.507812 164.820312 282.125 165.011719 283.316406 C 165.070312 283.699219 165.003906 284.363281 164.761719 284.671875 L 164.160156 284.628906 L 164.035156 284.738281 C 164.175781 284.925781 164.375 285.085938 164.347656 285.324219 L 164.195312 285.339844 C 162.011719 283.035156 159.441406 281.394531 156.578125 280.082031 C 156.953125 277.949219 157.796875 275.800781 158.445312 273.738281 C 159.558594 270.238281 160.585938 266.707031 161.527344 263.15625 C 162.589844 258.996094 163.617188 254.761719 164.40625 250.542969 C 164.640625 249.273438 164.878906 247.988281 165.058594 246.710938 C 165.164062 245.953125 165.121094 245.210938 165.3125 244.464844 Z M 165.3125 244.464844 " fill-opacity="1" fill-rule="nonzero"/><path fill="#ffffff" d="M 209.742188 228.84375 L 209.886719 228.773438 C 210.105469 229.40625 210.382812 229.882812 210.394531 230.566406 C 210.414062 231.941406 210.5 233.328125 210.472656 234.699219 C 210.449219 235.863281 210.285156 237.0625 210.3125 238.222656 C 210.335938 239.042969 210.683594 239.878906 210.636719 240.699219 C 210.578125 241.621094 210.316406 242.550781 210.210938 243.472656 C 209.71875 247.851562 209.34375 252.183594 208.074219 256.425781 C 207.890625 257.035156 207.75 257.773438 207.414062 258.3125 C 207.089844 258.539062 206.847656 258.601562 206.46875 258.664062 C 206.296875 258.894531 206.242188 259.085938 206.167969 259.363281 L 205.992188 259.511719 C 206.144531 257.617188 206.476562 255.710938 206.707031 253.820312 C 207.421875 247.957031 208.285156 242.113281 208.980469 236.246094 C 209.277344 233.738281 209.6875 231.382812 209.742188 228.84375 Z M 209.742188 228.84375 " fill-opacity="1" fill-rule="nonzero"/><path fill="#ffffff" d="M 118.09375 202.589844 C 117.980469 203.261719 117.847656 204.039062 117.558594 204.664062 C 116.730469 206.453125 114.332031 207.957031 112.75 209.089844 C 112.128906 209.53125 111.441406 209.914062 110.84375 210.378906 C 108.644531 211.429688 107.34375 211.613281 105.039062 212.148438 C 105.414062 210.394531 105.511719 208.59375 105.652344 206.8125 C 109.664062 206.480469 114.695312 204.652344 118.09375 202.589844 Z M 118.09375 202.589844 " fill-opacity="1" fill-rule="nonzero"/><path fill="#ffffff" d="M 131.539062 231.757812 C 131.582031 231.9375 131.609375 232.074219 131.609375 232.261719 C 131.605469 232.730469 131.78125 233.257812 131.722656 233.71875 C 131.597656 234.683594 128.414062 243.125 127.941406 244.097656 C 127.644531 244.703125 127.070312 245.144531 126.796875 245.765625 C 126.328125 246.828125 126.214844 248.070312 125.917969 249.183594 C 125.433594 251.007812 123.871094 253.695312 122.550781 255.023438 C 122.222656 255.347656 120.871094 256.417969 120.78125 256.527344 C 120.503906 256.863281 119.992188 256.929688 119.65625 257.285156 L 119.523438 257.183594 C 120.039062 255.851562 121.078125 254.519531 121.765625 253.253906 C 123.4375 250.195312 125.078125 247.078125 126.578125 243.933594 C 127.882812 241.199219 128.96875 238.316406 130.070312 235.496094 C 130.542969 234.273438 130.917969 232.902344 131.539062 231.757812 Z M 131.539062 231.757812 " fill-opacity="1" fill-rule="nonzero"/><path fill="#ffffff" d="M 154.726562 276.738281 C 154.578125 276.25 154.71875 275.929688 154.871094 275.464844 L 154.945312 275.238281 C 154.761719 274.789062 154.195312 274.699219 153.941406 274.300781 C 153.273438 273.261719 155.328125 271.578125 155.523438 270.539062 C 155.753906 269.316406 156.105469 267.859375 156.761719 266.785156 C 157.320312 265.878906 158.039062 265.144531 158.378906 264.105469 C 158.75 262.976562 158.699219 261.832031 158.753906 260.664062 C 158.867188 258.386719 160.035156 257.878906 160.839844 256.046875 C 161.441406 254.675781 161.429688 252.976562 161.730469 251.519531 C 161.886719 250.753906 162.234375 250.101562 162.476562 249.375 C 162.652344 248.847656 162.757812 248.234375 163.183594 247.851562 L 163.691406 247.914062 C 163.296875 249.585938 162.765625 251.21875 162.320312 252.875 C 160.199219 260.957031 157.664062 268.917969 154.726562 276.738281 Z M 154.726562 276.738281 " fill-opacity="1" fill-rule="nonzero"/><path fill="#ffffff" d="M 116.472656 261.957031 C 116.605469 262.21875 116.570312 262.066406 116.558594 262.277344 C 116.546875 262.507812 116.550781 262.414062 116.59375 262.648438 C 116.738281 263.457031 116.195312 265.183594 115.75 265.832031 C 115.558594 266.109375 115.378906 266.230469 115.046875 266.296875 C 114.648438 266.222656 114.535156 266.09375 114.261719 265.816406 C 114.050781 265.933594 114.160156 265.863281 113.941406 266.023438 L 113.828125 265.910156 C 114.234375 264.949219 115.777344 262.820312 116.472656 261.957031 Z M 116.472656 261.957031 " fill-opacity="1" fill-rule="nonzero"/><path fill="#ffffff" d="M 130.128906 283.605469 L 130.140625 283.457031 C 130.378906 283.1875 130.703125 283.054688 131.019531 282.890625 L 131.023438 282.894531 C 130.988281 282.816406 130.960938 282.730469 130.914062 282.660156 C 130.71875 282.382812 130.8125 282.714844 130.753906 282.378906 C 131.910156 281.886719 133.09375 281.332031 134.355469 281.203125 C 134.753906 281.160156 135.171875 281.132812 135.558594 281.023438 C 135.804688 280.953125 135.664062 280.945312 135.941406 281.074219 C 133.984375 281.898438 132.070312 282.75 130.128906 283.605469 Z M 130.128906 283.605469 " fill-opacity="1" fill-rule="nonzero"/><path fill="#000000" d="M 209.285156 226.128906 C 209.335938 225.527344 209.449219 224.664062 209.910156 224.238281 L 210.125 224.292969 C 210.421875 224.746094 210.351562 225.308594 210.359375 225.835938 C 209.882812 225.851562 209.683594 225.816406 209.285156 226.128906 Z M 209.285156 226.128906 " fill-opacity="1" fill-rule="nonzero"/><path fill="#000000" d="M 200.003906 146.644531 L 199.894531 146.691406 C 199.5625 146.132812 199.304688 145.285156 199.183594 144.640625 C 198.933594 143.28125 197.878906 142.207031 197.207031 141.019531 C 196.617188 139.976562 196.230469 134.230469 196.589844 133.085938 C 196.601562 133.042969 196.621094 132.996094 196.636719 132.949219 C 196.914062 132.117188 198.695312 128.59375 199.210938 127.8125 C 199.429688 127.476562 199.835938 127.230469 200.15625 127.003906 C 201.007812 126.414062 201.570312 125.390625 202.167969 124.554688 C 202.027344 124.464844 201.921875 124.5 201.761719 124.503906 L 201.695312 124.273438 C 202.167969 123.308594 203.980469 122.480469 204.898438 121.960938 C 204.910156 121.785156 204.929688 121.628906 204.957031 121.457031 C 205.9375 120.671875 207.738281 120.183594 208.976562 120.039062 C 210.667969 119.84375 212.210938 121.015625 213.507812 122.019531 C 213.570312 122.351562 213.5 122.386719 213.332031 122.683594 C 214.398438 124.058594 216.113281 124.910156 216.980469 126.441406 L 216.890625 126.71875 C 217.59375 127.769531 218.234375 128.859375 218.8125 129.984375 C 219.097656 130.53125 219.375 131.382812 219.746094 131.855469 L 219.933594 131.820312 C 220.296875 132.390625 220.234375 133.183594 220.609375 133.746094 C 221.023438 134.367188 221.816406 134.578125 222.273438 135.132812 C 222.695312 135.640625 222.917969 136.539062 223.230469 137.144531 C 223.605469 137.859375 223.339844 138.722656 223.480469 139.488281 C 223.550781 139.878906 223.734375 140.238281 223.804688 140.632812 C 224.507812 144.589844 224.226562 147.527344 222.898438 151.269531 C 222.6875 151.863281 222.460938 152.363281 222.066406 152.863281 C 221.792969 152.851562 221.703125 152.789062 221.464844 152.660156 C 221.144531 152.894531 221.472656 152.988281 221.035156 153.105469 C 220.746094 153.570312 220.488281 154.042969 220.238281 154.53125 C 219.445312 155.613281 218.726562 156.777344 217.671875 157.625 C 215.824219 159.023438 214.164062 159.5 211.871094 159.523438 C 210.875 159.722656 210.117188 159.082031 209.261719 159.210938 C 208.320312 159.351562 208.222656 160.039062 206.984375 159.667969 C 206.664062 159.574219 206.222656 159.425781 205.945312 159.242188 C 204.808594 158.492188 203.835938 155.164062 203.152344 153.957031 C 203.050781 153.773438 202.953125 153.585938 202.851562 153.398438 L 202.945312 153.230469 C 201.667969 151.125 200.929688 148.90625 200.003906 146.644531 Z M 200.003906 146.644531 " fill-opacity="1" fill-rule="nonzero"/><path fill="#ffffff" d="M 200.003906 146.644531 L 199.894531 146.691406 C 199.5625 146.132812 199.304688 145.285156 199.183594 144.640625 C 198.933594 143.28125 197.878906 142.207031 197.207031 141.019531 C 196.617188 139.976562 196.230469 134.230469 196.589844 133.085938 C 196.601562 133.042969 196.621094 132.996094 196.636719 132.949219 C 196.914062 132.117188 198.695312 128.59375 199.210938 127.8125 C 199.429688 127.476562 199.835938 127.230469 200.15625 127.003906 C 201.007812 126.414062 201.570312 125.390625 202.167969 124.554688 C 202.027344 124.464844 201.921875 124.5 201.761719 124.503906 L 201.695312 124.273438 C 202.167969 123.308594 203.980469 122.480469 204.898438 121.960938 C 204.910156 121.785156 204.929688 121.628906 204.957031 121.457031 C 205.9375 120.671875 207.738281 120.183594 208.976562 120.039062 C 210.667969 119.84375 212.210938 121.015625 213.507812 122.019531 C 213.570312 122.351562 213.5 122.386719 213.332031 122.683594 C 214.398438 124.058594 216.113281 124.910156 216.980469 126.441406 L 216.890625 126.71875 C 215.078125 124.410156 212.617188 122.324219 209.609375 121.941406 C 207.367188 121.65625 205.273438 122.257812 203.511719 123.667969 C 200.414062 126.144531 199.121094 130.296875 198.722656 134.101562 C 198.273438 138.351562 198.894531 142.546875 200.003906 146.644531 Z M 200.003906 146.644531 " fill-opacity="1" fill-rule="nonzero"/><path fill="#ffffff" d="M 219.746094 131.855469 L 219.933594 131.820312 C 220.296875 132.390625 220.234375 133.183594 220.609375 133.746094 C 221.023438 134.367188 221.816406 134.578125 222.273438 135.132812 C 222.695312 135.640625 222.917969 136.539062 223.230469 137.144531 C 223.605469 137.859375 223.339844 138.722656 223.480469 139.488281 C 223.550781 139.878906 223.734375 140.238281 223.804688 140.632812 C 224.507812 144.589844 224.226562 147.527344 222.898438 151.269531 C 222.6875 151.863281 222.460938 152.363281 222.066406 152.863281 C 221.792969 152.851562 221.703125 152.789062 221.464844 152.660156 C 221.144531 152.894531 221.472656 152.988281 221.035156 153.105469 C 223.292969 145.847656 222.28125 138.859375 219.746094 131.855469 Z M 219.746094 131.855469 " fill-opacity="1" fill-rule="nonzero"/><path fill="#ffffff" d="M 202.945312 153.230469 C 205.703125 156.625 207.371094 158.738281 211.871094 159.523438 C 210.875 159.722656 210.117188 159.082031 209.261719 159.210938 C 208.320312 159.351562 208.222656 160.039062 206.984375 159.667969 C 206.664062 159.574219 206.222656 159.425781 205.945312 159.242188 C 204.808594 158.492188 203.835938 155.164062 203.152344 153.957031 C 203.050781 153.773438 202.953125 153.585938 202.851562 153.398438 Z M 202.945312 153.230469 " fill-opacity="1" fill-rule="nonzero"/><path fill="#000000" d="M 156.347656 121.148438 C 156.421875 121.140625 156.496094 121.132812 156.566406 121.125 C 156.925781 121.082031 157.136719 120.90625 157.449219 120.757812 C 158.511719 120.261719 160.546875 120.542969 161.5625 121.003906 C 162.511719 121.4375 163.78125 122.066406 164.507812 122.828125 C 164.535156 123.070312 164.550781 122.964844 164.496094 123.144531 C 166.578125 125.367188 166.5625 125.625 167.878906 128.300781 L 168.117188 128.363281 C 168.214844 128.617188 168.273438 128.84375 168.320312 129.105469 L 168.492188 129.128906 L 168.679688 128.976562 C 169.273438 129.3125 170.5 132.117188 170.714844 132.90625 C 171.566406 136.027344 171.921875 139.683594 170.175781 142.617188 C 169.722656 143.378906 168.972656 143.941406 168.449219 144.652344 C 167.78125 145.5625 167.78125 146.621094 166.875 147.367188 C 166.050781 149.160156 165.179688 150.917969 164.183594 152.617188 L 164.355469 152.691406 C 164.324219 152.753906 164.292969 152.816406 164.261719 152.878906 C 164.054688 153.339844 164.128906 153.9375 164.035156 154.433594 C 163.929688 154.992188 163.683594 155.429688 163.476562 155.949219 C 162.757812 157.761719 162.730469 157.945312 160.847656 158.757812 C 160.019531 159.113281 159.222656 159.324219 158.316406 159.355469 C 157.851562 159.148438 157.453125 158.789062 156.933594 158.800781 C 156.753906 158.800781 156.546875 158.792969 156.375 158.761719 C 155.898438 158.804688 155.429688 158.882812 154.949219 158.914062 C 152.691406 159.054688 150.789062 158.371094 149.109375 156.84375 C 148.164062 155.902344 147.464844 154.902344 146.753906 153.773438 C 145.347656 151.304688 145.011719 148.535156 144.785156 145.742188 C 144.75 146.164062 144.703125 146.578125 144.644531 146.996094 C 144.632812 146.769531 144.613281 146.542969 144.609375 146.316406 C 144.597656 145.921875 144.621094 145.667969 144.425781 145.308594 C 144.328125 145.128906 144.277344 145.058594 144.246094 144.847656 C 144.207031 144.5625 144.269531 144.785156 144.167969 144.480469 C 144.144531 144.414062 144.117188 144.347656 144.097656 144.277344 C 143.933594 143.691406 143.621094 143.203125 143.484375 142.601562 C 143.136719 141.101562 143.554688 140.863281 143.636719 139.617188 C 143.691406 138.777344 143.539062 137.882812 143.683594 137.054688 C 143.878906 135.945312 146.539062 132.417969 147.304688 131.191406 L 147.480469 131.210938 C 148.898438 128.078125 150.457031 125.601562 153.03125 123.300781 C 153.488281 123.007812 153.9375 122.714844 154.375 122.390625 C 154.660156 121.710938 155.710938 121.425781 156.347656 121.148438 Z M 156.347656 121.148438 " fill-opacity="1" fill-rule="nonzero"/><path fill="#ffffff" d="M 167.878906 128.300781 L 168.117188 128.363281 C 168.214844 128.617188 168.273438 128.84375 168.320312 129.105469 L 168.492188 129.128906 L 168.679688 128.976562 C 169.273438 129.3125 170.5 132.117188 170.714844 132.90625 C 171.566406 136.027344 171.921875 139.683594 170.175781 142.617188 C 169.722656 143.378906 168.972656 143.941406 168.449219 144.652344 C 167.78125 145.5625 167.78125 146.621094 166.875 147.367188 C 167.1875 145.691406 167.851562 144.03125 168.238281 142.355469 C 169.269531 137.875 169.179688 132.699219 167.878906 128.300781 Z M 167.878906 128.300781 " fill-opacity="1" fill-rule="nonzero"/><path fill="#ffffff" d="M 144.785156 145.742188 C 144.75 146.164062 144.703125 146.578125 144.644531 146.996094 C 144.632812 146.769531 144.613281 146.542969 144.609375 146.316406 C 144.597656 145.921875 144.621094 145.667969 144.425781 145.308594 C 144.328125 145.128906 144.277344 145.058594 144.246094 144.847656 C 144.207031 144.5625 144.269531 144.785156 144.167969 144.480469 C 144.144531 144.414062 144.117188 144.347656 144.097656 144.277344 C 143.933594 143.691406 143.621094 143.203125 143.484375 142.601562 C 143.136719 141.101562 143.554688 140.863281 143.636719 139.617188 C 143.691406 138.777344 143.539062 137.882812 143.683594 137.054688 C 143.878906 135.945312 146.539062 132.417969 147.304688 131.191406 L 147.480469 131.210938 C 146.988281 132.800781 146.390625 134.371094 145.945312 135.976562 C 145.066406 139.152344 144.84375 142.46875 144.785156 145.742188 Z M 144.785156 145.742188 " fill-opacity="1" fill-rule="nonzero"/><path fill="#ffffff" d="M 164.183594 152.617188 L 164.355469 152.691406 C 164.324219 152.753906 164.292969 152.816406 164.261719 152.878906 C 164.054688 153.339844 164.128906 153.9375 164.035156 154.433594 C 163.929688 154.992188 163.683594 155.429688 163.476562 155.949219 C 162.757812 157.761719 162.730469 157.945312 160.847656 158.757812 C 160.019531 159.113281 159.222656 159.324219 158.316406 159.355469 C 157.851562 159.148438 157.453125 158.789062 156.933594 158.800781 C 156.753906 158.800781 156.546875 158.792969 156.375 158.761719 C 160.1875 157.472656 161.699219 155.679688 164.183594 152.617188 Z M 164.183594 152.617188 " fill-opacity="1" fill-rule="nonzero"/><path fill="#ffffff" d="M 156.347656 121.148438 C 156.421875 121.140625 156.496094 121.132812 156.566406 121.125 C 156.925781 121.082031 157.136719 120.90625 157.449219 120.757812 C 158.511719 120.261719 160.546875 120.542969 161.5625 121.003906 C 162.511719 121.4375 163.78125 122.066406 164.507812 122.828125 C 164.535156 123.070312 164.550781 122.964844 164.496094 123.144531 C 163.574219 122.4375 162.632812 121.816406 161.527344 121.441406 C 158.96875 120.578125 156.699219 121.246094 154.375 122.390625 C 154.660156 121.710938 155.710938 121.425781 156.347656 121.148438 Z M 156.347656 121.148438 " fill-opacity="1" fill-rule="nonzero"/><path fill="#000000" d="M 178.019531 155.945312 L 177.902344 155.792969 C 178.207031 155.238281 178.683594 154.804688 179.117188 154.355469 L 178.890625 154.269531 C 178.695312 154.039062 178.75 153.921875 178.757812 153.640625 C 178.78125 152.777344 179.160156 152.128906 179.804688 151.554688 C 179.921875 151.449219 180.09375 151.300781 180.238281 151.246094 C 180.480469 151.152344 185.671875 150.84375 185.972656 150.882812 C 186.539062 150.957031 187.148438 151.835938 187.492188 152.273438 C 187.984375 152.898438 188.597656 152.992188 189.011719 153.472656 C 189.214844 153.707031 189.011719 153.539062 189.320312 153.757812 C 189.488281 153.878906 189.59375 153.964844 189.726562 154.117188 L 189.472656 154.207031 C 190.152344 155.058594 190.785156 155.914062 191.382812 156.824219 L 191.4375 156.6875 L 191.558594 156.664062 L 191.777344 157.199219 C 192 157.742188 192.082031 158.8125 192.453125 159.210938 L 192.542969 158.886719 C 193.265625 158.96875 194.597656 160.96875 195.078125 161.589844 C 195.363281 161.957031 195.417969 162.382812 195.464844 162.832031 C 195.558594 163.773438 195.402344 168.625 195.253906 169.65625 C 194.933594 171.933594 194.019531 173.101562 193.21875 175.117188 C 192.867188 176 193.019531 177.171875 192.125 177.75 C 191.96875 177.851562 191.929688 177.859375 191.773438 177.917969 L 191.800781 177.828125 C 191.730469 177.839844 191.660156 177.863281 191.59375 177.867188 C 191.53125 177.871094 191.46875 177.855469 191.40625 177.847656 C 189.765625 180.898438 188.132812 184.027344 184.554688 185.101562 C 182.832031 185.617188 181.042969 185.40625 179.472656 184.539062 C 177.082031 183.21875 176.8125 181.59375 175.457031 179.496094 L 175.347656 179.550781 C 175.097656 179.402344 175.105469 179.234375 175.035156 178.972656 C 174.804688 178.136719 174.542969 176.914062 174.1875 176.140625 C 173.664062 175.003906 172.941406 173.960938 172.46875 172.796875 C 172.554688 172 173.011719 171.277344 173.101562 170.527344 C 173.191406 169.796875 172.875 168.863281 172.84375 168.113281 C 172.800781 167.066406 173.078125 165.34375 173.726562 164.488281 C 174.027344 164.09375 174.425781 163.757812 174.695312 163.335938 C 174.894531 163.019531 174.878906 162.636719 175.054688 162.300781 L 175.210938 162.480469 C 175.460938 161.925781 175.585938 161.25 175.796875 160.667969 C 176.394531 159.011719 177.105469 157.453125 178.019531 155.945312 Z M 178.019531 155.945312 " fill-opacity="1" fill-rule="nonzero"/><path fill="#ffffff" d="M 191.382812 156.824219 L 191.4375 156.6875 L 191.558594 156.664062 L 191.777344 157.199219 C 192 157.742188 192.082031 158.8125 192.453125 159.210938 L 192.542969 158.886719 C 193.265625 158.96875 194.597656 160.96875 195.078125 161.589844 C 195.363281 161.957031 195.417969 162.382812 195.464844 162.832031 C 195.558594 163.773438 195.402344 168.625 195.253906 169.65625 C 194.933594 171.933594 194.019531 173.101562 193.21875 175.117188 C 192.867188 176 193.019531 177.171875 192.125 177.75 C 191.96875 177.851562 191.929688 177.859375 191.773438 177.917969 L 191.800781 177.828125 C 191.730469 177.839844 191.660156 177.863281 191.59375 177.867188 C 191.53125 177.871094 191.46875 177.855469 191.40625 177.847656 C 193.101562 172.066406 193.992188 166.511719 192.570312 160.542969 C 192.269531 159.277344 191.742188 158.074219 191.382812 156.824219 Z M 191.382812 156.824219 " fill-opacity="1" fill-rule="nonzero"/><path fill="#ffffff" d="M 175.457031 179.496094 L 175.347656 179.550781 C 175.097656 179.402344 175.105469 179.234375 175.035156 178.972656 C 174.804688 178.136719 174.542969 176.914062 174.1875 176.140625 C 173.664062 175.003906 172.941406 173.960938 172.46875 172.796875 C 172.554688 172 173.011719 171.277344 173.101562 170.527344 C 173.191406 169.796875 172.875 168.863281 172.84375 168.113281 C 172.800781 167.066406 173.078125 165.34375 173.726562 164.488281 C 174.027344 164.09375 174.425781 163.757812 174.695312 163.335938 C 174.894531 163.019531 174.878906 162.636719 175.054688 162.300781 L 175.210938 162.480469 C 173.867188 168.058594 173.703125 173.992188 175.457031 179.496094 Z M 175.457031 179.496094 " fill-opacity="1" fill-rule="nonzero"/><path fill="#ffffff" d="M 178.019531 155.945312 L 177.902344 155.792969 C 178.207031 155.238281 178.683594 154.804688 179.117188 154.355469 L 178.890625 154.269531 C 178.695312 154.039062 178.75 153.921875 178.757812 153.640625 C 178.78125 152.777344 179.160156 152.128906 179.804688 151.554688 C 179.921875 151.449219 180.09375 151.300781 180.238281 151.246094 C 180.480469 151.152344 185.671875 150.84375 185.972656 150.882812 C 186.539062 150.957031 187.148438 151.835938 187.492188 152.273438 C 187.984375 152.898438 188.597656 152.992188 189.011719 153.472656 C 189.214844 153.707031 189.011719 153.539062 189.320312 153.757812 C 189.488281 153.878906 189.59375 153.964844 189.726562 154.117188 L 189.472656 154.207031 C 187.8125 152.917969 185.917969 152.078125 183.761719 152.335938 C 182.019531 152.546875 180.417969 153.425781 179.214844 154.679688 C 178.882812 155.027344 178.414062 155.699219 178.019531 155.945312 Z M 178.019531 155.945312 " fill-opacity="1" fill-rule="nonzero"/><path fill="#000000" d="M 183.089844 155.457031 C 183.9375 155.371094 185.15625 155.230469 185.972656 155.46875 C 187.011719 155.773438 187.859375 156.960938 188.351562 157.875 C 190.871094 162.546875 190.527344 169.996094 189.007812 174.957031 C 188.195312 177.597656 186.761719 180.644531 184.226562 181.996094 C 183.300781 182.285156 182.144531 182.367188 181.222656 182.035156 C 179.855469 181.542969 179.039062 180.238281 178.472656 178.96875 C 176.257812 173.984375 176.890625 165.996094 178.808594 161.011719 C 179.613281 158.914062 180.9375 156.40625 183.089844 155.457031 Z M 183.089844 155.457031 " fill-opacity="1" fill-rule="nonzero"/><path fill="#ffffff" d="M 220.238281 154.53125 C 220.285156 154.574219 220.332031 154.617188 220.382812 154.65625 C 220.660156 154.875 220.902344 154.910156 221.25 154.839844 C 222.070312 154.667969 222.914062 153.664062 223.617188 153.21875 C 225.824219 151.816406 229.777344 151.4375 232.125 152.59375 C 233.121094 153.082031 233.945312 153.933594 234.304688 154.992188 C 234.703125 156.191406 234.4375 157.410156 233.84375 158.492188 C 232.382812 161.167969 229.472656 163.015625 226.597656 163.808594 C 224.660156 164.34375 221.867188 164.492188 220.085938 163.449219 C 219.191406 162.925781 218.464844 162.09375 218.246094 161.0625 C 217.996094 159.875 218.503906 158.625 217.671875 157.625 C 218.726562 156.777344 219.445312 155.613281 220.238281 154.53125 Z M 220.238281 154.53125 " fill-opacity="1" fill-rule="nonzero"/><path fill="#ffffff" d="M 149.109375 156.84375 C 148.246094 158.222656 149.304688 159.691406 148.253906 161.460938 C 147.652344 162.472656 146.699219 163.070312 145.566406 163.332031 C 142.558594 164.023438 139.339844 162.96875 136.835938 161.324219 C 135.03125 160.140625 133.21875 158.402344 132.808594 156.1875 C 132.625 155.183594 132.785156 154.203125 133.402344 153.378906 C 134.257812 152.230469 135.789062 151.441406 137.191406 151.257812 C 139.40625 150.96875 142.554688 151.753906 144.296875 153.15625 C 144.753906 153.519531 145.21875 153.933594 145.78125 154.121094 C 146.144531 154.09375 146.339844 154.019531 146.65625 153.835938 C 146.6875 153.816406 146.722656 153.792969 146.753906 153.773438 C 147.464844 154.902344 148.164062 155.902344 149.109375 156.84375 Z M 149.109375 156.84375 " fill-opacity="1" fill-rule="nonzero"/><path fill="#ffffff" d="M 153.03125 123.300781 C 153.035156 123.28125 153.042969 123.257812 153.050781 123.238281 C 153.203125 122.949219 153.308594 122.742188 153.382812 122.421875 C 153.445312 122.15625 153.496094 121.945312 153.621094 121.703125 C 154.546875 119.890625 155.109375 120.835938 155.503906 120.71875 C 155.617188 120.683594 155.695312 120.460938 155.890625 120.398438 L 156.054688 120.753906 L 155.984375 120.917969 L 156.347656 121.148438 C 155.710938 121.425781 154.660156 121.710938 154.375 122.390625 C 153.9375 122.714844 153.488281 123.007812 153.03125 123.300781 Z M 153.03125 123.300781 " fill-opacity="1" fill-rule="nonzero"/><path fill="#ffffff" d="M 256.714844 176.519531 C 258.015625 178.402344 259.910156 180.710938 261.515625 182.296875 C 263.808594 184.675781 266.3125 186.84375 268.996094 188.765625 C 271.351562 190.464844 274.164062 192.019531 276.148438 194.144531 L 276.355469 193.953125 C 276.496094 193.980469 276.515625 193.976562 276.660156 194.058594 C 277.613281 194.601562 278.738281 197.050781 279.003906 198.109375 C 279.347656 199.488281 279.136719 200.871094 278.414062 202.089844 C 276.882812 204.667969 274.507812 205.914062 271.703125 206.601562 C 269.589844 207.121094 267.421875 207.546875 265.265625 207.832031 C 262.859375 208.148438 253.945312 208.871094 252.15625 207.78125 C 251.894531 206.894531 253.261719 200.992188 253.496094 199.699219 C 254.328125 195.054688 255.15625 190.351562 255.691406 185.660156 C 256.039062 182.628906 256.101562 179.511719 256.714844 176.519531 Z M 256.714844 176.519531 " fill-opacity="1" fill-rule="nonzero"/><path fill="#ffffff" d="M 261.515625 182.296875 C 263.808594 184.675781 266.3125 186.84375 268.996094 188.765625 C 271.351562 190.464844 274.164062 192.019531 276.148438 194.144531 C 276.3125 194.527344 276.671875 194.875 276.925781 195.203125 C 277.636719 196.109375 278.769531 197.457031 278.53125 198.699219 C 278.445312 199.144531 278.121094 199.457031 277.746094 199.683594 C 275.453125 201.078125 271.425781 201.167969 268.882812 200.496094 C 266.128906 199.765625 263.765625 198.058594 262.332031 195.574219 C 260.765625 192.855469 260.980469 190.269531 260.867188 187.25 C 260.820312 186.078125 260.601562 184.675781 260.84375 183.527344 C 260.957031 182.992188 261.367188 182.863281 261.515625 182.296875 Z M 261.515625 182.296875 " fill-opacity="1" fill-rule="nonzero"/><path fill="#000000" d="M 209.285156 226.128906 C 209.683594 225.816406 209.882812 225.851562 210.359375 225.835938 C 210.285156 226.527344 210.171875 227.144531 209.886719 227.789062 C 209.632812 227.375 209.449219 227.328125 209.019531 227.171875 C 209.078125 226.824219 209.195312 226.46875 209.285156 226.128906 Z M 209.285156 226.128906 " fill-opacity="1" fill-rule="nonzero"/><g clip-path="url(#696ab00b12)"><g transform="matrix(1, 0, 0, 1, 169, 148)"><g clip-path="url(#30291aef94)"><g clip-path="url(#3dff988376)"><path fill="#ffffff" d="M 0.273438 0.445312 L 29.625 0.445312 L 29.625 44.246094 L 0.273438 44.246094 Z M 0.273438 0.445312 " fill-opacity="1" fill-rule="nonzero"/></g></g></g></g><path stroke-linecap="butt" transform="matrix(0.736367, 0.142352, -0.142352, 0.736367, 151.396094, 110.345146)" fill="none" stroke-linejoin="miter" d="M 0.0021031 1.997592 L 24.277073 1.999547 " stroke="#000000" stroke-width="4" stroke-opacity="1" stroke-miterlimit="4"/><path stroke-linecap="butt" transform="matrix(0.712008, -0.235678, 0.235678, 0.712008, 200.513487, 114.462531)" fill="none" stroke-linejoin="miter" d="M -0.000664374 2.000021 L 23.513884 1.998471 " stroke="#000000" stroke-width="4" stroke-opacity="1" stroke-miterlimit="4"/><g clip-path="url(#b5dc49584b)"><g clip-path="url(#46520bdca9)"><g clip-path="url(#74c1daa184)"><g clip-path="url(#4b3d167339)"><path fill="#be1931" d="M 132.082031 84.992188 L 132.457031 82.246094 L 133.832031 82.433594 C 135.949219 82.722656 138.320312 82.929688 139.609375 81.707031 C 140.613281 80.757812 141.007812 78.910156 140.785156 76.21875 L 140.667969 74.839844 L 143.429688 74.609375 L 143.546875 75.988281 C 143.847656 79.609375 143.183594 82.136719 141.515625 83.71875 C 139.152344 85.960938 135.445312 85.453125 133.453125 85.179688 Z M 138.769531 100.570312 L 138.957031 99.195312 C 139.246094 97.078125 139.453125 94.707031 138.230469 93.417969 C 137.28125 92.414062 135.433594 92.019531 132.742188 92.242188 L 131.363281 92.359375 L 131.132812 89.597656 L 132.511719 89.480469 C 136.132812 89.179688 138.660156 89.839844 140.242188 91.511719 C 142.484375 93.875 141.976562 97.582031 141.703125 99.574219 L 141.515625 100.945312 Z M 146.117188 101.894531 L 146.003906 100.511719 C 145.703125 96.894531 146.367188 94.367188 148.035156 92.785156 C 150.394531 90.542969 154.101562 91.050781 156.09375 91.324219 L 157.46875 91.511719 L 157.09375 94.257812 L 155.71875 94.070312 C 153.597656 93.777344 151.230469 93.574219 149.941406 94.796875 C 148.9375 95.746094 148.542969 97.59375 148.765625 100.28125 L 148.878906 101.664062 Z M 150.144531 85.71875 C 149.839844 85.503906 149.5625 85.261719 149.308594 84.996094 C 147.066406 82.632812 147.574219 78.925781 147.847656 76.933594 L 148.035156 75.558594 L 150.78125 75.9375 L 150.59375 77.308594 C 150.304688 79.429688 150.097656 81.796875 151.320312 83.085938 C 152.269531 84.089844 154.117188 84.488281 156.808594 84.261719 L 158.1875 84.148438 L 158.417969 86.910156 L 157.039062 87.023438 C 154 87.277344 151.730469 86.847656 150.144531 85.71875 Z M 150.144531 85.71875 " fill-opacity="1" fill-rule="nonzero"/></g></g></g></g><path stroke-linecap="butt" transform="matrix(0.74935, -0.031213, 0.031213, 0.74935, 169.747537, 157.176081)" fill="none" stroke-linejoin="miter" d="M 1.723379 16.523138 C 13.174558 -2.839987 24.632498 -2.842307 36.086358 16.526153 " stroke="#000000" stroke-width="4" stroke-opacity="1" stroke-miterlimit="4"/><g clip-path="url(#b48f6f5b18)"><path fill="#c4bdb5" d="M 280.917969 142.53125 C 280.917969 142.53125 282.101562 131.527344 278.496094 109.019531 C 278.414062 108.574219 278.074219 108.183594 277.625 108.128906 C 276.976562 108.046875 276.441406 108.546875 276.441406 109.15625 L 276.894531 137.417969 C 276.894531 137.972656 276.441406 138.445312 275.878906 138.445312 C 275.34375 138.445312 274.894531 138.027344 274.863281 137.472656 L 273.796875 108.769531 C 273.796875 108.433594 273.542969 108.15625 273.203125 108.128906 C 272.835938 108.101562 272.5 108.378906 272.5 108.742188 L 271.964844 137.277344 C 271.964844 137.863281 271.515625 138.363281 270.949219 138.417969 C 270.273438 138.472656 269.710938 137.972656 269.710938 137.335938 L 269.203125 108.796875 C 269.203125 108.460938 268.953125 108.183594 268.640625 108.15625 C 268.277344 108.128906 267.9375 108.40625 267.9375 108.769531 L 266.894531 137.472656 C 266.867188 137.945312 266.53125 138.363281 266.078125 138.445312 C 265.429688 138.558594 264.867188 138.058594 264.867188 137.445312 L 265.289062 109.214844 C 265.289062 108.683594 264.925781 108.210938 264.417969 108.128906 C 263.855469 108.046875 263.347656 108.433594 263.261719 108.992188 C 259.601562 131.527344 260.8125 142.53125 260.8125 142.53125 C 261.125 146.117188 263.066406 147.894531 264.613281 148.753906 C 266.8125 149.976562 268.21875 152.3125 268.191406 154.8125 C 268.191406 154.839844 268.191406 154.839844 268.191406 154.867188 L 268.078125 167.375 C 267.882812 173.679688 266.304688 184.351562 265.234375 190.742188 C 264.8125 193.328125 264.304688 195.882812 263.769531 198.441406 C 260.839844 212.417969 267.375 213.613281 269.910156 213.558594 C 270.558594 213.558594 271.175781 213.558594 271.824219 213.558594 C 274.359375 213.613281 280.890625 212.417969 277.933594 198.441406 C 277.398438 195.882812 276.894531 193.328125 276.46875 190.742188 C 275.429688 184.324219 273.824219 173.652344 273.625 167.375 L 273.511719 154.867188 C 273.511719 154.839844 273.511719 154.839844 273.511719 154.8125 C 273.511719 152.3125 274.894531 149.976562 277.089844 148.753906 C 278.667969 147.894531 280.609375 146.117188 280.917969 142.53125 Z M 280.917969 142.53125 " fill-opacity="1" fill-rule="nonzero"/></g><path fill="#939393" d="M 277.597656 108.128906 C 278.046875 108.183594 278.414062 108.574219 278.46875 109.019531 C 280.890625 123.96875 281.171875 133.832031 281.089844 138.78125 C 281.171875 128.609375 277.597656 108.128906 277.597656 108.128906 Z M 264.839844 137.417969 L 265.289062 109.214844 C 265.289062 108.683594 264.925781 108.210938 264.417969 108.128906 Z M 269.710938 137.335938 L 269.203125 108.796875 C 269.203125 108.460938 268.953125 108.183594 268.640625 108.15625 Z M 274.863281 137.472656 L 273.796875 108.769531 C 273.796875 108.433594 273.542969 108.15625 273.203125 108.128906 Z M 274.863281 137.472656 " fill-opacity="1" fill-rule="nonzero"/><path fill="#e0e0e0" d="M 268.191406 154.8125 C 268.191406 152.3125 266.8125 149.976562 264.613281 148.753906 L 277.117188 148.753906 C 274.894531 149.976562 273.511719 152.3125 273.542969 154.8125 Z M 275.683594 197.578125 C 275.683594 197.578125 272.132812 179.601562 272.273438 172.402344 L 272.273438 157.675781 C 272.273438 156.898438 271.625 156.257812 270.839844 156.257812 C 270.050781 156.257812 269.402344 156.898438 269.402344 157.675781 L 269.402344 172.402344 C 269.542969 179.570312 265.996094 197.578125 265.996094 197.578125 C 262.867188 212.554688 270.808594 211.945312 270.808594 211.945312 C 270.808594 211.945312 278.808594 212.554688 275.683594 197.578125 Z M 275.683594 197.578125 " fill-opacity="0.68" fill-rule="nonzero"/><path fill="#b5afa9" d="M 264.613281 148.753906 C 263.066406 147.894531 261.125 146.117188 260.8125 142.53125 L 280.917969 142.53125 C 280.609375 146.117188 278.667969 147.894531 277.117188 148.753906 Z M 270.867188 211.945312 C 270.867188 211.945312 278.808594 212.554688 275.683594 197.578125 C 275.683594 197.578125 272.132812 179.601562 272.273438 172.402344 L 272.273438 157.675781 C 272.273438 156.898438 271.625 156.257812 270.839844 156.257812 C 270.839844 156.257812 271.910156 156.8125 271.910156 157.703125 L 271.910156 172.375 C 271.910156 172.375 271.964844 176.097656 272.160156 177.433594 C 272.160156 177.433594 273.316406 186.492188 273.457031 187.410156 L 274.613281 194.273438 L 275.597656 200.191406 C 275.625 200.21875 276.949219 210.804688 270.867188 211.945312 Z M 270.867188 211.945312 " fill-opacity="1" fill-rule="nonzero"/><g clip-path="url(#6830feda1e)"><g clip-path="url(#47dc40d892)"><g transform="matrix(1, 0, 0, 1, 79, 103)"><g clip-path="url(#fad17d4900)"><g clip-path="url(#e52996fab5)"><g clip-path="url(#4e652018a7)"><g clip-path="url(#44394778cd)"><path fill="#e0e0e0" d="M 9.785156 58.976562 L 4.898438 58.75 C 3.671875 58.695312 2.726562 57.65625 2.792969 56.1875 L 5.277344 2.28125 C 5.3125 1.449219 6.546875 0.820312 7.425781 1.453125 C 12.796875 5.304688 15.601562 13.210938 14.972656 26.878906 L 13.65625 55.441406 C 13.636719 55.933594 13.519531 56.398438 13.3125 56.84375 C 13.101562 57.289062 12.816406 57.679688 12.453125 58.007812 C 12.089844 58.339844 11.679688 58.589844 11.214844 58.757812 C 10.753906 58.925781 10.277344 59 9.785156 58.976562 Z M 9.785156 58.976562 " fill-opacity="1" fill-rule="nonzero"/></g></g></g><g clip-path="url(#6aa0871257)"><g clip-path="url(#801721cb51)"><g clip-path="url(#a2728f75b0)"><path fill="#c4bdb5" d="M 10.566406 73.210938 C 10.746094 69.320312 10.917969 65.609375 11.875 62.871094 C 12.941406 59.832031 12.699219 55.789062 12.699219 55.789062 L 3.90625 56.488281 C 4.480469 63.050781 4.550781 69.617188 4.121094 76.191406 C 3.59375 83.441406 2.667969 90.417969 1.734375 98.3125 C 1.429688 100.890625 2.09375 103.96875 5.265625 104.117188 L 6.796875 104.1875 C 9.738281 104.320312 11.574219 102.625 11.667969 98.828125 C 11.796875 93.382812 10.050781 84.476562 10.566406 73.210938 Z M 10.566406 73.210938 " fill-opacity="1" fill-rule="nonzero"/></g></g></g><g clip-path="url(#24c22d158d)"><g clip-path="url(#f505d219a0)"><g clip-path="url(#e4b9792ec1)"><path fill="#e0e0e0" d="M 9.445312 73.15625 C 9.625 69.269531 9.792969 65.558594 10.75 62.820312 C 11.8125 59.78125 11.574219 55.738281 11.574219 55.738281 L 2.78125 56.433594 C 3.351562 62.996094 3.425781 69.566406 2.996094 76.140625 C 2.46875 83.390625 1.542969 90.367188 0.605469 98.261719 C 0.300781 100.839844 0.96875 103.917969 4.136719 104.0625 L 5.667969 104.132812 C 8.613281 104.269531 10.453125 102.574219 10.542969 98.777344 C 10.671875 93.332031 8.925781 84.421875 9.445312 73.15625 Z M 9.445312 73.15625 " fill-opacity="1" fill-rule="nonzero"/></g></g></g><g clip-path="url(#9302d28d2f)"><g clip-path="url(#c5c85cfe70)"><g clip-path="url(#58fc095352)"><path fill="#c4bdb5" d="M 7.425781 1.453125 C 7.042969 1.179688 6.628906 1.125 6.1875 1.289062 C 6.1875 1.289062 12.554688 6.46875 12.609375 18.800781 C 12.664062 31.132812 11.492188 56.605469 10.765625 58.890625 C 11.160156 58.800781 11.535156 58.652344 11.882812 58.441406 C 12.230469 58.226562 12.535156 57.96875 12.796875 57.65625 C 13.058594 57.34375 13.261719 57 13.410156 56.621094 C 13.558594 56.242188 13.644531 55.847656 13.664062 55.441406 L 14.976562 26.878906 C 15.605469 13.210938 12.796875 5.304688 7.425781 1.453125 Z M 7.425781 1.453125 " fill-opacity="1" fill-rule="nonzero"/></g></g></g><g clip-path="url(#1241cd80d4)"><g clip-path="url(#001a1ac02d)"><g clip-path="url(#2207b39aec)"><path fill="#c4bdb5" d="M 2.882812 54.28125 L 2.78125 56.433594 C 2.773438 56.632812 2.792969 56.824219 2.835938 57.015625 C 2.871094 57.425781 2.921875 58.042969 2.972656 58.828125 L 11.476562 59.222656 C 11.488281 59.019531 11.515625 58.820312 11.53125 58.628906 C 12.15625 58.335938 12.660156 57.90625 13.046875 57.332031 C 13.429688 56.761719 13.636719 56.128906 13.671875 55.441406 L 13.699219 54.777344 C 13.699219 54.777344 11.964844 55.507812 7.5625 55.304688 C 4.085938 55.144531 2.882812 54.28125 2.882812 54.28125 Z M 2.882812 54.28125 " fill-opacity="1" fill-rule="nonzero"/></g></g></g></g></g></g></g></svg>