<svg xmlns="http://www.w3.org/2000/svg" xmlns:xlink="http://www.w3.org/1999/xlink" width="480" zoomAndPan="magnify" viewBox="0 0 360 359.999987" height="480" preserveAspectRatio="xMidYMid meet" version="1.0"><defs><clipPath id="6e5eae4d12"><path d="M 73.78125 58.289062 L 286 58.289062 L 286 302 L 73.78125 302 Z M 73.78125 58.289062 " clip-rule="nonzero"/></clipPath></defs><g clip-path="url(#6e5eae4d12)"><path fill="#000000" d="M 175.105469 58.441406 C 175.226562 58.4375 175.34375 58.433594 175.460938 58.429688 C 181.824219 58.289062 189.199219 58.851562 195.449219 60.175781 C 197.644531 60.640625 199.835938 61.355469 202.003906 61.957031 C 204.667969 62.691406 207.371094 63.375 209.984375 64.289062 C 217.628906 67.019531 224.589844 71.375 230.390625 77.058594 C 238.109375 84.539062 243.355469 92.726562 247.78125 102.464844 C 248.472656 103.984375 249.277344 105.441406 249.894531 106.992188 C 255.324219 120.636719 258.144531 136.273438 259.164062 150.886719 C 259.421875 154.847656 259.5625 158.8125 259.582031 162.78125 C 259.589844 164.414062 259.484375 166.046875 259.519531 167.675781 C 259.566406 169.851562 261.191406 173.664062 262.570312 175.359375 C 263.464844 176.457031 264.59375 177.378906 265.667969 178.300781 C 270.0625 182.085938 275.097656 185.046875 279.308594 189.058594 C 282.230469 191.839844 285.785156 194.90625 285.859375 199.242188 C 285.90625 201.808594 285.289062 204.03125 283.464844 205.90625 C 281.410156 208.019531 279.273438 208.964844 276.578125 209.996094 C 268.601562 213.050781 261.199219 212.992188 252.820312 213.046875 C 252.402344 214.726562 251.800781 216.355469 251.3125 218.015625 C 250.246094 221.652344 249.257812 225.457031 248.601562 229.191406 C 247.597656 234.894531 247.265625 240.859375 246.9375 246.636719 C 246.675781 251.195312 246.390625 255.710938 246.363281 260.28125 C 246.34375 263.996094 246.617188 267.734375 246.496094 271.445312 C 246.320312 276.660156 245.507812 283.433594 241.476562 287.132812 C 238.394531 289.957031 235.03125 289.882812 231.132812 289.230469 C 229.453125 288.949219 227.785156 288.625 226.214844 287.929688 C 224.851562 287.332031 223.609375 286.292969 222.308594 285.550781 C 219.375 283.878906 214.214844 282.003906 210.847656 281.878906 C 209.734375 281.835938 208.582031 281.863281 207.515625 282.214844 C 206.316406 282.613281 205.273438 283.378906 204.296875 284.160156 C 201.058594 286.746094 199.128906 289.570312 196.675781 292.796875 C 195.835938 293.902344 194.902344 294.933594 194.039062 296.019531 C 193.179688 297.097656 192.359375 298.285156 191.347656 299.21875 C 188.949219 301.429688 184.621094 302.03125 181.496094 301.875 C 174.753906 301.527344 169.773438 295.730469 165.570312 291.070312 C 164.394531 289.714844 163.117188 288.453125 161.746094 287.289062 C 160.164062 285.941406 158.359375 285.066406 156.460938 284.261719 C 154.398438 283.386719 152.441406 283.039062 150.207031 282.933594 C 145.449219 282.71875 142 284.03125 137.703125 285.871094 C 136.207031 286.511719 134.683594 287.109375 133.203125 287.78125 C 129.3125 289.550781 126.347656 290.992188 121.9375 291.339844 C 119.871094 291.503906 117.613281 291.230469 115.714844 290.371094 C 108.753906 287.226562 109.570312 277.851562 105.890625 272.164062 C 104.453125 269.9375 102.152344 268.152344 99.890625 266.824219 C 96.925781 265.082031 93.496094 263.625 90.132812 262.914062 C 85.707031 261.976562 80.738281 263.066406 76.871094 259.695312 C 75.730469 258.699219 74.867188 257.289062 74.792969 255.746094 C 74.730469 254.367188 75.136719 252.90625 75.628906 251.628906 C 77.648438 246.390625 81.109375 245.070312 85.300781 241.929688 C 87.117188 240.566406 88.941406 238.960938 90.425781 237.238281 C 96.898438 229.75 104.816406 216.308594 104.132812 206.144531 C 101.363281 206.171875 98.617188 206.128906 95.871094 205.742188 C 90.050781 204.929688 83.710938 202.441406 79.355469 198.417969 C 76.503906 195.78125 74.078125 192.355469 73.925781 188.335938 C 73.914062 188.097656 73.914062 187.855469 73.921875 187.613281 C 74 185.542969 74.886719 183.914062 76.296875 182.445312 C 81.84375 176.667969 100.410156 173.148438 102.984375 169.527344 C 104.046875 168.035156 104.804688 162.292969 104.890625 160.355469 C 104.96875 158.585938 104.839844 156.785156 104.792969 155.015625 C 104.699219 151.261719 104.578125 147.46875 104.699219 143.71875 C 105.425781 120.804688 111.265625 97.664062 127.074219 80.390625 C 139.699219 66.601562 156.542969 59.265625 175.105469 58.441406 Z M 211.234375 227.171875 C 211.664062 227.328125 211.847656 227.375 212.101562 227.789062 C 212.386719 227.144531 212.5 226.527344 212.574219 225.835938 C 212.097656 225.851562 211.898438 225.816406 211.5 226.128906 C 211.410156 226.46875 211.292969 226.824219 211.234375 227.171875 Z M 211.234375 227.171875 " fill-opacity="1" fill-rule="nonzero"/></g><path fill="#ffffff" d="M 169.789062 63.109375 C 173.507812 62.617188 177.179688 62.167969 180.941406 62.203125 C 188.640625 62.277344 195.324219 63.828125 202.664062 65.984375 C 204.0625 66.394531 205.578125 66.640625 206.929688 67.179688 C 208.007812 67.609375 209.050781 68.21875 210.105469 68.714844 C 214.71875 70.875 219.027344 73.167969 223.070312 76.296875 C 226.199219 78.71875 229.859375 81.726562 232.464844 84.664062 C 243.90625 97.554688 251.5625 118.738281 253.679688 135.648438 C 253.960938 137.882812 254.320312 140.125 254.527344 142.367188 C 255.652344 154.316406 255.421875 166.285156 254.519531 178.242188 C 254.367188 180.238281 254.050781 182.21875 253.828125 184.207031 C 252.71875 193.515625 251.15625 202.765625 249.132812 211.917969 C 248.832031 213.285156 248.402344 214.617188 248.066406 215.976562 C 247.289062 219.132812 246.578125 222.308594 245.941406 225.5 C 245.292969 228.890625 244.867188 232.304688 244.425781 235.726562 C 243.515625 242.757812 242.867188 249.703125 242.628906 256.789062 C 242.523438 259.554688 242.453125 262.320312 242.414062 265.085938 C 242.375 269.804688 242.917969 279.511719 239.90625 283.316406 C 239.496094 283.832031 238.941406 284.175781 238.5 284.648438 C 236.753906 285.09375 234.820312 285.867188 232.996094 285.699219 C 231.882812 285.601562 231.023438 284.980469 230.011719 284.582031 C 229.457031 284.363281 228.839844 284.367188 228.285156 284.136719 C 226.515625 283.402344 224.773438 282.269531 223.070312 281.371094 C 217.160156 278.265625 211.203125 276.53125 204.8125 279.378906 C 205.570312 275.515625 206.222656 271.636719 206.765625 267.742188 C 207.078125 265.609375 207.558594 261.402344 208.210938 259.511719 C 208.359375 257.617188 208.691406 255.710938 208.921875 253.820312 C 209.636719 247.957031 210.5 242.113281 211.195312 236.246094 C 211.492188 233.738281 211.902344 231.382812 211.957031 228.84375 L 212.101562 227.789062 C 212.386719 227.144531 212.5 226.527344 212.574219 225.835938 C 212.097656 225.851562 211.898438 225.816406 211.5 226.128906 C 211.410156 226.46875 211.292969 226.824219 211.234375 227.171875 C 210.859375 230.8125 209.949219 234.363281 209.320312 237.96875 C 207.441406 248.714844 205.320312 259.410156 203.523438 270.171875 C 202.894531 273.949219 201.984375 277.773438 201.609375 281.585938 C 200.039062 283.328125 198.195312 284.789062 196.671875 286.582031 C 194.402344 289.257812 191.378906 294.359375 188.707031 296.246094 C 187.949219 296.78125 186.949219 297.066406 186.132812 297.527344 C 184.390625 298.511719 181.417969 298.40625 179.535156 297.847656 C 176.675781 296.996094 173.550781 294.703125 171.738281 292.351562 C 171.253906 291.722656 170.964844 290.960938 170.480469 290.339844 C 170.144531 289.910156 169.730469 289.539062 169.371094 289.132812 C 168.328125 287.945312 167.3125 286.636719 166.410156 285.339844 C 164.226562 283.035156 161.65625 281.394531 158.792969 280.082031 C 159.167969 277.949219 160.015625 275.800781 160.660156 273.738281 C 161.773438 270.238281 162.800781 266.707031 163.742188 263.15625 C 164.804688 258.996094 165.832031 254.761719 166.621094 250.542969 C 166.855469 249.273438 167.09375 247.988281 167.273438 246.710938 C 167.378906 245.957031 167.335938 245.210938 167.527344 244.464844 L 167.765625 244.058594 L 167.648438 243.890625 C 167.367188 244.003906 167.164062 244.078125 167.03125 244.375 C 166.53125 245.488281 166.410156 246.761719 165.90625 247.914062 C 165.511719 249.585938 164.980469 251.21875 164.539062 252.875 C 162.414062 260.957031 159.878906 268.917969 156.941406 276.738281 C 156.738281 277.511719 156.441406 278.238281 156.144531 278.980469 C 150.050781 278.890625 144.019531 279.339844 138.15625 281.074219 C 136.199219 281.898438 134.285156 282.75 132.34375 283.605469 C 132.015625 283.851562 131.691406 284.03125 131.324219 284.214844 C 129.585938 285.1875 127.585938 286 125.707031 286.660156 C 123.234375 287.53125 119.644531 288.230469 117.183594 286.988281 C 112.523438 284.636719 112.3125 277.15625 110.917969 272.773438 C 112.144531 270.710938 113.902344 268.753906 115.328125 266.804688 C 115.546875 266.492188 115.796875 266.203125 116.042969 265.910156 C 116.449219 264.949219 117.992188 262.820312 118.6875 261.957031 C 119.644531 260.328125 120.664062 258.738281 121.738281 257.183594 C 122.253906 255.851562 123.292969 254.519531 123.984375 253.253906 C 125.652344 250.195312 127.292969 247.078125 128.792969 243.933594 C 130.097656 241.199219 131.183594 238.316406 132.285156 235.496094 C 132.761719 234.273438 133.132812 232.902344 133.753906 231.757812 L 133.847656 231.335938 L 133.710938 231.230469 C 133.273438 231.367188 132.902344 231.773438 132.703125 232.179688 C 131.292969 235.074219 130.035156 238.050781 128.546875 240.910156 C 124.578125 248.429688 120.082031 255.65625 115.097656 262.539062 C 114.0625 263.984375 112.980469 265.386719 111.914062 266.804688 C 111.1875 267.773438 110.496094 268.839844 109.65625 269.710938 C 109.617188 269.675781 109.582031 269.644531 109.546875 269.609375 C 108.757812 268.863281 108.136719 267.945312 107.460938 267.101562 C 106.375 265.742188 104.949219 264.535156 103.460938 263.636719 C 101.484375 262.445312 97.957031 260.777344 95.730469 260.167969 C 92.71875 259.347656 89.484375 258.8125 86.390625 258.394531 C 84.675781 258.164062 82.941406 258.117188 81.253906 257.691406 C 80.269531 257.445312 79.066406 257.171875 78.421875 256.335938 C 78.226562 255.667969 78.324219 254.992188 78.488281 254.324219 C 78.707031 253.429688 79.238281 252.644531 79.882812 251.996094 C 81.480469 250.378906 83.566406 249.164062 85.328125 247.714844 C 89.34375 244.441406 92.980469 240.730469 96.171875 236.644531 C 97.066406 235.488281 97.730469 234.148438 98.496094 232.898438 C 102.460938 226.425781 105.679688 219.617188 107.253906 212.148438 C 107.628906 210.394531 107.726562 208.59375 107.867188 206.8125 C 111.878906 206.480469 116.910156 204.652344 120.308594 202.589844 C 121.453125 202.007812 122.390625 201.230469 123.199219 200.234375 C 122.558594 199.570312 120.917969 200.40625 120.152344 200.691406 C 114.632812 202.738281 108.695312 203.289062 102.835938 203.097656 C 95.527344 202.859375 85.898438 200.339844 80.875 194.847656 C 79.429688 193.269531 78.382812 191.433594 78.476562 189.234375 C 78.757812 183.261719 85.078125 181.378906 89.773438 179.890625 C 92.132812 179.140625 94.535156 178.417969 96.820312 177.453125 C 101.304688 175.558594 105.359375 173.144531 109.007812 169.898438 C 112.472656 166.816406 115.28125 162.753906 117.257812 158.578125 C 117.816406 157.398438 118.097656 155.890625 118.75 154.792969 C 118.769531 154.757812 118.792969 154.722656 118.816406 154.691406 C 118.800781 154.398438 118.765625 154.136719 118.695312 153.847656 C 118.355469 153.707031 118.328125 153.804688 118 153.9375 C 115.644531 158.085938 113.050781 161.722656 109.398438 164.835938 C 109.386719 161.699219 109.484375 158.5625 109.480469 155.425781 C 109.472656 139.949219 109.652344 126.453125 114.546875 111.558594 C 117.035156 103.992188 119.863281 98.140625 124.347656 91.554688 C 131.914062 80.453125 143.054688 71.191406 155.757812 66.652344 C 160.46875 64.972656 164.90625 64.03125 169.789062 63.109375 Z M 169.789062 63.109375 " fill-opacity="1" fill-rule="nonzero"/><path fill="#ffffff" d="M 109.398438 164.835938 C 109.386719 161.699219 109.484375 158.5625 109.480469 155.425781 C 109.472656 139.949219 109.652344 126.453125 114.546875 111.558594 C 117.035156 103.992188 119.863281 98.140625 124.347656 91.554688 C 131.914062 80.453125 143.054688 71.191406 155.757812 66.652344 C 160.46875 64.972656 164.90625 64.03125 169.789062 63.109375 C 169.964844 63.226562 170.03125 63.238281 170.125 63.429688 C 170.394531 63.972656 170.746094 64.429688 171.328125 64.605469 L 171.464844 64.832031 C 171.203125 65.425781 170.777344 65.585938 170.195312 65.8125 C 168.234375 66.566406 164.941406 66.4375 163.304688 67.527344 C 162.753906 67.894531 161.886719 67.933594 161.253906 68.144531 C 159.96875 68.570312 158.488281 69.242188 157.292969 69.871094 C 154.699219 71.242188 151.902344 72.886719 149.703125 74.839844 C 148.441406 75.957031 147.371094 77.285156 146 78.273438 C 144.464844 79.378906 142.375 80.078125 141.085938 81.449219 C 140.546875 82.023438 140.210938 83.105469 139.835938 83.824219 C 140.074219 84.027344 140.265625 84.011719 140.5625 83.96875 C 142.144531 83.753906 142.132812 82.777344 143.199219 81.9375 C 143.769531 81.488281 144.496094 81.242188 145.105469 80.847656 C 145.484375 80.605469 145.792969 80.285156 146.179688 80.050781 C 147.496094 79.238281 149.71875 78.527344 151.234375 78.953125 C 152.570312 79.324219 153.871094 79.144531 154.976562 80.089844 C 155.929688 80.90625 156.738281 81.542969 156.863281 82.894531 C 157.210938 86.597656 153.792969 90.234375 151.671875 92.875 C 151.210938 93.449219 150.882812 94.144531 150.40625 94.6875 C 149.507812 95.707031 148.191406 96.324219 147.160156 97.183594 C 145.515625 98.5625 144.207031 100.390625 142.546875 101.707031 C 141.335938 102.667969 140.015625 102.878906 138.675781 103.527344 C 137.761719 103.964844 137.003906 104.757812 136.207031 105.144531 C 135.628906 105.425781 134.542969 105.515625 133.898438 105.515625 C 133.765625 105.515625 133.726562 105.503906 133.609375 105.484375 L 133.898438 105.335938 C 132.886719 105.316406 131.960938 105.277344 131.195312 104.523438 C 130.425781 103.769531 130.195312 102.613281 130.214844 101.574219 C 130.226562 100.722656 130.449219 99.820312 130.761719 99.03125 C 131.675781 96.746094 132.28125 94.238281 133.949219 92.378906 C 134.1875 92.109375 134.453125 91.542969 134.359375 91.171875 C 134.34375 91.109375 134.304688 91.054688 134.277344 90.996094 C 133.96875 90.902344 133.808594 90.925781 133.515625 91.070312 C 132.878906 91.386719 132.289062 92.09375 131.859375 92.660156 C 130.949219 93.875 130.277344 95.277344 129.492188 96.578125 C 128.757812 97.796875 127.914062 98.980469 127.3125 100.277344 C 126.335938 102.371094 125.1875 105.304688 124.574219 107.546875 C 124.324219 108.460938 124.1875 109.4375 123.882812 110.335938 C 123.5 111.453125 122.871094 112.207031 122.765625 113.453125 C 122.976562 113.71875 123.152344 113.734375 123.476562 113.769531 C 124.980469 113.933594 126.636719 113.367188 127.75 114.691406 C 128.253906 115.292969 128.484375 116.148438 128.398438 116.925781 C 128.359375 117.269531 128.292969 117.621094 128.167969 117.941406 C 127.9375 118.550781 127.882812 118.832031 128.03125 119.453125 C 128.257812 120.425781 127.074219 123.070312 126.535156 123.890625 C 125.929688 124.8125 124.964844 125.585938 123.871094 125.800781 C 123.179688 125.9375 122.15625 125.785156 121.59375 125.335938 C 120.957031 124.828125 120.960938 123.816406 120.335938 123.308594 C 120.039062 123.339844 119.9375 123.457031 119.761719 123.6875 C 119.515625 124 119.34375 124.375 119.246094 124.757812 C 118.386719 128.179688 118.113281 132.628906 117.761719 136.171875 C 117.542969 138.429688 117.1875 140.652344 117.082031 142.925781 C 117.015625 144.324219 117.042969 148.074219 117.261719 149.375 C 117.5 150.800781 118.316406 152.488281 118 153.9375 C 115.644531 158.085938 113.050781 161.722656 109.398438 164.835938 Z M 109.398438 164.835938 " fill-opacity="1" fill-rule="nonzero"/><path fill="#ffffff" d="M 113.058594 210.378906 C 113.539062 210.246094 113.800781 210.105469 114.285156 210.28125 C 114.59375 210.675781 114.558594 211.347656 114.488281 211.828125 C 114.242188 213.566406 113.167969 217.890625 112.308594 219.335938 C 111.675781 220.390625 111.511719 221.734375 111.078125 222.894531 C 110.113281 225.453125 108.964844 228.203125 107.648438 230.601562 C 106.96875 231.839844 105.847656 232.804688 105.09375 233.984375 C 104.210938 235.367188 103.800781 236.992188 102.789062 238.308594 C 101.503906 239.988281 99.925781 241.273438 98.484375 242.777344 C 97.46875 243.839844 96.769531 245.253906 95.746094 246.355469 C 94.804688 247.367188 93.792969 248.394531 92.742188 249.285156 C 91.960938 249.945312 91.085938 250.53125 90.355469 251.246094 C 89.332031 252.246094 88.503906 253.617188 87.332031 254.429688 C 86.71875 254.855469 85.75 255.074219 85.035156 255.253906 C 83.917969 255.535156 80.242188 256.34375 79.273438 256.335938 C 78.988281 256.332031 78.707031 256.339844 78.421875 256.335938 C 78.226562 255.667969 78.324219 254.992188 78.488281 254.324219 C 78.707031 253.429688 79.238281 252.644531 79.882812 251.996094 C 81.480469 250.378906 83.566406 249.164062 85.328125 247.714844 C 89.34375 244.441406 92.980469 240.730469 96.171875 236.644531 C 97.066406 235.488281 97.730469 234.148438 98.496094 232.898438 C 102.460938 226.425781 105.679688 219.617188 107.253906 212.148438 C 109.558594 211.613281 110.859375 211.429688 113.058594 210.378906 Z M 113.058594 210.378906 " fill-opacity="1" fill-rule="nonzero"/><path fill="#ffffff" d="M 118.816406 154.691406 L 119.238281 154.425781 C 119.667969 154.601562 119.878906 154.753906 120.058594 155.195312 C 120.867188 157.1875 119.949219 161.035156 119.0625 162.984375 C 118.074219 165.164062 116.785156 167.328125 115.363281 169.257812 C 114.570312 170.332031 113.574219 171.3125 112.671875 172.296875 C 110.199219 174.992188 107.738281 177.53125 104.789062 179.714844 C 104.222656 180.132812 103.59375 180.390625 103.019531 180.777344 C 102.53125 181.105469 102.199219 181.648438 101.722656 181.992188 C 100.953125 182.542969 99.589844 182.953125 98.695312 183.28125 C 97.769531 183.621094 96.8125 183.882812 95.898438 184.25 C 94.78125 184.691406 93.664062 185.300781 92.511719 185.625 C 91.296875 185.96875 89.550781 185.90625 88.523438 186.625 C 87.269531 187.5 85.101562 188.300781 84.074219 189.21875 C 82.972656 190.203125 82.652344 192.265625 81.511719 193.058594 C 81.25 193.234375 80.839844 193.269531 80.535156 193.316406 C 79.59375 192.042969 79.347656 190.503906 78.476562 189.234375 C 78.757812 183.261719 85.078125 181.378906 89.773438 179.890625 C 92.132812 179.140625 94.535156 178.417969 96.820312 177.453125 C 101.304688 175.558594 105.359375 173.144531 109.007812 169.898438 C 112.472656 166.816406 115.28125 162.753906 117.257812 158.578125 C 117.816406 157.398438 118.097656 155.890625 118.75 154.792969 C 118.769531 154.757812 118.792969 154.722656 118.816406 154.691406 Z M 118.816406 154.691406 " fill-opacity="1" fill-rule="nonzero"/><path fill="#ffffff" d="M 78.476562 189.234375 C 79.347656 190.503906 79.59375 192.042969 80.535156 193.316406 C 81.410156 194.359375 83.296875 194.757812 84.554688 195.21875 C 86.0625 195.773438 87.542969 196.421875 89.058594 196.9375 C 92.222656 198.023438 95.738281 198.726562 99.0625 199.027344 C 103.988281 199.46875 109.3125 199.332031 114.152344 198.34375 C 115.683594 198.03125 117.277344 197.664062 118.765625 197.207031 C 120.722656 196.605469 125.167969 194.699219 127.003906 194.898438 L 127.113281 195.054688 C 126.796875 196.289062 124.257812 199.367188 123.199219 200.234375 C 122.558594 199.570312 120.917969 200.40625 120.152344 200.691406 C 114.632812 202.738281 108.695312 203.289062 102.835938 203.097656 C 95.527344 202.859375 85.898438 200.339844 80.875 194.847656 C 79.429688 193.269531 78.382812 191.433594 78.476562 189.234375 Z M 78.476562 189.234375 " fill-opacity="1" fill-rule="nonzero"/><path fill="#ffffff" d="M 115.328125 266.804688 C 115.582031 269.128906 115.121094 271.199219 114.992188 273.503906 C 114.804688 276.902344 115.722656 280.46875 118.441406 282.714844 C 122.550781 286.117188 126.953125 283.617188 131.324219 284.214844 C 129.585938 285.1875 127.585938 286 125.707031 286.660156 C 123.234375 287.53125 119.644531 288.230469 117.183594 286.988281 C 112.523438 284.636719 112.3125 277.15625 110.917969 272.773438 C 112.144531 270.710938 113.902344 268.753906 115.328125 266.804688 Z M 115.328125 266.804688 " fill-opacity="1" fill-rule="nonzero"/><path fill="#ffffff" d="M 167.527344 244.464844 C 167.914062 244.792969 168.109375 245.007812 168.15625 245.546875 C 168.320312 247.375 166.925781 259.191406 166.410156 260.929688 C 166.027344 262.222656 165.300781 264.226562 164.738281 265.445312 C 164.253906 266.488281 163.644531 267.46875 163.183594 268.523438 C 162.066406 271.085938 161.242188 274.601562 162.457031 277.273438 C 162.714844 277.839844 163.121094 278.320312 163.472656 278.828125 C 163.917969 279.464844 164.339844 280.273438 164.921875 280.792969 C 165.726562 281.507812 167.035156 282.125 167.226562 283.316406 C 167.285156 283.699219 167.21875 284.363281 166.976562 284.675781 L 166.375 284.628906 L 166.25 284.738281 C 166.390625 284.925781 166.589844 285.085938 166.566406 285.324219 L 166.410156 285.339844 C 164.226562 283.035156 161.65625 281.394531 158.792969 280.082031 C 159.167969 277.949219 160.015625 275.800781 160.660156 273.738281 C 161.773438 270.238281 162.800781 266.707031 163.742188 263.15625 C 164.804688 258.996094 165.832031 254.761719 166.621094 250.542969 C 166.855469 249.273438 167.09375 247.988281 167.273438 246.710938 C 167.378906 245.957031 167.335938 245.210938 167.527344 244.464844 Z M 167.527344 244.464844 " fill-opacity="1" fill-rule="nonzero"/><path fill="#ffffff" d="M 211.957031 228.84375 L 212.101562 228.773438 C 212.320312 229.40625 212.597656 229.882812 212.609375 230.566406 C 212.628906 231.941406 212.714844 233.328125 212.6875 234.699219 C 212.667969 235.863281 212.5 237.0625 212.527344 238.222656 C 212.550781 239.042969 212.902344 239.878906 212.851562 240.699219 C 212.792969 241.621094 212.53125 242.550781 212.429688 243.472656 C 211.933594 247.851562 211.558594 252.183594 210.289062 256.425781 C 210.105469 257.035156 209.964844 257.773438 209.628906 258.3125 C 209.304688 258.539062 209.066406 258.601562 208.683594 258.664062 C 208.511719 258.894531 208.457031 259.085938 208.382812 259.363281 L 208.210938 259.511719 C 208.359375 257.617188 208.691406 255.710938 208.921875 253.820312 C 209.636719 247.957031 210.5 242.113281 211.195312 236.246094 C 211.492188 233.738281 211.902344 231.382812 211.957031 228.84375 Z M 211.957031 228.84375 " fill-opacity="1" fill-rule="nonzero"/><path fill="#ffffff" d="M 120.308594 202.589844 C 120.195312 203.265625 120.0625 204.039062 119.773438 204.664062 C 118.945312 206.453125 116.550781 207.957031 114.964844 209.089844 C 114.34375 209.53125 113.65625 209.914062 113.058594 210.378906 C 110.859375 211.429688 109.558594 211.613281 107.253906 212.148438 C 107.628906 210.394531 107.726562 208.59375 107.867188 206.8125 C 111.878906 206.480469 116.910156 204.652344 120.308594 202.589844 Z M 120.308594 202.589844 " fill-opacity="1" fill-rule="nonzero"/><path fill="#ffffff" d="M 133.753906 231.757812 C 133.800781 231.9375 133.824219 232.074219 133.824219 232.261719 C 133.820312 232.730469 134 233.257812 133.9375 233.71875 C 133.8125 234.683594 130.628906 243.125 130.15625 244.097656 C 129.859375 244.703125 129.285156 245.144531 129.011719 245.765625 C 128.542969 246.828125 128.429688 248.070312 128.132812 249.183594 C 127.648438 251.007812 126.085938 253.695312 124.765625 255.023438 C 124.4375 255.347656 123.085938 256.417969 122.996094 256.527344 C 122.71875 256.863281 122.207031 256.929688 121.871094 257.285156 L 121.738281 257.183594 C 122.253906 255.851562 123.292969 254.519531 123.984375 253.253906 C 125.652344 250.195312 127.292969 247.078125 128.792969 243.933594 C 130.097656 241.199219 131.183594 238.316406 132.285156 235.496094 C 132.761719 234.273438 133.132812 232.902344 133.753906 231.757812 Z M 133.753906 231.757812 " fill-opacity="1" fill-rule="nonzero"/><path fill="#ffffff" d="M 156.941406 276.738281 C 156.792969 276.25 156.9375 275.929688 157.085938 275.464844 L 157.160156 275.238281 C 156.976562 274.789062 156.414062 274.699219 156.15625 274.300781 C 155.492188 273.261719 157.542969 271.578125 157.738281 270.539062 C 157.96875 269.316406 158.320312 267.859375 158.980469 266.785156 C 159.535156 265.878906 160.253906 265.144531 160.59375 264.105469 C 160.964844 262.976562 160.914062 261.832031 160.972656 260.664062 C 161.085938 258.386719 162.253906 257.878906 163.054688 256.046875 C 163.65625 254.675781 163.644531 252.976562 163.945312 251.519531 C 164.101562 250.753906 164.449219 250.101562 164.691406 249.375 C 164.867188 248.847656 164.972656 248.234375 165.398438 247.851562 L 165.90625 247.914062 C 165.511719 249.585938 164.980469 251.21875 164.539062 252.875 C 162.414062 260.957031 159.878906 268.917969 156.941406 276.738281 Z M 156.941406 276.738281 " fill-opacity="1" fill-rule="nonzero"/><path fill="#ffffff" d="M 118.6875 261.957031 C 118.820312 262.21875 118.789062 262.066406 118.777344 262.277344 C 118.761719 262.507812 118.765625 262.414062 118.808594 262.648438 C 118.953125 263.457031 118.414062 265.183594 117.964844 265.832031 C 117.773438 266.109375 117.59375 266.230469 117.261719 266.296875 C 116.863281 266.222656 116.75 266.09375 116.476562 265.816406 C 116.265625 265.933594 116.375 265.863281 116.15625 266.023438 L 116.042969 265.910156 C 116.449219 264.949219 117.992188 262.820312 118.6875 261.957031 Z M 118.6875 261.957031 " fill-opacity="1" fill-rule="nonzero"/><path fill="#ffffff" d="M 132.34375 283.605469 L 132.355469 283.457031 C 132.59375 283.1875 132.917969 283.054688 133.234375 282.890625 L 133.238281 282.894531 C 133.203125 282.816406 133.175781 282.730469 133.128906 282.660156 C 132.933594 282.382812 133.027344 282.714844 132.96875 282.378906 C 134.125 281.886719 135.308594 281.332031 136.570312 281.203125 C 136.96875 281.160156 137.386719 281.132812 137.773438 281.023438 C 138.019531 280.953125 137.878906 280.945312 138.15625 281.074219 C 136.199219 281.898438 134.285156 282.75 132.34375 283.605469 Z M 132.34375 283.605469 " fill-opacity="1" fill-rule="nonzero"/><path fill="#000000" d="M 211.5 226.128906 C 211.550781 225.527344 211.664062 224.664062 212.125 224.238281 L 212.339844 224.292969 C 212.636719 224.746094 212.566406 225.308594 212.574219 225.835938 C 212.097656 225.851562 211.898438 225.816406 211.5 226.128906 Z M 211.5 226.128906 " fill-opacity="1" fill-rule="nonzero"/><path fill="#000000" d="M 202.21875 146.644531 L 202.113281 146.691406 C 201.777344 146.132812 201.519531 145.285156 201.402344 144.640625 C 201.148438 143.28125 200.09375 142.207031 199.425781 141.019531 C 198.832031 139.976562 198.445312 134.230469 198.804688 133.085938 C 198.816406 133.042969 198.835938 132.996094 198.851562 132.949219 C 199.128906 132.117188 200.910156 128.59375 201.425781 127.8125 C 201.644531 127.476562 202.050781 127.230469 202.371094 127.003906 C 203.222656 126.414062 203.785156 125.390625 204.382812 124.554688 C 204.242188 124.464844 204.140625 124.5 203.976562 124.503906 L 203.910156 124.273438 C 204.382812 123.308594 206.195312 122.480469 207.113281 121.960938 C 207.125 121.785156 207.144531 121.628906 207.171875 121.457031 C 208.152344 120.671875 209.953125 120.183594 211.191406 120.039062 C 212.886719 119.84375 214.425781 121.015625 215.722656 122.019531 C 215.785156 122.351562 215.714844 122.386719 215.546875 122.683594 C 216.613281 124.058594 218.328125 124.910156 219.195312 126.441406 L 219.105469 126.71875 C 219.808594 127.769531 220.449219 128.859375 221.027344 129.984375 C 221.3125 130.53125 221.589844 131.382812 221.960938 131.855469 L 222.152344 131.820312 C 222.515625 132.390625 222.449219 133.183594 222.824219 133.746094 C 223.238281 134.367188 224.03125 134.578125 224.488281 135.132812 C 224.910156 135.640625 225.132812 136.539062 225.449219 137.144531 C 225.820312 137.859375 225.554688 138.722656 225.695312 139.488281 C 225.765625 139.878906 225.949219 140.238281 226.019531 140.632812 C 226.722656 144.589844 226.441406 147.527344 225.113281 151.269531 C 224.902344 151.867188 224.675781 152.363281 224.28125 152.863281 C 224.007812 152.851562 223.917969 152.789062 223.679688 152.660156 C 223.359375 152.894531 223.6875 152.988281 223.25 153.105469 C 222.960938 153.570312 222.707031 154.042969 222.453125 154.53125 C 221.660156 155.613281 220.941406 156.777344 219.886719 157.625 C 218.039062 159.023438 216.378906 159.5 214.085938 159.523438 C 213.089844 159.722656 212.332031 159.082031 211.476562 159.210938 C 210.535156 159.351562 210.4375 160.039062 209.199219 159.667969 C 208.878906 159.574219 208.4375 159.425781 208.160156 159.242188 C 207.023438 158.496094 206.050781 155.164062 205.367188 153.957031 C 205.265625 153.773438 205.167969 153.585938 205.066406 153.398438 L 205.160156 153.230469 C 203.882812 151.125 203.144531 148.90625 202.21875 146.644531 Z M 202.21875 146.644531 " fill-opacity="1" fill-rule="nonzero"/><path fill="#ffffff" d="M 202.21875 146.644531 L 202.113281 146.691406 C 201.777344 146.132812 201.519531 145.285156 201.402344 144.640625 C 201.148438 143.28125 200.09375 142.207031 199.425781 141.019531 C 198.832031 139.976562 198.445312 134.230469 198.804688 133.085938 C 198.816406 133.042969 198.835938 132.996094 198.851562 132.949219 C 199.128906 132.117188 200.910156 128.59375 201.425781 127.8125 C 201.644531 127.476562 202.050781 127.230469 202.371094 127.003906 C 203.222656 126.414062 203.785156 125.390625 204.382812 124.554688 C 204.242188 124.464844 204.140625 124.5 203.976562 124.503906 L 203.910156 124.273438 C 204.382812 123.308594 206.195312 122.480469 207.113281 121.960938 C 207.125 121.785156 207.144531 121.628906 207.171875 121.457031 C 208.152344 120.671875 209.953125 120.183594 211.191406 120.039062 C 212.886719 119.84375 214.425781 121.015625 215.722656 122.019531 C 215.785156 122.351562 215.714844 122.386719 215.546875 122.683594 C 216.613281 124.058594 218.328125 124.910156 219.195312 126.441406 L 219.105469 126.71875 C 217.292969 124.410156 214.832031 122.324219 211.824219 121.941406 C 209.582031 121.65625 207.488281 122.257812 205.726562 123.667969 C 202.632812 126.144531 201.335938 130.296875 200.9375 134.101562 C 200.488281 138.351562 201.109375 142.546875 202.21875 146.644531 Z M 202.21875 146.644531 " fill-opacity="1" fill-rule="nonzero"/><path fill="#ffffff" d="M 221.960938 131.855469 L 222.152344 131.820312 C 222.515625 132.390625 222.449219 133.183594 222.824219 133.746094 C 223.238281 134.367188 224.03125 134.578125 224.488281 135.132812 C 224.910156 135.640625 225.132812 136.539062 225.449219 137.144531 C 225.820312 137.859375 225.554688 138.722656 225.695312 139.488281 C 225.765625 139.878906 225.949219 140.238281 226.019531 140.632812 C 226.722656 144.589844 226.441406 147.527344 225.113281 151.269531 C 224.902344 151.867188 224.675781 152.363281 224.28125 152.863281 C 224.007812 152.851562 223.917969 152.789062 223.679688 152.660156 C 223.359375 152.894531 223.6875 152.988281 223.25 153.105469 C 225.507812 145.847656 224.496094 138.859375 221.960938 131.855469 Z M 221.960938 131.855469 " fill-opacity="1" fill-rule="nonzero"/><path fill="#ffffff" d="M 205.160156 153.230469 C 207.917969 156.625 209.585938 158.738281 214.085938 159.523438 C 213.089844 159.722656 212.332031 159.082031 211.476562 159.210938 C 210.535156 159.351562 210.4375 160.039062 209.199219 159.667969 C 208.878906 159.574219 208.4375 159.425781 208.160156 159.242188 C 207.023438 158.496094 206.050781 155.164062 205.367188 153.957031 C 205.265625 153.773438 205.167969 153.585938 205.066406 153.398438 Z M 205.160156 153.230469 " fill-opacity="1" fill-rule="nonzero"/><path fill="#000000" d="M 158.5625 121.148438 C 158.636719 121.140625 158.710938 121.132812 158.78125 121.125 C 159.140625 121.082031 159.351562 120.90625 159.664062 120.757812 C 160.726562 120.261719 162.761719 120.542969 163.777344 121.003906 C 164.726562 121.4375 165.996094 122.066406 166.722656 122.828125 C 166.75 123.070312 166.765625 122.964844 166.710938 123.144531 C 168.796875 125.367188 168.78125 125.625 170.09375 128.300781 L 170.332031 128.363281 C 170.429688 128.617188 170.488281 128.84375 170.535156 129.105469 L 170.707031 129.128906 L 170.894531 128.976562 C 171.488281 129.3125 172.714844 132.117188 172.929688 132.90625 C 173.785156 136.027344 174.136719 139.683594 172.394531 142.617188 C 171.941406 143.378906 171.1875 143.941406 170.664062 144.652344 C 169.996094 145.5625 170 146.621094 169.089844 147.367188 C 168.265625 149.160156 167.398438 150.917969 166.398438 152.617188 L 166.570312 152.691406 C 166.539062 152.753906 166.507812 152.816406 166.480469 152.878906 C 166.273438 153.339844 166.34375 153.9375 166.25 154.433594 C 166.144531 154.992188 165.898438 155.429688 165.695312 155.949219 C 164.972656 157.761719 164.949219 157.945312 163.0625 158.757812 C 162.234375 159.113281 161.4375 159.324219 160.535156 159.355469 C 160.066406 159.148438 159.667969 158.789062 159.148438 158.800781 C 158.96875 158.800781 158.761719 158.792969 158.59375 158.761719 C 158.117188 158.804688 157.644531 158.882812 157.164062 158.914062 C 154.90625 159.054688 153.003906 158.371094 151.324219 156.84375 C 150.378906 155.902344 149.679688 154.902344 148.96875 153.773438 C 147.5625 151.304688 147.226562 148.535156 147 145.742188 C 146.964844 146.164062 146.917969 146.578125 146.859375 146.996094 C 146.847656 146.769531 146.828125 146.542969 146.824219 146.316406 C 146.8125 145.921875 146.835938 145.667969 146.640625 145.308594 C 146.542969 145.128906 146.492188 145.058594 146.460938 144.847656 C 146.421875 144.5625 146.484375 144.785156 146.382812 144.480469 C 146.359375 144.414062 146.332031 144.347656 146.3125 144.277344 C 146.148438 143.691406 145.835938 143.203125 145.699219 142.601562 C 145.351562 141.101562 145.773438 140.863281 145.851562 139.617188 C 145.90625 138.777344 145.753906 137.882812 145.898438 137.054688 C 146.09375 135.945312 148.753906 132.417969 149.519531 131.191406 L 149.695312 131.210938 C 151.113281 128.078125 152.671875 125.601562 155.246094 123.300781 C 155.703125 123.007812 156.152344 122.714844 156.59375 122.390625 C 156.875 121.710938 157.925781 121.425781 158.5625 121.148438 Z M 158.5625 121.148438 " fill-opacity="1" fill-rule="nonzero"/><path fill="#ffffff" d="M 170.09375 128.300781 L 170.332031 128.363281 C 170.429688 128.617188 170.488281 128.84375 170.535156 129.105469 L 170.707031 129.128906 L 170.894531 128.976562 C 171.488281 129.3125 172.714844 132.117188 172.929688 132.90625 C 173.785156 136.027344 174.136719 139.683594 172.394531 142.617188 C 171.941406 143.378906 171.1875 143.941406 170.664062 144.652344 C 169.996094 145.5625 170 146.621094 169.089844 147.367188 C 169.402344 145.691406 170.066406 144.03125 170.453125 142.355469 C 171.484375 137.875 171.394531 132.699219 170.09375 128.300781 Z M 170.09375 128.300781 " fill-opacity="1" fill-rule="nonzero"/><path fill="#ffffff" d="M 147 145.742188 C 146.964844 146.164062 146.917969 146.578125 146.859375 146.996094 C 146.847656 146.769531 146.828125 146.542969 146.824219 146.316406 C 146.8125 145.921875 146.835938 145.667969 146.640625 145.308594 C 146.542969 145.128906 146.492188 145.058594 146.460938 144.847656 C 146.421875 144.5625 146.484375 144.785156 146.382812 144.480469 C 146.359375 144.414062 146.332031 144.347656 146.3125 144.277344 C 146.148438 143.691406 145.835938 143.203125 145.699219 142.601562 C 145.351562 141.101562 145.773438 140.863281 145.851562 139.617188 C 145.90625 138.777344 145.753906 137.882812 145.898438 137.054688 C 146.09375 135.945312 148.753906 132.417969 149.519531 131.191406 L 149.695312 131.210938 C 149.203125 132.800781 148.605469 134.371094 148.160156 135.976562 C 147.28125 139.152344 147.058594 142.46875 147 145.742188 Z M 147 145.742188 " fill-opacity="1" fill-rule="nonzero"/><path fill="#ffffff" d="M 166.398438 152.617188 L 166.570312 152.691406 C 166.539062 152.753906 166.507812 152.816406 166.480469 152.878906 C 166.273438 153.339844 166.34375 153.9375 166.25 154.433594 C 166.144531 154.992188 165.898438 155.429688 165.695312 155.949219 C 164.972656 157.761719 164.949219 157.945312 163.0625 158.757812 C 162.234375 159.113281 161.4375 159.324219 160.535156 159.355469 C 160.066406 159.148438 159.667969 158.789062 159.148438 158.800781 C 158.96875 158.800781 158.761719 158.792969 158.59375 158.761719 C 162.402344 157.472656 163.914062 155.679688 166.398438 152.617188 Z M 166.398438 152.617188 " fill-opacity="1" fill-rule="nonzero"/><path fill="#ffffff" d="M 158.5625 121.148438 C 158.636719 121.140625 158.710938 121.132812 158.78125 121.125 C 159.140625 121.082031 159.351562 120.90625 159.664062 120.757812 C 160.726562 120.261719 162.761719 120.542969 163.777344 121.003906 C 164.726562 121.4375 165.996094 122.066406 166.722656 122.828125 C 166.75 123.070312 166.765625 122.964844 166.710938 123.144531 C 165.789062 122.4375 164.847656 121.816406 163.742188 121.441406 C 161.183594 120.578125 158.914062 121.246094 156.59375 122.390625 C 156.875 121.710938 157.925781 121.425781 158.5625 121.148438 Z M 158.5625 121.148438 " fill-opacity="1" fill-rule="nonzero"/><path fill="#000000" d="M 180.234375 155.945312 L 180.121094 155.792969 C 180.421875 155.238281 180.898438 154.804688 181.332031 154.355469 L 181.105469 154.269531 C 180.910156 154.039062 180.964844 153.921875 180.972656 153.640625 C 180.996094 152.777344 181.378906 152.128906 182.023438 151.554688 C 182.136719 151.449219 182.308594 151.300781 182.453125 151.246094 C 182.695312 151.152344 187.886719 150.84375 188.1875 150.882812 C 188.757812 150.957031 189.363281 151.835938 189.707031 152.273438 C 190.199219 152.898438 190.8125 152.992188 191.226562 153.472656 C 191.429688 153.707031 191.226562 153.539062 191.535156 153.757812 C 191.703125 153.878906 191.808594 153.964844 191.941406 154.117188 L 191.6875 154.207031 C 192.367188 155.058594 193 155.917969 193.601562 156.824219 L 193.65625 156.6875 L 193.773438 156.664062 L 193.992188 157.199219 C 194.214844 157.742188 194.296875 158.8125 194.667969 159.210938 L 194.757812 158.886719 C 195.480469 158.96875 196.8125 160.96875 197.292969 161.589844 C 197.578125 161.957031 197.632812 162.382812 197.679688 162.832031 C 197.777344 163.773438 197.617188 168.625 197.472656 169.65625 C 197.148438 171.933594 196.234375 173.101562 195.433594 175.117188 C 195.082031 176 195.234375 177.171875 194.339844 177.75 C 194.183594 177.851562 194.144531 177.859375 193.988281 177.917969 L 194.015625 177.828125 C 193.945312 177.839844 193.878906 177.863281 193.808594 177.867188 C 193.746094 177.871094 193.683594 177.855469 193.621094 177.847656 C 191.980469 180.898438 190.347656 184.027344 186.773438 185.101562 C 185.050781 185.617188 183.257812 185.40625 181.6875 184.539062 C 179.296875 183.21875 179.027344 181.59375 177.671875 179.496094 L 177.5625 179.550781 C 177.316406 179.402344 177.324219 179.234375 177.25 178.972656 C 177.019531 178.136719 176.757812 176.914062 176.402344 176.140625 C 175.878906 175.003906 175.160156 173.960938 174.683594 172.796875 C 174.769531 172 175.226562 171.277344 175.320312 170.527344 C 175.40625 169.796875 175.089844 168.863281 175.058594 168.113281 C 175.015625 167.066406 175.292969 165.34375 175.941406 164.492188 C 176.242188 164.09375 176.644531 163.757812 176.910156 163.335938 C 177.109375 163.019531 177.09375 162.636719 177.269531 162.300781 L 177.425781 162.480469 C 177.675781 161.925781 177.800781 161.25 178.011719 160.667969 C 178.609375 159.011719 179.320312 157.453125 180.234375 155.945312 Z M 180.234375 155.945312 " fill-opacity="1" fill-rule="nonzero"/><path fill="#ffffff" d="M 193.601562 156.824219 L 193.65625 156.6875 L 193.773438 156.664062 L 193.992188 157.199219 C 194.214844 157.742188 194.296875 158.8125 194.667969 159.210938 L 194.757812 158.886719 C 195.480469 158.96875 196.8125 160.96875 197.292969 161.589844 C 197.578125 161.957031 197.632812 162.382812 197.679688 162.832031 C 197.777344 163.773438 197.617188 168.625 197.472656 169.65625 C 197.148438 171.933594 196.234375 173.101562 195.433594 175.117188 C 195.082031 176 195.234375 177.171875 194.339844 177.75 C 194.183594 177.851562 194.144531 177.859375 193.988281 177.917969 L 194.015625 177.828125 C 193.945312 177.839844 193.878906 177.863281 193.808594 177.867188 C 193.746094 177.871094 193.683594 177.855469 193.621094 177.847656 C 195.316406 172.066406 196.207031 166.511719 194.785156 160.542969 C 194.484375 159.277344 193.957031 158.074219 193.601562 156.824219 Z M 193.601562 156.824219 " fill-opacity="1" fill-rule="nonzero"/><path fill="#ffffff" d="M 177.671875 179.496094 L 177.5625 179.550781 C 177.316406 179.402344 177.324219 179.234375 177.25 178.972656 C 177.019531 178.136719 176.757812 176.914062 176.402344 176.140625 C 175.878906 175.003906 175.160156 173.960938 174.683594 172.796875 C 174.769531 172 175.226562 171.277344 175.320312 170.527344 C 175.40625 169.796875 175.089844 168.863281 175.058594 168.113281 C 175.015625 167.066406 175.292969 165.34375 175.941406 164.492188 C 176.242188 164.09375 176.644531 163.757812 176.910156 163.335938 C 177.109375 163.019531 177.09375 162.636719 177.269531 162.300781 L 177.425781 162.480469 C 176.082031 168.058594 175.917969 173.992188 177.671875 179.496094 Z M 177.671875 179.496094 " fill-opacity="1" fill-rule="nonzero"/><path fill="#ffffff" d="M 180.234375 155.945312 L 180.121094 155.792969 C 180.421875 155.238281 180.898438 154.804688 181.332031 154.355469 L 181.105469 154.269531 C 180.910156 154.039062 180.964844 153.921875 180.972656 153.640625 C 180.996094 152.777344 181.378906 152.128906 182.023438 151.554688 C 182.136719 151.449219 182.308594 151.300781 182.453125 151.246094 C 182.695312 151.152344 187.886719 150.84375 188.1875 150.882812 C 188.757812 150.957031 189.363281 151.835938 189.707031 152.273438 C 190.199219 152.898438 190.8125 152.992188 191.226562 153.472656 C 191.429688 153.707031 191.226562 153.539062 191.535156 153.757812 C 191.703125 153.878906 191.808594 153.964844 191.941406 154.117188 L 191.6875 154.207031 C 190.027344 152.917969 188.132812 152.078125 185.976562 152.335938 C 184.234375 152.546875 182.632812 153.425781 181.429688 154.679688 C 181.097656 155.027344 180.628906 155.699219 180.234375 155.945312 Z M 180.234375 155.945312 " fill-opacity="1" fill-rule="nonzero"/><path fill="#000000" d="M 185.304688 155.457031 C 186.152344 155.371094 187.371094 155.230469 188.191406 155.46875 C 189.226562 155.773438 190.074219 156.960938 190.566406 157.875 C 193.085938 162.546875 192.742188 169.996094 191.222656 174.957031 C 190.410156 177.601562 188.976562 180.644531 186.441406 181.996094 C 185.515625 182.285156 184.359375 182.367188 183.4375 182.035156 C 182.070312 181.542969 181.253906 180.238281 180.691406 178.96875 C 178.472656 173.984375 179.105469 165.996094 181.023438 161.011719 C 181.832031 158.914062 183.152344 156.40625 185.304688 155.457031 Z M 185.304688 155.457031 " fill-opacity="1" fill-rule="nonzero"/><path fill="#ffffff" d="M 222.453125 154.53125 C 222.5 154.574219 222.546875 154.617188 222.597656 154.65625 C 222.878906 154.875 223.117188 154.910156 223.464844 154.839844 C 224.285156 154.667969 225.128906 153.664062 225.832031 153.21875 C 228.039062 151.816406 231.992188 151.4375 234.339844 152.59375 C 235.335938 153.082031 236.160156 153.933594 236.519531 154.996094 C 236.917969 156.191406 236.652344 157.410156 236.0625 158.492188 C 234.597656 161.167969 231.6875 163.015625 228.8125 163.808594 C 226.875 164.34375 224.082031 164.492188 222.300781 163.449219 C 221.40625 162.925781 220.679688 162.09375 220.460938 161.0625 C 220.210938 159.875 220.71875 158.625 219.886719 157.625 C 220.941406 156.777344 221.660156 155.613281 222.453125 154.53125 Z M 222.453125 154.53125 " fill-opacity="1" fill-rule="nonzero"/><path fill="#ffffff" d="M 151.324219 156.84375 C 150.460938 158.222656 151.519531 159.691406 150.46875 161.460938 C 149.867188 162.472656 148.914062 163.070312 147.78125 163.332031 C 144.773438 164.023438 141.558594 162.96875 139.050781 161.324219 C 137.246094 160.140625 135.433594 158.402344 135.023438 156.1875 C 134.839844 155.183594 135 154.203125 135.617188 153.378906 C 136.472656 152.230469 138.003906 151.441406 139.40625 151.257812 C 141.621094 150.96875 144.769531 151.753906 146.515625 153.15625 C 146.96875 153.519531 147.433594 153.933594 147.996094 154.121094 C 148.359375 154.09375 148.554688 154.019531 148.871094 153.835938 C 148.90625 153.816406 148.9375 153.792969 148.96875 153.773438 C 149.679688 154.902344 150.378906 155.902344 151.324219 156.84375 Z M 151.324219 156.84375 " fill-opacity="1" fill-rule="nonzero"/><path fill="#ffffff" d="M 155.246094 123.300781 C 155.253906 123.28125 155.257812 123.257812 155.265625 123.238281 C 155.417969 122.949219 155.523438 122.742188 155.597656 122.421875 C 155.660156 122.15625 155.710938 121.945312 155.835938 121.703125 C 156.761719 119.890625 157.324219 120.835938 157.71875 120.71875 C 157.832031 120.683594 157.910156 120.460938 158.109375 120.398438 L 158.269531 120.753906 L 158.199219 120.917969 L 158.5625 121.148438 C 157.925781 121.425781 156.875 121.710938 156.59375 122.390625 C 156.152344 122.714844 155.703125 123.007812 155.246094 123.300781 Z M 155.246094 123.300781 " fill-opacity="1" fill-rule="nonzero"/><path fill="#ffffff" d="M 258.929688 176.519531 C 260.230469 178.402344 262.128906 180.710938 263.734375 182.296875 C 266.023438 184.675781 268.527344 186.84375 271.210938 188.765625 C 273.570312 190.464844 276.378906 192.019531 278.363281 194.144531 L 278.574219 193.953125 C 278.710938 193.980469 278.730469 193.976562 278.875 194.058594 C 279.832031 194.601562 280.953125 197.050781 281.21875 198.109375 C 281.5625 199.488281 281.351562 200.871094 280.628906 202.089844 C 279.101562 204.667969 276.722656 205.914062 273.917969 206.601562 C 271.804688 207.121094 269.636719 207.546875 267.480469 207.832031 C 265.074219 208.148438 256.160156 208.871094 254.371094 207.78125 C 254.113281 206.894531 255.476562 200.992188 255.710938 199.699219 C 256.542969 195.054688 257.371094 190.351562 257.90625 185.660156 C 258.253906 182.628906 258.316406 179.511719 258.929688 176.519531 Z M 258.929688 176.519531 " fill-opacity="1" fill-rule="nonzero"/><path fill="#ffffff" d="M 263.734375 182.296875 C 266.023438 184.675781 268.527344 186.84375 271.210938 188.765625 C 273.570312 190.464844 276.378906 192.019531 278.363281 194.144531 C 278.527344 194.527344 278.886719 194.875 279.144531 195.203125 C 279.851562 196.109375 280.988281 197.457031 280.746094 198.699219 C 280.660156 199.144531 280.335938 199.457031 279.960938 199.683594 C 277.667969 201.078125 273.640625 201.167969 271.097656 200.496094 C 268.34375 199.765625 265.980469 198.058594 264.546875 195.574219 C 262.980469 192.855469 263.195312 190.269531 263.082031 187.25 C 263.035156 186.078125 262.820312 184.675781 263.058594 183.527344 C 263.171875 182.992188 263.582031 182.863281 263.734375 182.296875 Z M 263.734375 182.296875 " fill-opacity="1" fill-rule="nonzero"/><path fill="#000000" d="M 211.5 226.128906 C 211.898438 225.816406 212.097656 225.851562 212.574219 225.835938 C 212.5 226.527344 212.386719 227.144531 212.101562 227.789062 C 211.847656 227.375 211.664062 227.328125 211.234375 227.171875 C 211.292969 226.824219 211.410156 226.46875 211.5 226.128906 Z M 211.5 226.128906 " fill-opacity="1" fill-rule="nonzero"/></svg>